<svg id="Слой_1" data-name="Слой 1" xmlns="http://www.w3.org/2000/svg" viewBox="0 0 1024 1024"><defs><style>.cls-1{fill:#69e3df;}.cls-2{fill:#fefefe;}.cls-3{fill:#6a3c1c;}.cls-4{fill:#fdfefe;}.cls-5{fill:#fdfdfd;}.cls-6{fill:#3acff7;}.cls-7{fill:#facf00;}.cls-8{fill:#00b2f8;}.cls-9{fill:#f3b00b;}.cls-10{fill:#6ae4e0;}.cls-11{fill:#3acff8;}.cls-12{fill:#f9cf00;}.cls-13{fill:#f9ce00;}</style></defs><path class="cls-1" d="M490,.11h44c6.72,1.3,13.56.69,20.3.82,26.78.51,52.88,5.21,78.81,11.39A501.23,501.23,0,0,1,754.55,58.58a519.25,519.25,0,0,1,89.78,61.16c10.44,8.82,20.57,18,30.14,27.65,32.62,32.84,60.87,69.11,83.84,109.43a514.88,514.88,0,0,1,44.06,100.41,484.69,484.69,0,0,1,19.29,88.08c1.56,13,1.75,26.2,1.76,39.34,0,1.78-.56,3.65.47,5.35v44c-1.27,6.55-.75,13.23-.84,19.8-.45,32.89-7.3,64.69-15.81,96.2a486.69,486.69,0,0,1-40,101,520.54,520.54,0,0,1-91,123.82,503.74,503.74,0,0,1-63.72,54.34,509.08,509.08,0,0,1-199.85,87c-25.06,5.13-50.3,7.16-75.79,7.21-1,0-2-.27-2.85.49H490c-6.72-1.3-13.56-.71-20.3-.82-29.67-.5-58.47-6.23-87-13.54A504.38,504.38,0,0,1,221.34,936a526.33,526.33,0,0,1-67-55.08A511.48,511.48,0,0,1,61.52,759.77C35.54,713,17.94,663.1,7.31,610.71A360.5,360.5,0,0,1,.59,537.35C.6,536.23,1,535,.11,534V490c1.3-6.72.71-13.56.82-20.3.44-26.46,5.2-52.21,11.18-77.83A510.9,510.9,0,0,1,122.65,176.24a522.36,522.36,0,0,1,67.09-64.65,513.86,513.86,0,0,1,98.88-62.68A520.26,520.26,0,0,1,408.4,8.3,362.68,362.68,0,0,1,486.15.59C487.43.6,488.82,1,490,.11Z"/><path class="cls-2" d="M534,1023.89c6.82-1.79,13.87-1.2,20.8-1.78,76.88-6.44,148.79-28.8,215.17-68q151.85-89.74,218-253.57A488.74,488.74,0,0,0,1020,574.16c1.41-11.9,2.65-23.81,3.05-35.8a8.52,8.52,0,0,1,.8-4.36q0,242.68.09,485.39c0,3.75-.84,4.59-4.59,4.59Q776.69,1023.82,534,1023.89Z"/><path class="cls-2" d="M490,.11c-7,1.79-14.19,1.19-21.29,1.81Q327.85,14.22,213,96.58A511.2,511.2,0,0,0,9,416.81,476.63,476.63,0,0,0,.88,486.14,23.55,23.55,0,0,1,.11,490Q.11,247.44,0,4.86C0,.81.81,0,4.86,0Q247.43.2,490,.11Z"/><path class="cls-2" d="M1023.89,490c-1.84-6.65-1.17-13.54-1.76-20.3Q1008,306.41,902.43,181.17C838.7,105.77,759.31,53.37,665.25,23.44A495.4,495.4,0,0,0,554.79,1.87c-6.92-.56-14,0-20.79-1.76Q776.57.11,1019.14,0c4.05,0,4.86.81,4.86,4.86Q1023.81,247.43,1023.89,490Z"/><path class="cls-3" d="M911.91,416.67c0,33.5-.7,67,.17,100.47,1.18,45.63-32.18,80.39-73.37,88.76-13.17,2.68-26.58.75-39.87,1.16-6.9.22-6.9.05-6.9,6.89q0,31,0,62a41.77,41.77,0,0,1-2.58,15.66c-3.72,9.29-11.89,14.12-21.56,11.94-11.9-2.67-22.33-7.77-29.94-18.16-18-24.6-36.53-48.8-54.71-73.26-2.18-3-4.32-4.35-8.16-4.25-11.15.3-22.32.21-33.48,0-3.1,0-4,.93-3.93,4,.19,10,.5,20-2.16,29.8-8.16,30-29.07,45.82-58.3,52.28A99.65,99.65,0,0,1,555.3,696q-99.48-.11-198.95-.13c-3.72,0-6,1.06-8.21,4.09-18.69,25.53-37.31,51.12-56.52,76.26-7.84,10.27-19.38,15.07-32.19,15.57-9.56.38-16.22-6.13-18.33-16.47A56,56,0,0,1,240,763.9c0-20.66-.21-41.33.17-62,.1-5.35-1.61-6.15-6.37-6.08-13.48.21-27.15,1.22-40.43-.53-34.14-4.48-55.93-25-68.26-56.39a78.22,78.22,0,0,1-5.07-28.86q0-104.46,0-208.94c0-45.41,35.8-81,81.31-81.07q91.73-.07,183.45,0c7.15,0,7.15,0,7.17-7,.1-37.36,27.1-71.24,63.27-79.37A67.28,67.28,0,0,1,470.15,232q181.71,0,363.4.06c22.71,0,41.88,8.42,57.25,25.08a77.26,77.26,0,0,1,21.06,53.55C912,346,911.91,381.35,911.91,416.67Z"/><path class="cls-4" d="M512,145.23a34.37,34.37,0,0,1,34.09-34c19-.06,34.75,15.28,34.72,33.92,0,18.81-16.05,35-34.6,34.9C527.05,180,512,164.62,512,145.23Z"/><path class="cls-4" d="M322.16,216.37C322,220.74,317,224.7,312,225c-3.32.23-6.67.18-10,.57-6.63.79-10.06,4.28-11,10.85-.67,4.6-1.31,9.22-2,13.81a12.07,12.07,0,0,1-2.93,6.77c-3.46,3.59-8.34,2.3-10.63-3.09-2.18-5.1-2-10.75-3.12-16.11-1.43-6.89-4-9.63-11-10.81-4.26-.72-8.56-1.25-12.79-2.09-3.91-.78-7.87-2.37-8.16-6.84-.31-4.64,3.6-6.42,7.45-7.42,5-1.29,10.06-2.22,15.08-3.39,5.55-1.29,8.49-4.58,9.26-10.26.61-4.44,1-8.92,1.8-13.34.65-3.87,2.52-7.39,6.84-7.38s6.24,3.65,7.11,7.3c1.06,4.52,1.55,9.18,2.23,13.78,1,6.69,4.24,9.88,11.06,10.75,4.94.64,9.94,1.06,14.81,2.06C319.37,210.89,322,213,322.16,216.37Z"/><path class="cls-4" d="M679.92,839c-.44,3.42-2.72,4.93-5.54,5.87-4,1.34-8.23,1-12.37,1.13-8.56.32-12.34,3.59-13.72,12-.78,4.75-1.32,9.54-2.17,14.28-.69,3.85-2.57,7.35-6.86,7.38s-6.12-3.68-7.12-7.29c-1.29-4.64-2.3-9.36-3.14-14.1-.93-5.26-4.1-8.24-9-9.4-3.72-.87-7.53-1.32-11.29-2-1.63-.28-3.29-.5-4.88-.94-3.57-1-6.85-2.68-6.68-6.89s3.72-6.13,7.39-7c4.19-1,8.49-1.54,12.77-2.14,7.67-1.07,10.57-3.91,11.81-11.74.67-4.27,1.21-8.56,2.13-12.78.8-3.65,2.2-7.35,6.71-7.55s6.43,3.26,7.33,6.9c1.18,4.83,1.75,9.8,2.6,14.71,1.06,6.16,4.6,9.49,10.91,10.4,4.6.66,9.22,1.24,13.77,2.19C676.29,832.88,679.33,834.79,679.92,839Z"/><path class="cls-5" d="M392,839.83a32.27,32.27,0,0,1,31.83-31.89c17.49,0,32.05,14.28,32.14,31.58a32.14,32.14,0,0,1-32.33,32.39C406.38,871.85,392,857.3,392,839.83Z"/><path class="cls-6" d="M777,594.17a15.61,15.61,0,0,0-2,8.56c0,17.74-.1,35.49-.17,53.24-1.88,2.21-4.37,2.37-6.87,1.73-10.22-2.58-19.18-7-25.64-15.93-17.77-24.72-36.33-48.85-54.14-73.54-3.29-4.57-7-6.2-12.51-6.19q-99.42.23-198.84.05c-31.17-.07-52.49-16.24-67.3-42.43-1.65-2.92-1.51-6.45-2.2-9.69-.07-19.83-.18-39.65-.2-59.47,0-45.49-.1-91,0-136.47.09-29.27,19.07-55.06,46.22-63.32a58.64,58.64,0,0,1,17.2-2.65q182.46,0,364.92,0c31.33,0,59,27.56,59.3,59.86.49,45.49.2,91,.18,136.47,0,25.15-.12,50.31-.19,75.47C889,537,876,547.11,860.84,555.12c-10.19,5.4-21.25,7.26-32.78,7.08-14.31-.23-28.62-.09-42.93,0-6.58,0-6.83.47-7.06,7.18C777.78,577.61,779.1,586,777,594.17Z"/><path class="cls-7" d="M136.25,606c-.05-14.48-.14-29-.15-43.46q0-80.94,0-161.89c0-34.78,25.49-62.5,60.15-65.24,3.25-.25,6.58.62,9.87.62q90.18.06,180.37-.09c4.74,0,5.65,1.44,5.64,5.83q-.21,87.69-.09,175.38A91.45,91.45,0,0,0,466.19,607a56.06,56.06,0,0,0,10.89,1q69.21-.07,138.41,0c1.49,0,3,.12,4.48.18,1.37,5.16.15,9.93-2.68,14.18-12.75,19.16-29.78,32-53.06,35.41a65.21,65.21,0,0,1-9.47.35c-65.44,0-130.88.15-196.32-.18-7.53,0-12.34,2.45-16.8,8.11-17.81,22.58-36.2,44.7-54.42,66.94-6,7.31-14.5,11-23.67,12.88-2.54.51-5.39.63-7.32-1.94q-.15-29.85-.31-59.7c-3.42-8.5-1.69-17.4-2-26.13-.25-7.69-.29-7.94-7.8-8-15.13,0-30.26.06-45.39,0-18.67-.12-34.55-7.12-48-19.86-1.21-1.14-2.34-2.36-3.54-3.52C143.15,620.89,137.81,614.62,136.25,606Z"/><path class="cls-8" d="M407.36,510c5,11.38,11.34,21.86,20.54,30.37C441.35,552.8,457.08,560,475.63,560q101.46.07,202.91-.07c4.44,0,7.26,1.27,9.93,4.94,18.43,25.25,37.18,50.26,55.66,75.48,7.69,10.48,18.09,15.13,30.73,15.65,0,8.15.25,16.31,0,24.46-.18,6.55-2.28,7.82-8.64,5.71a30.71,30.71,0,0,1-15.62-10.9c-19-25.29-38.36-50.27-57.31-75.59-4.11-5.5-8.8-7.77-15.59-7.75q-99.4.21-198.8.08c-33,0-62.79-24-69.85-56.21A89.41,89.41,0,0,1,407.36,510Z"/><path class="cls-9" d="M256.23,743.92c14.14.38,24.58-6.2,33.2-16.92,18.38-22.9,37-45.58,55.52-68.4,2.25-2.78,5.12-2.64,8.13-2.64H527.36c8.49,0,17-.13,25.46,0,25.16.49,44.42-10.52,59.22-30.2,3.93-5.23,8.84-10.16,7.93-17.63,1.94,6.81,1.25,13.78.46,20.55-3,25.33-18.76,42-45,48.2-7.67,1.81-15.46,2.18-23.3,2.18-67.1,0-134.2,0-201.3-.13-5.93,0-9.85,1.81-13.38,6.66-19.36,26.66-39,53.12-58.62,79.61-4.2,5.68-10.48,8.16-17,9.53-5.31,1.12-5.41-3.68-5.54-6.89C255.94,759.91,256.21,751.91,256.23,743.92Z"/><path class="cls-9" d="M136.25,606c5.1,7.55,10,15.13,16.72,21.53,14,13.38,30.32,20.57,49.78,20.48,16-.08,31.95.09,47.92-.1,4.09,0,5.57,1.21,5.46,5.39-.28,10.31-.16,20.63-.21,30.94-2.17-3.94-5.61-5.22-10-5.18-13.8.11-27.63-.52-41.41.14-32.2,1.53-59.08-23.89-66.36-52.95A58.54,58.54,0,0,1,136.25,606Z"/><path class="cls-8" d="M777,594.17c-2-2.88-1-6.15-1-9.23-.17-6.49.21-13-.14-19.48-.25-4.56,1.53-5.62,5.78-5.56,15.48.22,31,0,46.46.12,28.32.31,48.59-13.44,63.84-36.14.92-1.37,1.43-3,2.9-4,1.64,28.47-16.86,55.93-45.15,67A67.67,67.67,0,0,1,823,592.06c-12.47-.32-25,0-37.45-.12C782.43,591.92,779.58,592.34,777,594.17Z"/><path class="cls-10" d="M546.44,128.09c9.8,0,18.61,9.24,18.38,19.24-.22,9.72-8.77,17.77-18.68,17.59a18.42,18.42,0,0,1,.3-36.83Z"/><path class="cls-10" d="M423.91,823.08a16.86,16.86,0,0,1,17,16.62,17.43,17.43,0,0,1-16.7,17.1c-8.94.13-16.94-7.75-17-16.75A17.17,17.17,0,0,1,423.91,823.08Z"/><path class="cls-3" d="M571.7,488c-9.2,0-17.53.16-25.84-.08-3.37-.1-3.26,2.11-3.62,4.11-1.5,8.37-3.37,16.63-7.21,24.3-2.36,4.73-5.52,8.62-10.64,10.73-4,1.64-7.19.9-9.69-2.48s-2.3-8.11,1.22-10.79c7.78-5.91,7.87-14.94,10.11-23.12.66-2.42-.73-2.72-2.7-2.7-5.83.07-11.66.06-17.49,0S496,484.5,496,479.68s3.42-7.62,9.63-7.66,12.33-.19,18.49.06c3.39.13,5.12-.43,5.14-4.41a126.74,126.74,0,0,1,1.38-15.41c.42-3.2-.36-4.31-3.82-4.33-11.48-.09-23,.82-34.44-.76-17.22-2.37-26.5-10.33-27.72-27.4-1.53-21.56-1.85-43.3.32-64.86,1.36-13.47,8.26-18.8,21.71-19,2.34,0,4.68,0,7,.13,5,.34,7.83,3.28,7.86,7.91,0,4.8-3,7.79-8.26,8-1.5.07-3,0-4.5,0-7.35-.14-7.82,0-8.46,7.41-.46,5.44-.09,11-.09,16.58,14.83,0,29.71-.07,44.58.06,2.87,0,3.14-1.22,3.2-3.57.17-6.31-.75-12.66.57-18.91.49-2.32-1.55-1.79-2.48-2.26-4-2-4.85-5.27-4.19-9.21s3.26-6,6.92-6c19.81.27,39.68-1.44,59.41.9,14,1.66,19.7,8.71,19.71,22.75q0,25,0,50c0,1.84,0,3.67-.07,5.5-1.06,22.06-12.15,32.67-34.23,32.74-7.5,0-15,.21-22.49-.08-3.55-.13-4.49,1.06-4.55,4.43a130.52,130.52,0,0,1-1.29,15.42c-.46,3.2.07,4.37,3.62,4.3,11-.22,22-.11,33-.06,7.61,0,11.14,4.55,9.53,12.08-2.72,12.7-10.9,21-21.87,27-3.72,2-7.67.65-9.83-3a9.37,9.37,0,0,1,2.7-12C565.58,493.86,569,492.11,571.7,488Z"/><path class="cls-2" d="M734.45,264.06c30.31,0,60.66.81,90.94-.21,40.72-1.36,54.2,24.65,54.42,54.48.35,46.63.1,93.28.1,139.91,0,6.83.05,13.66,0,20.49-.06,6.07-2.92,9.28-8,9.24s-7.9-3.27-7.9-9.38q0-79.2,0-158.41a66.84,66.84,0,0,0-1.89-16.31c-3.94-15.77-13.84-23.75-30.07-23.79q-57-.12-113.93,0-42,0-83.95,0c-2.89,0-5.77,0-7.87-2.33a8,8,0,0,1-1.64-8.81c1.3-3.37,3.95-4.83,7.42-4.85,8.33,0,16.66,0,25,0Z"/><path class="cls-3" d="M710.61,392c6.27,16,14.31,30.18,26,42.12a54,54,0,0,0,23.49,14.56c5.91,1.73,7.84,5.34,6.15,10.89-1.16,3.78-5.16,5.4-10.43,4-15.41-4.21-27.07-13.83-37.05-25.87-8.43-10.19-14.9-21.58-20.55-33.8-3,1.67-2.24,4.33-2.25,6.59q0,44.49,0,89c0,1.16,0,2.33,0,3.5-.16,5.44-3.28,9-7.93,9.05s-8-3.5-8-8.91c-.09-8.49,0-17,0-25.49V426.7c-3.43,2.8-6.28,5.15-9.17,7.46a141.2,141.2,0,0,1-17.76,12c-4.94,2.85-9.08,2.17-11.63-2a8.94,8.94,0,0,1,3-12.27c5.47-3.49,11-6.9,16.16-10.84a91.71,91.71,0,0,0,16.86-16.25c1-1.28,2.19-2.47,2.52-4.22,1.4-7.27.34-8.6-7-8.6-7.83,0-15.66.05-23.49,0-5.81,0-9.37-3.13-9.44-8s3.26-7.91,9.33-7.94c8.66,0,17.33-.18,26,.07,3.6.11,4.87-.66,4.77-4.57-.3-11.16-.13-22.32-.1-33.49,0-6.6,2.65-9.94,7.79-10s8.18,3.65,8.19,10.27c0,10.83.29,21.67-.12,32.48-.18,4.68,1.41,5.43,5.57,5.31,10.66-.28,21.32-.1,32-.08,6.79,0,10.42,2.75,10.54,7.91S740.59,392,733.69,392C726.23,392,718.77,392,710.61,392Z"/><path class="cls-2" d="M512,280.05c-12.81,0-25.62,0-38.42,0-6.33,0-9.65-3-9.5-8.28.14-5,3.35-7.68,9.56-7.68q38.43,0,76.85,0c7,0,10.93,4.39,9.23,10.23-1.27,4.36-4.52,5.79-8.8,5.77C537.91,280,524.93,280.05,512,280.05Z"/><path class="cls-3" d="M792,508c0,8.61-2.42,12.11-8.24,12-5.57-.13-7.76-3.48-7.77-11.92,0-.82,0-1.65,0-2.48.09-6,3.28-9.68,8.31-9.57s7.61,3.41,7.7,9.52C792,506.36,792,507.19,792,508Z"/><path class="cls-3" d="M799.94,508.16c0-8.36,2.59-12.21,8.2-12.15s7.8,3.5,7.79,11.9c0,1.49.08,3,0,4.47-.38,4.78-3.5,7.67-8.09,7.6s-7.52-3-7.84-7.85C799.88,510.81,800,509.49,799.94,508.16Z"/><path class="cls-3" d="M823.94,508.19c0-8.38,2.57-12.21,8.17-12.17s7.82,3.5,7.82,11.87c0,1.49.08,3,0,4.47-.38,4.78-3.48,7.68-8.06,7.62s-7.56-3-7.87-7.82C823.87,510.84,823.94,509.52,823.94,508.19Z"/><path class="cls-3" d="M345.06,491.44c8.09,3.4,15,6.93,20.62,12.64,15.24,15.54,13.57,39.85-3.76,53-11.46,8.73-24.95,12.28-38.77,14.79a138.71,138.71,0,0,1-25.33,2.33c-7.15,0-9.75-2.45-9.76-9.46q0-57.45,0-114.91c0-6.87,2.88-9.73,9.63-9.86a125.85,125.85,0,0,1,47.88,8.32c6.25,2.39,12.13,5.52,16.81,10.47,9.61,10.14,7,23.36-5.83,28.73C353.06,489,349.36,490,345.06,491.44Z"/><path class="cls-3" d="M184,566.23c.61-2.21,1.39-5.26,2.29-8.27q16.45-54.94,33-109.89c0-.16.12-.31.16-.47,1.11-4.18,3.18-7.59,8-7.48,4.54.1,6.45,3.37,7.62,7.36,4.32,14.67,8.74,29.31,13.12,44,1.43,4.78,3,9.53,4.29,14.34,1.06,3.87,1.92,7.05,7.06,8,4.89.94,6.29,8.06,2.49,11.88-2.53,2.55-2.23,4.58-1.34,7.45,3.3,10.64,6.43,21.33,9.55,32,1.4,4.79-.72,9.26-4.83,10.53-3.51,1.08-7.26-1.43-8.76-6.2-3.83-12.22-7.63-24.44-11.22-36.73-.84-2.88-2-4.06-5.14-4q-12.24.32-24.48,0c-3.16-.08-4.3,1.18-5.13,4-3.41,11.64-7.06,23.22-10.62,34.82a24.94,24.94,0,0,1-1,2.84c-1.75,3.93-4.82,6.3-9.08,5.34S184,571.42,184,566.23Z"/><path class="cls-2" d="M284.06,360H357a22.84,22.84,0,0,1,5,.23c3.9.88,5.94,3.55,6,7.51s-1.74,6.76-5.6,7.85a18.12,18.12,0,0,1-4.95.38H210.61a20.38,20.38,0,0,1-4-.15c-4.38-.87-6.62-3.68-6.5-8.11.1-4.21,2.38-6.84,6.54-7.59a25.67,25.67,0,0,1,4.48-.13Q247.61,360,284.06,360Z"/><path class="cls-11" d="M544,411.85c0-5.66.08-11.32,0-17-.05-2.16.66-2.89,2.85-2.88q21.23.11,42.45,0c1.78,0,2.81.37,2.73,2.46-.36,8.63.79,17.32-.85,25.9-1.52,7.92-5.2,11.31-13.26,11.52-10.31.28-20.64,0-31,.17-2.52,0-3-.95-3-3.23C544.08,423.18,544,417.51,544,411.85Z"/><path class="cls-11" d="M480.1,392h37.21C528,392,528,392,528,402.49v26c0,1.8.43,3.72-2.55,3.59-10.8-.44-21.64.89-32.39-.92-9-1.51-12.51-5.17-12.89-14.28C479.83,408.55,480.1,400.23,480.1,392Z"/><path class="cls-11" d="M568.07,376c-7,0-14-.09-21,0-2.34,0-3.11-.66-3.17-3.08-.16-6.46.78-13-.57-19.38-.35-1.66.73-1.55,1.66-1.53,13.62.34,27.26-.82,40.86.72,4.77.54,6.65,2.79,6.14,7.58-.54,5.07,2.11,11.87-1.07,14.78-2.76,2.53-9.45.78-14.41.87C573.72,376.07,570.9,376,568.07,376Z"/><path class="cls-7" d="M304.05,531.49c0-8,0-16,0-23.94,0-1.92-.09-3.58,2.71-3.58,12.17,0,24.32.09,35.92,4.38,11.19,4.14,16.62,11.75,16.45,22.37-.09,5.95-2.93,10.45-7.24,14.18-8.58,7.44-19.08,10.58-29.84,12.93-4.69,1-9.53,1.39-14.29,2.11-2.79.42-3.8-.61-3.75-3.5C304.16,548.12,304.06,539.81,304.05,531.49Z"/><path class="cls-12" d="M304.06,487.81c0-9.95,0-19.59,0-29.23,0-2,.88-2.64,2.72-2.55,13.56.64,26.86,2.43,39.09,8.86a16.16,16.16,0,0,1,2.87,2c4.59,3.89,4.4,6.61-1,9.36-9.14,4.65-19.22,6.34-29.08,8.66C314,486,309.22,486.79,304.06,487.81Z"/><path class="cls-13" d="M228.65,478.14c2.2,7.19,4.54,14.34,6.56,21.57,1.18,4.25,5,9.31,2.76,12.43-1.53,2.11-8.06.68-12.36.72-8.92.06-8.9,0-6.28-8.36q4.09-13.15,8.14-26.33Z"/></svg>