<svg id="Слой_1" data-name="Слой 1" xmlns="http://www.w3.org/2000/svg" viewBox="0 0 1024 1024"><defs><style>.cls-1{fill:#43a0ff;}</style></defs><path class="cls-1" d="M977.31,496.11c-5.4-2.15-10.89-4.07-16.36-6.05-9.49-3.43-15.23-.75-18.71,8.81Q878.54,674.06,814.83,849.23c-1.75,4.81-2.38,11.41-5.87,13.84s-9.93.85-15.08.85q-101,0-202,.07c-3.44,0-5-.23-5.15-4.6-.27-10.55-5.46-18.7-14.63-24-17.68-10.27-35.58-20.18-53.13-30.69-13.38-8-27.11-9.06-41.69-4.32q-33.18,10.8-66.44,21.32c-1.63.52-3.43,2.11-5.16-.58-2.67-4.16-6.93-5.21-11.74-5.19-23.16.1-46.32,0-69.49.09-2.88,0-4.33-.33-4.74-3.82-1-8.25-2.5-16.45-4-24.62A861.57,861.57,0,0,0,237.06,555c-3.12-6.17-7.3-9.22-14.32-9.53a252.85,252.85,0,0,1-118.32-35.18c-9.64-5.65-16.09-3.35-20.51,7.1a800.42,800.42,0,0,0-62,260.8A817.09,817.09,0,0,0,25.3,922.42c1.1,10,5.17,13.5,15.44,13.5H393.67c8.6,0,12.54-2.81,14.18-10.83.47-2.3,1.68-2.59,3.25-2.88a189.64,189.64,0,0,0,27.38-7.52c1.8-.62,2.79-.8,4.06,1.08,9.8,14.48,23.69,20.32,41,20.25,58-.24,116-.09,174-.1h176c27.58,0,46.52-18.73,46.67-46.25a41.46,41.46,0,0,1,2.56-14.52q41.16-112,82-224.21c12.36-33.87,24.94-67.66,37-101.63C1009.49,527.24,998.9,504.71,977.31,496.11ZM339.41,912c-35.15-.14-70.31,0-105.47-.1-56.81-.11-103.1-39.3-112.54-95.28a103.35,103.35,0,0,1-1.35-17.42q.09-53,0-106c0-9.84-8.38-15.93-16.71-12.21a11.38,11.38,0,0,0-7.23,11c0,38.33-1.18,76.7.43,115,1.79,42.28,21.26,76.28,54.89,102.06.91.7,1.84,1.39,3.83,2.89H94.1c-14,0-28-.08-42,.05-2.89,0-3.87-.62-4.18-3.76A768.41,768.41,0,0,1,47.3,760a782.11,782.11,0,0,1,52.84-219.4c1.45-3.62,2.66-3.75,6-2a271.67,271.67,0,0,0,107.71,30.35c3.16.21,4.17,1.82,5.34,4.17a827.64,827.64,0,0,1,58.79,156A808.93,808.93,0,0,1,296.12,816c-10.18-.42-20.18,1-30-1.4-20.16-5-34-22.77-34-43.88-.09-33.83,0-67.65,0-101.48,0-9.82-8.4-15.92-16.72-12.21a11.4,11.4,0,0,0-7.23,11c0,35.66-.57,71.34.25,107,.82,35.31,31.63,64.51,67.18,64.88,21.33.23,42.66.16,64,0,3.77,0,4.65.93,4.62,4.64q-.3,31.49,0,63C344.18,911.38,343,912,339.41,912Zm40.67,0C368,912,368,912.11,368,900V875.53c0-10.47.09-20.95-.06-31.41-.05-3,.39-4.3,3.93-4.28C384,839.9,384,839.74,384,852c0,18.61-.07,37.22.07,55.84C384.11,911,383.47,912,380.08,912Zm32.27-14.52c-3.71.92-4.46.13-4.41-3.52.19-14.15.16-28.3,0-42.45,0-2.76.69-4,3.5-4.88,25.18-7.91,50.28-16.06,75.42-24.07a22.11,22.11,0,0,1,18.69,2.09q26.67,15.58,53.53,30.88c2.33,1.34,4.46,2.88,3.68,5.75S559.37,864,557,864c-11.82,0-23.64,0-35.46,0-11.15,0-22.31.14-33.46-.06a18.67,18.67,0,0,0-12,4A177.77,177.77,0,0,1,412.35,897.5Zm443.81-4.42a20.73,20.73,0,0,1-18.86,18.79c-1.32.1-2.66,0-4,0q-175.63,0-351.28.05c-5.7,0-10.86-1.05-15.38-4.68-2.56-2-3.7-3.45.33-5.42a115.41,115.41,0,0,0,19.08-11.76c2.45-1.87,5-2.21,7.9-2.21q89.19.06,178.38,0,89.45,0,178.89-.11C855.55,887.82,856.55,889,856.16,893.08Zm122-349.41Q920.47,701.86,862.81,860.05c-1.07,2.93-2.4,4.1-5.66,4-7.14-.29-14.3-.09-22.16-.09,9.46-26,18.67-51.22,27.86-76.48q48.54-133.41,97-266.85c1.35-3.71,2.47-4.72,6.5-3.1C978.87,522.55,982.83,530.81,978.14,543.67Z"/><path class="cls-1" d="M501.27,240c-7.78,0-13.19-4.94-13.26-11.87s5.3-12.08,13-12.1q35-.07,69.94,0c7.72,0,13.09,5.14,13,12.11S578.52,240,570.71,240c-11.66.05-23.32,0-35,0C524.25,240.05,512.76,240.09,501.27,240Z"/><path class="cls-1" d="M611.82,240a12,12,0,0,1,.1-23.91c8-.18,16-.16,24,0a12,12,0,0,1,12.08,12c0,6.59-5.19,11.72-12.18,11.92-4,.11-8,0-12,0S615.81,240.17,611.82,240Z"/><path class="cls-1" d="M678.75,281.23c-2.6,5.22-7.14,6.87-12.82,6.86Q607,288,548,288H503c-9.45,0-15.08-4.57-15-12.14.07-7.4,5.62-11.85,14.78-11.85h81.46q41.24,0,82.46,0C676.71,264.08,682.89,272.92,678.75,281.23Z"/><path class="cls-1" d="M710.73,185.24c-2.48,5-6.79,6.87-12.31,6.85q-49.47-.1-98.95,0-49.23,0-98.45,0c-9.7,0-15.8-8.75-11.89-16.93,2.5-5.23,7-7.1,12.66-7.08,30.16.09,60.31,0,90.46,0q53.22,0,106.45,0C708.71,168.1,714.88,176.92,710.73,185.24Z"/><path class="cls-1" d="M738.57,88.08q-138.72,0-277.43,0c-26.89,0-45.11,18.24-45.12,45.14q0,77.47.07,155a10.56,10.56,0,0,1-3.45,8.24q-32.53,32.5-64.86,65.21c-1.64,1.66-3.36,3.25-4.34,5.43-3.9,8.68,2.4,17,12.94,17h193q94.49,0,188.95,0c27.67,0,45.65-18,45.66-45.61q0-102.48,0-204.95C783.94,106.17,765.87,88.09,738.57,88.08ZM760,338c0,14.88-7.14,22-22,22H384.57l-.82-1.13c5.33-5.18,10.73-10.29,16-15.54,11.78-11.78,23.43-23.69,35.26-35.42a16.34,16.34,0,0,0,5.09-12.45q-.15-81-.07-161.94c0-14.15,7.36-21.48,21.55-21.48H738c14.86,0,22,7.15,22,22Q760,236.07,760,338Z"/><path class="cls-1" d="M294.3,321c22.38-22.1,26.9-48.32,17-77.54-2.46-7.29-7.9-10-15.31-8.29-1.29.3-2.56.73-3.84,1.08-24.62,6.55-48.73,6.2-71.91-5.57-14.85-7.55-30.25-12.84-47.13-13.12-32.7-.54-61.21,9.16-82.17,35.25-19.41,24.15-25.56,52.33-21.23,82.66,1.68,11.68,3.07,23.88,12.06,33.11.45.46.25,1.59.31,2.42.54,7.59,2,15.39,6.62,21.17,7.42,9.28,7.88,19.46,7.45,30.35-.36,8.82-.08,17.66-.08,26.49,0,11.67-.11,23.33.05,35a11.93,11.93,0,0,0,12.08,12A12.05,12.05,0,0,0,120,484.21c.14-3,0-6,0-9V420.42c7,1.81,13.78,3.6,20.8,3.46,8.08-.18,13.44-6.46,12.21-14.22-.93-5.8-5.65-9.46-12.61-9.77C121.53,399,105.9,384.41,106,367.7c0-6,2.62-10.6,7.87-13.51,5-2.8,9.38-.39,13.4,2.42,6.84,4.76,10.53,11.8,13.53,19.33,2.21,5.52,6.63,8.37,11.93,8.07s9.75-4.05,11.17-9.82c1-4,1.77-8.12,2.71-12.17,4.11-17.78,6.74-19.88,24.59-16.86,25.08,4.25,49.37.35,73.45-6.17,3.41-.93,4.17-.42,4.52,3,.88,8.44,2.43,16.81,3.25,25.25,3.41,35.05,2.62,69.82-7.29,104-1.69,5.82-5,9.53-11,11-28.12,7.16-51-1.83-70-22.68-5.63-6.18-12.44-7.37-18-2.81s-5.74,12.08-.22,18.53a92.35,92.35,0,0,0,38.27,27.13c3,1.13,4.05,2.59,3.88,5.76-.28,5.31-.21,10.66,0,16a12,12,0,0,0,23.92,0c.15-4,.19-8,0-12-.14-2.67.8-3.39,3.38-3.3A87.34,87.34,0,0,0,254.23,507c18.5-3.4,30-13.73,34.94-32.38,12.63-47.92,10.88-95.93,2.21-144.09C290.66,326.46,291.31,323.92,294.3,321Zm-29.47-9.37c-23.91,10.51-48.38,14.06-74,9.08C173,317.24,158.36,323.57,149,338.8c-.92,1.49-1.14,3.3-3.82,1.41-20.65-14.55-28.74-14.86-51-2.06-4.66-28.77-.25-54.82,20.47-75.89,15.72-16,35.9-21.36,57.94-20.75a75,75,0,0,1,33.42,9c25.76,13.66,53,16.83,81.36,11.45,4.14-.79,4.53.7,4.78,4.13C293.5,284.54,284.79,302.82,264.83,311.6Z"/><path class="cls-1" d="M624,603.94c0,6.95-5.37,12-13.09,12-11.66.06-23.32,0-35,0-11.49,0-23,0-34.47,0-8.07,0-13.56-5.07-13.43-12.2.11-6.94,5.5-11.77,13.34-11.78q34.73-.06,69.44,0C618.56,592,624,597,624,603.94Z"/><path class="cls-1" d="M528.6,559.52A11.84,11.84,0,0,1,533,546.24c2.7-1.93,5.77-2.28,9-2.28q59.22.07,118.44,0h20c9.94,0,15.6,4.45,15.51,12.14S690.31,568,680.68,568h-69q-35.49,0-71,0C534.56,568,530.35,564.91,528.6,559.52Z"/><path class="cls-1" d="M718.75,513.15c-2.47,5-6.77,6.9-12.29,6.88-27.49-.08-55,0-82.46,0-27.65,0-55.3,0-83,0-9.7,0-15.81-8.7-11.94-16.9,2.48-5.25,6.94-7.14,12.64-7.12,28.15.09,56.3,0,84.45,0,26.82,0,53.64,0,80.46,0C716.7,496,722.87,504.8,718.75,513.15Z"/><path class="cls-1" d="M720,604c0,6.8-5.25,11.91-12.6,12-7.82.1-15.65,0-23.47,0-7.66,0-15.32.07-23,0s-13-5.23-12.92-12.2C648.1,597,653.41,592,660.83,592q23.24-.1,46.46,0C714.63,592,720,597.18,720,604Z"/><path class="cls-1" d="M839,666c-17.21-17.41-34.27-35-51.53-52.35a11.2,11.2,0,0,1-3.61-8.7c.14-41.31.09-82.62.09-123.92,0-25.84-15.08-41-40.86-41H503.22c-23.3,0-39.21,15.87-39.21,39.14q0,84.71,0,169.4c0,23.67,15.75,39.4,39.46,39.41q80.94,0,161.9,0,82.2,0,164.41,0c5.86,0,10.56-1.69,13.06-7.22C845.48,675,843.23,670.28,839,666Zm-36.85-2H504.8c-12.28,0-16.79-4.51-16.79-16.86q0-83.73,0-167.46C488,469,493,464,503.51,464h241c10.52,0,15.49,5,15.49,15.65,0,43.83.1,87.65-.1,131.47,0,6.19,1.8,10.84,6.3,15,12.73,11.72,25.27,23.65,37.89,35.5Z"/><path class="cls-1" d="M467.49,983.92H158.08c-10.49,0-16.94-8.44-12.88-17,2.5-5.24,7-7.09,12.67-7.07,34.82.08,69.65,0,104.47,0H778.18c8.22,0,13.71,4.79,13.76,11.89s-5.38,12.08-13.54,12.09q-42,.06-84,0Z"/><path class="cls-1" d="M501,40.08h44c9.49,0,15.09,4.54,15,12.13s-5.65,11.86-15.27,11.86q-41.72,0-83.43,0c-39.34,0-69.2,29.86-69.25,69.14,0,20.32,0,40.63,0,61,0,8.29-4.66,13.73-11.76,13.87-7.29.14-12.21-5.43-12.22-13.92,0-20.81-.09-41.63,0-62.45a91.94,91.94,0,0,1,91.51-91.59C473.37,40,487.19,40.08,501,40.08Z"/><path class="cls-1" d="M587.29,64.34A12.13,12.13,0,1,1,599.55,52,12.2,12.2,0,0,1,587.29,64.34Z"/><path class="cls-1" d="M832.44,972a12.16,12.16,0,0,1-12.7,11.88A12.33,12.33,0,0,1,808,971.5a12.18,12.18,0,0,1,12.75-11.84A12,12,0,0,1,832.44,972Z"/><path class="cls-1" d="M710.73,185.24c-2.48,5-6.79,6.87-12.31,6.85q-49.47-.1-98.95,0-49.23,0-98.45,0c-9.7,0-15.8-8.75-11.89-16.93,2.5-5.23,7-7.1,12.66-7.08,30.16.09,60.31,0,90.46,0q53.22,0,106.45,0C708.71,168.1,714.88,176.92,710.73,185.24Z"/><path class="cls-1" d="M678.75,281.23c-2.6,5.22-7.14,6.87-12.82,6.86Q607,288,548,288H503c-9.45,0-15.08-4.57-15-12.14.07-7.4,5.62-11.85,14.78-11.85h81.46q41.24,0,82.46,0C676.71,264.08,682.89,272.92,678.75,281.23Z"/><path class="cls-1" d="M584,228.18c-.08,7-5.46,11.82-13.27,11.86-11.66.05-23.32,0-35,0-11.49,0-23,0-34.47,0-7.78,0-13.19-4.94-13.26-11.87s5.3-12.08,13-12.1q35-.07,69.94,0C578.69,216.09,584.06,221.21,584,228.18Z"/><path class="cls-1" d="M648,228.11c0,6.59-5.19,11.72-12.18,11.92-4,.11-8,0-12,0s-8,.12-12,0a12,12,0,0,1,.1-23.91c8-.18,16-.16,24,0A12,12,0,0,1,648,228.11Z"/><path class="cls-1" d="M718.75,513.15c-2.47,5-6.77,6.9-12.29,6.88-27.49-.08-55,0-82.46,0-27.65,0-55.3,0-83,0-9.7,0-15.81-8.7-11.94-16.9,2.48-5.25,6.94-7.14,12.64-7.12,28.15.09,56.3,0,84.45,0,26.82,0,53.64,0,80.46,0C716.7,496,722.87,504.8,718.75,513.15Z"/><path class="cls-1" d="M696,556.13c-.09,7.54-5.65,11.86-15.28,11.86h-69q-35.49,0-71,0c-6.19,0-10.4-3.06-12.15-8.45A11.84,11.84,0,0,1,533,546.24c2.7-1.93,5.77-2.28,9-2.28q59.22.07,118.44,0h20C690.39,544,696.05,548.44,696,556.13Z"/><path class="cls-1" d="M624,603.94c0,6.95-5.37,12-13.09,12-11.66.06-23.32,0-35,0-11.49,0-23,0-34.47,0-8.07,0-13.56-5.07-13.43-12.2.11-6.94,5.5-11.77,13.34-11.78q34.73-.06,69.44,0C618.56,592,624,597,624,603.94Z"/><path class="cls-1" d="M720,604c0,6.8-5.25,11.91-12.6,12-7.82.1-15.65,0-23.47,0-7.66,0-15.32.07-23,0s-13-5.23-12.92-12.2C648.1,597,653.41,592,660.83,592q23.24-.1,46.46,0C714.63,592,720,597.18,720,604Z"/></svg>