<svg id="Слой_1" data-name="Слой 1" xmlns="http://www.w3.org/2000/svg" viewBox="0 0 1024 1024"><defs><style>.cls-1{fill:#71cd7a;}.cls-2{fill:#fdc377;}.cls-3{fill:#f4b96d;}.cls-4{fill:#5a93cc;}.cls-5{fill:#e9eced;}.cls-6{fill:#fbcf94;}.cls-7{fill:#fcc377;}.cls-8{fill:#0f4275;}.cls-9{fill:#0f4375;}.cls-10{fill:#c0c4ca;}.cls-11{fill:#2a67a5;}.cls-12{fill:#2a67a4;}</style></defs><path class="cls-1" d="M.11,540V485c1.24-1,.87-2.43.94-3.71a504.62,504.62,0,0,1,23-124.37Q58,250.36,133.28,167.62a487,487,0,0,1,82.57-73c1,.9,2,1.78,2.93,2.72Q297.08,175.67,375.36,254c1.16,1.17,2.12,2.55,3.17,3.83a76.85,76.85,0,0,0-14.61,22.9c-6.8,16.7-7.41,33.76-3.21,51.14L343.58,349c-5.25,3.7-9.22,8.73-13.72,13.2-7-.84-13.81-.39-19.11,4.75-9.52,9.22-18.73,18.76-28.07,28.16-3.09-2.23-6-4.81-9.31-6.65-14.4-8-31.66-3.15-37.25,10.76-2.13,5.31-5.25,6.47-10.39,5.84-15.59-1.93-27.86,6.71-31.81,22.09-1.47,5.75-3.81,7.22-9.74,6.13-16.69-3.08-30,6.25-33.23,23.31-.89,4.65-3.93,6.6-9.19,5.89-9.34-1.27-20,4.08-24.85,12.43a18.78,18.78,0,0,0-3.23,15.5c1.48,7.48,5.51,13.4,10.77,18.67,7.26,7.29,14.47,14.62,21.71,21.93-.66.75-1.28,1.54-2,2.24Q84.07,593.39,23.93,653.49c-.93.94-2,1.74-3,2.61C10.89,623.63,5.14,590.36,2,556.58,1.49,551.05,2.07,545.37.11,540Z"/><path class="cls-1" d="M1023.91,485v55c-1.47,1.11-.92,2.74-1,4.16A511.47,511.47,0,0,1,800.27,934.89c-1.34-1.47-2.62-3-4-4.42q-76.49-76.54-153-153.07c2.53-1.15,4.12-3.32,5.66-5.46,16.24-22.49,23.94-47.07,18.17-74.9q7.47-7.45,15-14.89L696.79,668c8.46,7.32,19.37,6.78,28.21-1.56,6.52-6.16,12.87-12.5,19.3-18.76,8.75,1.5,17.23,1.59,24.54-4.61a18.84,18.84,0,0,0,7.29-9.21c2.26-5.55,4.21-6.6,9.93-5.62,13.72,2.35,27.94-6.63,31.61-20,2.57-9.29,3.14-9.66,12.38-7.87,13.89,2.68,29.23-8.44,30.88-22.4.68-5.7,2.67-7.48,8.55-7.11a28.45,28.45,0,0,0,18.87-5.08c11-7.8,13.53-21.73,5.82-31.81-.4-.88-.72-1.8-1.19-2.64-3.86-6.8-10.44-11.2-15.25-17.16,1.11-1.23,2.18-2.5,3.35-3.67Q932.52,459,984,407.5c7.87-7.87,15.82-15.66,23.73-23.48a511,511,0,0,1,14.44,85.39C1022.57,474.6,1022,480,1023.91,485Z"/><path class="cls-1" d="M485,.11h55c.94,1.36,2.4.91,3.66,1A509,509,0,0,1,835.79,115.55,501.16,501.16,0,0,1,928.1,214c-.78.87-1.52,1.77-2.34,2.59L770.41,371.89a11.92,11.92,0,0,0-3.66-4c-22.36-17.42-47.08-26-75.64-20.06l-14.92-15L662,318.13c3.93-3.84,5.25-8.53,5-13.93-.38-7.77-5.12-12.95-10.14-18,.41-.92.76-1.85,1.22-2.74,7.52-14.5,2.13-32.69-13.24-37.55-3.8-1.2-4.52-4.6-3.82-8.22.57-2.95,1.17-5.85.51-8.88-2.75-12.7-9.95-21.1-22.87-24.22-5.4-1.31-6.76-3.54-5.86-8.94.25-1.48.55-2.94.76-4.42,1.86-12.55-8.93-27.33-21.25-29.13-8-1.16-8.5-2.09-8.48-10.35,0-10.72-3.89-19.43-13.84-24.65a18.55,18.55,0,0,0-14.72-2.42c-7,1.53-12.77,5.26-17.82,10.27-5.28,5.24-10.64,10.41-16,15.61-1-.86-2.06-1.67-3-2.6Q454.13,83.58,389.79,19.21c-1.05-1.05-2-2.23-2.94-3.35,26.22-7.25,53-11.15,80-13.8C472.93,1.47,479.1,2,485,.11Z"/><path class="cls-1" d="M538,1023.89H484c-.93-1.36-2.39-.91-3.65-1a506.21,506.21,0,0,1-133.76-26.4Q227.74,955.64,141,864.58c-12.87-13.49-25.22-27.45-36.07-42.67,1.12-1.22,2.2-2.49,3.37-3.66L252.62,674a18.15,18.15,0,0,0,1.56,1.92c12.43,11.51,27.46,14.59,43.81,13.62,7.83-.46,15.32-2.8,23-3.79l16.68,16.62q6.38,6.7,12.73,13.42c-3.35,9.55-.52,17.51,6.32,24.41,3.49,3.53,7,7,10.52,10.55-1.78,8.7-1.44,17,4.7,24.15a18.19,18.19,0,0,0,9.71,7.4c4.54,1.59,6,4.69,5.09,9.37-2.65,13.85,6.41,28.26,20,32,8.94,2.47,9.44,3.28,7.74,12.53-2.57,13.9,8.58,29.09,22.57,30.76,5.52.66,7.36,2.58,7,8.1-.38,6.33.66,12.22,4,17.68,7.7,12.73,24.42,15.87,34,6.35,7.74-3.52,12.91-10.08,18.72-15.87.74,2.36,2.75,3.71,4.37,5.34Q564,947.47,623,1006.4c1.41,1.4,2.7,2.92,4,4.39-23.16,5.58-46.65,9-70.35,11.2C550.44,1022.57,544.09,1022,538,1023.89Z"/><path class="cls-2" d="M360.71,331.84c-4.2-17.38-3.59-34.44,3.21-51.14a77,77,0,0,1,14.6-22.9c4.6,2.78,7.77,7.1,11.54,10.76,7.3,7.1,7.23,7.18,14.54.59a2.26,2.26,0,0,1,.43-.24c-1,5-3.35,9.88-1.2,15.58,15.91-14.86,30.66-30.19,45.93-45,30.94-30,61.07-60.79,91.55-91.25,4-4,6.9-9,11.69-12.18a4.24,4.24,0,0,0,.73.68c16.59,9.28,19.75,16.1,15.87,34.9-.69,3.37.72,3.07,3.19,2.75,15-1.93,27.85,9.55,28.28,24.62a29.68,29.68,0,0,1-4.82,18c3.69,0,6.33.05,9,0a18.39,18.39,0,0,1,10.36,3c10.38,6.5,17.29,20.19,11.45,33.78-1.13,2.65-.89,4.15,2.39,4.17,8.4.06,13.31,5.22,17,11.94,3.57,6.52,3,8.63-1.92,14.12-7.1,7.9-14,16-20.91,24.05-11.35,13.22-22.24,26.85-34.06,39.64-13.17,14.25-26.31,28.58-40.53,41.85-13,12.16-26.25,24-41.5,33.33-12.32,7.53-25.22,13.55-40.18,13-2.43-.08-4,1.22-5.59,2.78-3.93,3.83-7.92,7.58-11.89,11.37a4.37,4.37,0,0,0-.72.06q-20.62-19.65-41.23-39.31-29.06-27.81-58.07-55.66c4.62-4.78,9-9.79,13.93-14.26,3.14-2.86,2.7-4.79-.28-7C362.54,333.27,361.63,332.55,360.71,331.84Z"/><path class="cls-3" d="M116.91,474.91c4.81-8.35,15.51-13.7,24.85-12.43,5.26.71,8.3-1.24,9.19-5.89,3.24-17.06,16.54-26.39,33.23-23.31,5.93,1.09,8.27-.38,9.74-6.13,4-15.38,16.22-24,31.81-22.09,5.14.63,8.26-.53,10.39-5.84,5.59-13.91,22.85-18.77,37.25-10.76,3.31,1.84,6.22,4.42,9.31,6.65l3.83,3.87,1.56,1.11-.09,0c.46.79.69,2,2.06,1.14l-.12-.1c-.41,1.11,0,1.42,1.06,1.08l-.08-.05c.93,3.41,4,4.91,6.37,7,39,34.46,78.9,67.91,111.67,108.74,5.78,8.48,11.93,16.75,16.16,26.19,3.75,8.38,6.95,16.88,4.95,26.35-.47,2.21.53,3.76,2.05,5.26,4.72,4.65,9.34,9.41,14,14.13l-6.28,6.17c-4.29-4.18-8.56-8.37-12.87-12.53a6.15,6.15,0,0,1-1.92-4.94c.61-15.19-5.64-28.16-13.45-40.51-8.9-14.09-19.79-26.58-30.85-39s-23.64-23.37-35.58-34.9c-11.44-11.05-24-21-36-31.4-12.68-11-25.34-22-38.08-32.84-1.44-1.23-3-2.89-5.27-2.4-7.52,1.63-18.35,9-18.65,18.44-.12,4-1.53,4.55-4.89,2.85a20.09,20.09,0,0,0-16.49-.73c-12,4.69-20.18,12.74-19.7,26.85.1,3.18-.41,4.71-4.28,2.88a26.83,26.83,0,0,0-24.11.12c-9.38,4.59-17.63,15.42-13.54,27.36.26.76.82,1.64,0,2.26s-1.82-.13-2.72-.5a26.12,26.12,0,0,0-34.21,13.44,5.24,5.24,0,0,1-2.09,2.69C120,488.05,119.52,481,116.91,474.91Z"/><path class="cls-4" d="M405,268.91a2.26,2.26,0,0,0-.43.24c-7.31,6.59-7.24,6.51-14.54-.59-3.77-3.66-6.94-8-11.54-10.76-1-1.28-2-2.66-3.16-3.83Q297.09,175.65,218.78,97.38c-.94-.94-1.95-1.82-2.93-2.72,3.5-3.12,7-6.16,11.6-7.67,2.61.69,4,2.91,5.75,4.64Q316.66,175,400.08,258.43c2.44,2.44,4.42,5.48,7.88,6.77C407,266.43,406,267.67,405,268.91Z"/><path class="cls-4" d="M28.07,678.93a109.37,109.37,0,0,1-7.14-22.83c1-.87,2.07-1.67,3-2.61q60.15-60.11,120.25-120.24c.7-.7,1.32-1.49,2-2.24l14,13.82a12.73,12.73,0,0,0-1.59,1.2Q94.41,610.1,30.31,674.15C29,675.51,28,676.94,28.07,678.93Z"/><path class="cls-5" d="M349.81,355.25q29,27.83,58.07,55.66,20.58,19.68,41.23,39.31c-3.63,5.93-9.1,10.1-14.05,14.77l-11-10.05c-9.53-9.47-19-19-28.61-28.39Q365.85,397.69,336.1,369l-6.24-6.77c4.5-4.47,8.47-9.5,13.72-13.2Z"/><path class="cls-6" d="M160.11,544.83l-14-13.82c-7.24-7.31-14.45-14.64-21.71-21.93-5.26-5.27-9.29-11.19-10.77-18.67a18.78,18.78,0,0,1,3.23-15.5c2.61,6.09,3.1,13.14,8.16,18.12,4.54,6,10.83,10.28,16.09,15.58,30.91,31.21,62.47,61.78,92.77,93.61,12.62,13.25,25.85,25.94,38.76,38.92,1.22,1.24,3,2.15,3.31,4.3-5,1.94-9.73-.76-14.56-.8l0-.07c.05-1-.58-1.41-1.46-1.58l-12-11c-9.39-9.42-18.74-18.88-28.18-28.24Q190,574.25,160.11,544.83Z"/><path class="cls-4" d="M329.86,362.2,336.1,369c-6.1,4.85-11.25,10.7-16.7,16.21-6.84,6.92-14.24,13.32-20.36,20.95-3.2-.34-4.83-3.89-8.14-4l.08.05c0-.7-.42-1-1.06-1.08l.12.1A1.75,1.75,0,0,0,288,400l.09,0L286.51,399l-3.83-3.87c9.34-9.4,18.55-18.94,28.07-28.16C316.05,361.81,322.88,361.36,329.86,362.2Z"/><path class="cls-6" d="M349.81,355.25,343.58,349l17.13-17.16c.92.71,1.83,1.43,2.75,2.13,3,2.23,3.42,4.16.28,7C358.84,345.46,354.43,350.47,349.81,355.25Z"/><path class="cls-7" d="M500.75,883.18c-5.81,5.79-11,12.35-18.72,15.87.09-1.63,1.11-2.72,2.15-3.82,1.92-2,1.58-3.19-1.31-3.29-1,0-2,0-3,0-14.53-.1-26-14.3-23.27-28.51a76,76,0,0,1,2.89-9.9c-10.36,1.83-16.37,1.12-20.9-2.63-10.06-8.31-16.29-21-9-34.93,1.69-3.26.52-4.11-2.69-4.05a26.86,26.86,0,0,1-8.41-.64c-13.3-3.91-25-20.13-17.77-36.54,1.05-2.41,1-3.44-2.05-3.84-11.25-1.46-17.56-8-19.6-20a6.25,6.25,0,0,1,1.93-3.4c7-8,14.16-15.85,20.91-24,23.89-29,48.52-57.31,75.59-83.4,12.7-12.24,26.06-23.71,41.07-33.08,13-8.09,26.36-15,42.36-14,2.68.17,4.13-1.73,5.89-3.25,4.51-3.85,7.59-9.3,13.3-11.78q24.55,25.11,49.12,50.22,23.35,23.85,46.73,47.67l.15,1.06c-4,3.84-7.93,7.81-12.11,11.48-2.64,2.32-2.66,4.15.09,6.2,1,.78,2,1.64,3,2.47,5.77,27.83-1.93,52.41-18.17,74.9-1.54,2.14-3.13,4.31-5.67,5.46-5.31-5.3-10.76-10.46-15.88-15.93-2.36-2.52-3.71-2.61-6.22-.06q-57.21,58-114.6,115.8Z"/><path class="cls-7" d="M691.11,347.82c28.56-5.93,53.28,2.64,75.64,20.06a11.79,11.79,0,0,1,3.65,4q-7,7.07-14,14.11c-4.45,4.49-4.46,4.48.51,8.91q58.15,58.6,116.34,117.17c1.16,1.18,2.07,3.32,4.44,2.09,4.81,6,11.39,10.36,15.25,17.16.47.84.79,1.76,1.19,2.64-1.64,0-2.71-1.07-3.86-2.06s-1.85-2.93-3.56-2c-1.47.83-.77,2.74-.8,4.17-.23,14.28-9.93,23.73-24.28,23.93-4.82.06-9.46-.32-14.51-3.47,1.13,5.46,2.45,9.52,1.15,13.9a27.35,27.35,0,0,1-37.49,17.31c-4.58-2.1-5.3-.48-4.85,3.44,2,17.07-21.32,34.73-38.55,24.08-1.48-.92-3.15-1.94-2.77,1.49.74,6.73-2.48,11.57-7.48,15.85-3.41,2.91-7.85,3.58-11.21,6.32-10.44-8-20-17-30.09-25.36-16.49-13.69-32.89-27.51-48.64-42-13.44-12.4-26.84-24.86-39-38.63-9.37-10.62-18.68-21.22-26.34-33.15-8.54-13.31-15.73-27.13-14.91-43.66.13-2.68-1.71-4.14-3.23-5.91-3.87-4.49-9.3-7.61-11.81-13.3L625,383q22.43-22,44.83-44l1-.18c3.15,4.5,7.71,7.7,11.17,11.89,2.62,3.17,4.69,2.93,7-.15C689.66,349.62,690.4,348.73,691.11,347.82Z"/><path class="cls-8" d="M506.56,877.21q57.33-57.87,114.6-115.8c2.51-2.55,3.86-2.46,6.22.06,5.12,5.47,10.57,10.63,15.88,15.93q76.5,76.53,153,153.07c1.4,1.41,2.68,2.95,4,4.42a218.69,218.69,0,0,1-28.35,18c-1.45-1.59-2.85-3.24-4.38-4.76q-72-72-144-144c-6.66-6.66-6.59-6.57-14.26-.89-26.19,19.37-52.49,38.6-78.61,58.06-4.73,3.52-10.22,6.2-13.71,11.26-2.29,0-3.67,1.83-5.47,2.81C509.94,876.16,509,878.63,506.56,877.21Z"/><path class="cls-9" d="M877.73,514.17c-2.37,1.23-3.28-.91-4.44-2.09Q815.09,453.54,757,394.92c3.25-.12,4.89,3.3,7.94,3.62.45,1.85,2.15,2.44,3.46,3.41,6.29,4.64,12.62,9.24,18.91,13.88,25.44,18.77,51,37.45,76.25,56.4,4.16,3.11,6.52,2.42,10-1q59.19-59.54,118.66-118.79c1.53-1.52,3.18-2.92,4.78-4.37a250.63,250.63,0,0,1,10.79,36c-7.91,7.82-15.86,15.61-23.73,23.48Q932.5,459,881.08,510.5C879.91,511.67,878.84,512.94,877.73,514.17Z"/><path class="cls-3" d="M746,637c3.36-2.74,7.8-3.41,11.21-6.32,5-4.28,8.22-9.12,7.48-15.85-.38-3.43,1.29-2.41,2.77-1.49,17.23,10.65,40.51-7,38.55-24.08-.45-3.92.27-5.54,4.85-3.44a27.35,27.35,0,0,0,37.49-17.31c1.3-4.38,0-8.44-1.15-13.9,5.05,3.15,9.69,3.53,14.51,3.47,14.35-.2,24.05-9.65,24.28-23.93,0-1.43-.67-3.34.8-4.17,1.71-1,2.51,1.06,3.56,2s2.22,2,3.86,2.06c7.71,10.08,5.19,24-5.82,31.81a28.45,28.45,0,0,1-18.87,5.08c-5.88-.37-7.87,1.41-8.55,7.11-1.65,14-17,25.08-30.88,22.4-9.24-1.79-9.81-1.42-12.38,7.87-3.67,13.32-17.89,22.3-31.61,20-5.72-1-7.67.07-9.93,5.62a18.84,18.84,0,0,1-7.29,9.21C760.53,643.58,752.74,642.21,746,637Z"/><path class="cls-6" d="M746,637c6.78,5.24,14.57,6.61,22.88,6-7.31,6.2-15.79,6.11-24.54,4.61a61.14,61.14,0,0,1-18.68-13.44c-2.58-2.73-5.14-5.57-8.51-7.44-2.38-2.29-4.68-4.68-7.17-6.85-29.53-25.82-59.15-51.53-86.19-80q-4.95-5.5-9.91-11c-10.25-12.46-20.52-24.93-27.22-39.79-3.78-8.37-6.94-17-4.7-26.46.54-2.27-.67-3.73-2.15-5.22-5-5.07-10-10.21-15-15.33,1.78-1.95,3.55-3.91,5.33-5.87l1.82-1.25c2.51,5.69,7.94,8.81,11.81,13.3,1.52,1.77,3.36,3.23,3.23,5.91-.82,16.53,6.37,30.35,14.91,43.66,7.66,11.93,17,22.53,26.34,33.15,12.15,13.77,25.55,26.23,39,38.63,15.75,14.52,32.15,28.34,48.64,42C726,620,735.52,629,746,637Z"/><path class="cls-9" d="M717.11,626.75c3.37,1.87,5.93,4.71,8.51,7.44a61.14,61.14,0,0,0,18.68,13.44c-6.43,6.26-12.78,12.6-19.3,18.76-8.84,8.34-19.75,8.88-28.21,1.56a28.58,28.58,0,0,0-6.82-7l-3.22-4A370.46,370.46,0,0,0,717.11,626.75Z"/><path class="cls-10" d="M690,661a28.58,28.58,0,0,1,6.82,7l-14.74,14.2-6-5.26-.15-1Z"/><path class="cls-3" d="M676.08,676.89l6,5.26L667.1,697c-1-.83-2-1.69-3-2.47-2.75-2.05-2.73-3.88-.09-6.2C668.15,684.7,672.06,680.73,676.08,676.89Z"/><path class="cls-8" d="M351,26.09c11.72-4.25,23.57-8,35.87-10.23,1,1.12,1.89,2.3,2.94,3.35q64.33,64.38,128.72,128.72c.94.93,2,1.74,3,2.6-7.36,8.32-15.32,16-23.39,23.65-1.12-1-2.29-1.92-3.34-3Q424.4,100.87,354.06,30.49C352.78,29.21,351.25,28.09,351,26.09Z"/><path class="cls-3" d="M449.83,450.16c4-3.79,8-7.54,11.89-11.37,1.59-1.56,3.16-2.86,5.59-2.78,15,.52,27.86-5.5,40.18-13,15.25-9.31,28.47-21.17,41.5-33.33,14.22-13.27,27.36-27.6,40.53-41.85,11.82-12.79,22.71-26.42,34.06-39.64,6.91-8.06,13.81-16.15,20.91-24.05,4.93-5.49,5.49-7.6,1.92-14.12-3.68-6.72-8.59-11.88-17-11.94-3.28,0-3.52-1.52-2.39-4.17,5.84-13.59-1.07-27.28-11.45-33.78a18.39,18.39,0,0,0-10.36-3c-2.64.06-5.28,0-9,0a29.68,29.68,0,0,0,4.82-18c-.43-15.07-13.32-26.55-28.28-24.62-2.47.32-3.88.62-3.19-2.75,3.88-18.8.72-25.62-15.87-34.9a4.24,4.24,0,0,1-.73-.68A24.06,24.06,0,0,1,565.89,130c1.85-.27,3.67-.67,4.12-2.94,10,5.22,13.86,13.93,13.84,24.65,0,8.26.53,9.19,8.48,10.35,12.32,1.8,23.11,16.58,21.25,29.13-.21,1.48-.51,2.94-.76,4.42-.9,5.4.46,7.63,5.86,8.94,12.92,3.12,20.12,11.52,22.87,24.22.66,3,.06,5.93-.51,8.88-.7,3.62,0,7,3.82,8.22,15.37,4.86,20.76,23.05,13.24,37.55-.46.89-.81,1.82-1.22,2.74-9,10-18,20-26.94,30.09-24.46,27.72-48.55,55.8-75.56,81.15-.69.65-1.68,1.16-1.58,2.36l.15,0c-1.19-.46-1.56.45-2,1.2l.1-.06-1.1,1.08.1-.08L548.61,403l-2.92,2.55-9.82,8.46c-5.61,4.14-11,8.55-16.86,12.37-13.28,8.72-26.82,17-43.82,14.49-2.38-.34-3.67,1.11-5.09,2.51L456.24,457Z"/><path class="cls-4" d="M764.9,398.54c-3-.32-4.69-3.74-7.94-3.62-5-4.44-5-4.43-.52-8.92q7-7,14-14.11L925.76,216.58c.82-.82,1.56-1.72,2.34-2.59a60.76,60.76,0,0,1,9,12.9c-2.19.3-3.39,2-4.78,3.41q-82,82-164,164C767,395.57,765.48,396.68,764.9,398.54Z"/><path class="cls-6" d="M570,127.07c-.45,2.27-2.27,2.67-4.12,2.94A24.06,24.06,0,0,0,553,136.08c-4.79,3.2-7.71,8.2-11.69,12.18-30.48,30.46-60.61,61.27-91.55,91.25-15.27,14.79-30,30.12-45.93,45-2.15-5.7.2-10.59,1.2-15.58l2.93-3.72c11.39-11.4,22.83-22.76,34.16-34.22q28-28.35,56-56.79c8.07-7.61,16-15.33,23.39-23.65,5.32-5.2,10.68-10.37,16-15.61,5-5,10.8-8.74,17.82-10.27A18.55,18.55,0,0,1,570,127.07Z"/><path class="cls-9" d="M552.8,399.77c-.1-1.2.89-1.71,1.58-2.36,27-25.35,51.1-53.43,75.56-81.15,8.91-10.09,18-20.07,26.94-30.09,5,5.08,9.76,10.26,10.14,18,.26,5.4-1.06,10.09-5,13.93A27.77,27.77,0,0,0,655,325l-6.86,6.1-1,1,0,0-1.05,1-.95.93c-2.06-.37-3.38.94-4.85,2q-38.71,28.78-77.47,57.47C559.65,395.91,556.9,399,552.8,399.77Z"/><path class="cls-10" d="M655,325a27.77,27.77,0,0,1,7.06-6.91l14.16,14.69c-1.78,2-3.56,4-5.33,6l-1,.18Z"/><path class="cls-3" d="M670.86,338.81c1.77-2,3.55-4,5.33-6l14.92,15c-.71.91-1.45,1.8-2.13,2.73-2.26,3.08-4.33,3.32-7,.15C678.57,346.51,674,343.31,670.86,338.81Z"/><path class="cls-2" d="M261.44,644.64c4.83,0,9.53,2.74,14.56.8-.34-2.15-2.09-3.06-3.31-4.3-12.91-13-26.14-25.67-38.76-38.92-30.3-31.83-61.86-62.4-92.77-93.61-5.26-5.3-11.55-9.54-16.09-15.58a5.24,5.24,0,0,0,2.09-2.69,26.12,26.12,0,0,1,34.21-13.44c.9.37,1.73,1.22,2.72.5s.3-1.5,0-2.26c-4.09-11.94,4.16-22.77,13.54-27.36a26.83,26.83,0,0,1,24.11-.12c3.87,1.83,4.38.3,4.28-2.88-.48-14.11,7.74-22.16,19.7-26.85a20.09,20.09,0,0,1,16.49.73c3.36,1.7,4.77,1.18,4.89-2.85.3-9.45,11.13-16.81,18.65-18.44,2.26-.49,3.83,1.17,5.27,2.4,12.74,10.88,25.4,21.88,38.08,32.84,12.05,10.42,24.57,20.35,36,31.4,11.94,11.53,24.5,22.41,35.58,34.9s21.95,24.95,30.85,39c7.81,12.35,14.06,25.32,13.45,40.51A6.15,6.15,0,0,0,427,583.4c4.31,4.16,8.58,8.35,12.87,12.53a5,5,0,0,1,.08.76,13.32,13.32,0,0,0-1.16.95Q401,636.82,363.16,676c-6.59,6.81-12.87,13.92-20.08,20.12-3.31-4.63-7.75-8.17-11.66-12.22-5.1-5.26-6.67-4.92-10.39,1.83-7.72,1-15.21,3.33-23,3.79-16.35,1-31.38-2.11-43.81-13.62a17.3,17.3,0,0,1-1.56-1.93c5.45-5.52,10.81-11.12,16.37-16.53,1.94-1.88,2.33-3.12.11-5.07C266.38,650,264,647.23,261.44,644.64Z"/><path class="cls-8" d="M261.44,644.64c2.54,2.59,4.94,5.33,7.66,7.72,2.22,1.95,1.83,3.19-.11,5.07-5.56,5.41-10.92,11-16.37,16.53L108.31,818.25c-1.17,1.17-2.25,2.44-3.37,3.66A190.58,190.58,0,0,1,85,794c1.62-1.41,3.33-2.73,4.85-4.25q76.68-76.63,153.34-153.29c1.53-1.53,3.15-3,4.73-4.43l12,11c.49.53,1,1.06,1.46,1.58Z"/><path class="cls-4" d="M506.56,877.21c2.4,1.42,3.38-1.05,4.92-1.88,1.8-1,3.18-2.77,5.47-2.81.61,1.84,2.13,3,3.41,4.23q62.42,62.44,124.86,124.86c1.39,1.39,2.62,3,4.79,3.36a112.68,112.68,0,0,1-23,5.82c-1.34-1.47-2.63-3-4-4.39Q564,947.45,505.12,888.52c-1.62-1.63-3.63-3-4.37-5.34Z"/><path class="cls-3" d="M379,750.92c2,11.92,8.35,18.5,19.6,20,3.09.4,3.1,1.43,2.05,3.84-7.19,16.41,4.47,32.63,17.77,36.54a26.86,26.86,0,0,0,8.41.64c3.21-.06,4.38.79,2.69,4.05-7.25,14-1,26.62,9,34.93,4.53,3.75,10.54,4.46,20.9,2.63a76,76,0,0,0-2.89,9.9c-2.75,14.21,8.74,28.41,23.27,28.51,1,0,2,0,3,0,2.89.1,3.23,1.27,1.31,3.29-1,1.1-2.06,2.19-2.15,3.82-9.57,9.52-26.29,6.38-34-6.35-3.3-5.46-4.34-11.35-4-17.68.33-5.52-1.51-7.44-7-8.1-14-1.67-25.14-16.86-22.57-30.76,1.7-9.25,1.2-10.06-7.74-12.53-13.55-3.73-22.61-18.14-20-32,.9-4.68-.55-7.78-5.09-9.37a18.19,18.19,0,0,1-9.71-7.4C370.56,765.78,373.13,757.86,379,750.92Z"/><path class="cls-5" d="M343.08,696.11c7.21-6.2,13.49-13.31,20.08-20.12q37.86-39.12,75.58-78.35a11.62,11.62,0,0,1,1.16-.94,109.47,109.47,0,0,1,14.21,14.43l-11.19,11.8c-17.11,17.19-34.3,34.29-51.3,51.58-12.21,12.43-25,24.34-36.48,37.44l-4.7,3.81q-6.36-6.71-12.73-13.42Z"/><path class="cls-6" d="M379,750.92c-5.9,6.94-8.47,14.86-7,24-6.14-7.16-6.48-15.45-4.7-24.14A51.42,51.42,0,0,1,378,734.07c1.78-1.74,3.66-3.37,5.31-5.22,26-29.08,51.29-58.87,78.67-86.73L485.56,620c1.31-1,2.66-2,3.92-3,11.15-9.26,22.59-18.12,35.88-24.18,8.54-3.89,17.22-7.19,26.91-4.9,2.24.52,3.75-.68,5.23-2.17,5.06-5,10.19-10,15.29-15L580,577l.12,1c-5.71,2.48-8.79,7.93-13.3,11.78-1.76,1.52-3.21,3.42-5.89,3.25-16-1-29.39,5.93-42.36,14-15,9.37-28.37,20.84-41.07,33.08-27.07,26.09-51.7,54.41-75.59,83.4-6.75,8.2-13.91,16.06-20.91,24A6.25,6.25,0,0,0,379,750.92Z"/><path class="cls-4" d="M378,734.07a51.42,51.42,0,0,0-10.76,16.66c-3.51-3.52-7-7-10.52-10.56-6.84-6.9-9.67-14.86-6.32-24.41l4.7-3.81Z"/><path class="cls-6" d="M343.08,696.11l-5.37,6.23L321,685.72c3.72-6.75,5.29-7.09,10.39-1.83C335.33,687.94,339.77,691.48,343.08,696.11Z"/><path class="cls-11" d="M247.94,632c-1.58,1.47-3.2,2.9-4.73,4.43Q166.53,713.06,89.87,789.71c-1.52,1.52-3.23,2.84-4.85,4.25-10.79-15-19.68-31.07-28.14-47.41a451.89,451.89,0,0,1-28.81-67.62c-.1-2,.88-3.42,2.24-4.78q64.13-64,128.21-128.12a12.73,12.73,0,0,1,1.59-1.2q29.82,29.46,59.65,58.92C229.2,613.11,238.55,622.57,247.94,632Z"/><path class="cls-11" d="M498.12,174.18q-28,28.4-56,56.79c-11.33,11.46-22.77,22.82-34.16,34.22-3.46-1.28-5.44-4.32-7.88-6.76Q316.61,175.06,233.2,91.63c-1.73-1.73-3.14-3.95-5.75-4.64,4.12-4.19,9.35-6.79,14.25-9.83C276.11,55.82,312.37,38.42,351,26.09c.27,2,1.8,3.12,3.08,4.4q70.35,70.37,140.72,140.71C495.83,172.26,497,173.19,498.12,174.18Z"/><path class="cls-12" d="M650,1005c-2.17-.31-3.4-2-4.79-3.36q-62.44-62.43-124.86-124.86c-1.28-1.28-2.8-2.39-3.41-4.23,3.49-5.06,9-7.74,13.71-11.26,26.12-19.46,52.42-38.69,78.61-58.06,7.67-5.68,7.6-5.77,14.26.89q72,72,144,144c1.53,1.52,2.93,3.17,4.38,4.76-22.42,14-46.2,25.16-70.66,35A403.37,403.37,0,0,1,650,1005Z"/><path class="cls-11" d="M764.9,398.54c.58-1.86,2.1-3,3.38-4.26q82-82,164-164c1.39-1.4,2.59-3.11,4.78-3.41,22.75,33,40.61,68.6,54.74,106.09,1.87,4.95,3.41,10,5.11,15.06-1.6,1.45-3.25,2.85-4.78,4.37Q932.76,411.75,873.47,471.2c-3.43,3.45-5.79,4.14-10,1-25.3-19-50.81-37.63-76.25-56.4-6.29-4.64-12.62-9.24-18.91-13.88C767.05,401,765.35,400.39,764.9,398.54Z"/><path class="cls-10" d="M449.83,450.16l6.41,6.87L442,471.72a26.88,26.88,0,0,1-6.89-6.73c4.95-4.67,10.42-8.84,14.05-14.77A4.37,4.37,0,0,1,449.83,450.16Z"/><path class="cls-1" d="M442,471.72,456.24,457l13.86-13.61c1.42-1.4,2.71-2.85,5.09-2.51,17,2.48,30.54-5.77,43.82-14.49,5.82-3.82,11.25-8.23,16.86-12.37,4.83,5.2,9.42,10.66,15.27,14.81l13.66,13.19c5,5.12,9.94,10.26,15,15.33,1.48,1.49,2.69,2.95,2.15,5.22-2.24,9.49.92,18.09,4.7,26.46,6.7,14.86,17,27.33,27.22,39.8-9.6,9-19,18.33-28,28-4.59,4.41-9.85,8.19-13.09,13.87-5.1,5-10.23,10-15.29,15-1.48,1.49-3,2.69-5.23,2.17-9.69-2.29-18.37,1-26.91,4.9-13.29,6.06-24.73,14.92-35.88,24.18-1.26,1-2.61,2-3.92,3-5.19-5.27-10.62-10.34-15.49-15.89-3.29-3.75-5.91-4.51-9-.21L446.1,589.76c-4.66-4.72-9.28-9.48-14-14.13-1.52-1.5-2.52-3-2.05-5.26,2-9.47-1.2-18-4.95-26.35-4.23-9.44-10.38-17.71-16.16-26.19q16.71-16.83,33.44-33.64C448.59,478,448.6,478,442,471.72Z"/><path class="cls-9" d="M442,471.72c6.65,6.24,6.64,6.23.43,12.47q-16.74,16.8-33.44,33.64c-32.77-40.83-72.7-74.28-111.67-108.74-2.34-2.07-5.44-3.57-6.37-7,3.31.13,4.94,3.68,8.14,4a19.47,19.47,0,0,0,2.39,2.49q47.76,34.44,95.52,68.87c1.91,1.38,3.44,1.81,5.21,0,7.22-7.58,15.19-14.44,21.91-22.51l11,10.05A26.88,26.88,0,0,0,442,471.72Z"/><path class="cls-10" d="M446.1,589.76,461,603.93a31,31,0,0,1-6.93,7.2A109.47,109.47,0,0,0,439.9,596.7a5,5,0,0,0-.08-.77Z"/><path class="cls-9" d="M288,400a1.75,1.75,0,0,1,2.06,1.14C288.67,402.05,288.44,400.83,288,400Z"/><path class="cls-9" d="M289.92,401.08c.64.08,1.05.38,1.06,1.08C289.92,402.5,289.51,402.19,289.92,401.08Z"/><path class="cls-9" d="M286.51,399l1.56,1.11Z"/><path class="cls-11" d="M424.07,454.94c-6.72,8.07-14.69,14.93-21.91,22.51-1.77,1.85-3.3,1.42-5.21,0Q349.22,443,301.43,408.62a19.47,19.47,0,0,1-2.39-2.49c6.12-7.63,13.52-14,20.36-20.95,5.45-5.51,10.6-11.36,16.7-16.21q29.68,28.78,59.36,57.58C405.08,435.93,414.54,445.47,424.07,454.94Z"/><path class="cls-2" d="M261.42,644.57c-.49-.52-1-1.05-1.46-1.58C260.84,643.16,261.47,643.55,261.42,644.57Z"/><path class="cls-5" d="M580.08,577.94l-.12-1c1.18-1.34,2.4-2.65,3.54-4,2.76-3.35,6.93-5.49,8.46-9.89l3.72,3q25.67,25.86,51.35,51.71c13.16,13.16,26.47,26.18,39.72,39.27l3.22,4-14,14.86Q652.56,652,629.2,628.16,604.63,603.06,580.08,577.94Z"/><path class="cls-5" d="M655,325,669.84,339Q647.43,361,625,383l-53.06,52-1.82,1.25a109.91,109.91,0,0,0-13-13.1l2.88-3.82a29.31,29.31,0,0,0,2.29-1.88q40.5-40.47,81-81a23.91,23.91,0,0,0,1.81-2.31l.95-.93,1.05-1,0,0,1-1Z"/><path class="cls-11" d="M686.75,657C673.5,643.92,660.19,630.9,647,617.74Q621.26,592,595.68,566c6.59-4.74,11.52-11.24,17.5-16.63,3.52-3.18,6.17-7.33,10.57-9.53,27,28.5,56.66,54.21,86.19,80,2.49,2.17,4.79,4.56,7.17,6.85A370.46,370.46,0,0,1,686.75,657Z"/><path class="cls-4" d="M623.75,539.87c-4.4,2.2-7,6.35-10.57,9.53-6,5.39-10.91,11.89-17.5,16.63l-3.72-3-6.08-6.21c9-9.66,18.36-18.94,28-28Z"/><path class="cls-12" d="M645.1,334.1a23.91,23.91,0,0,1-1.81,2.31q-40.45,40.5-81,81a29.31,29.31,0,0,1-2.29,1.88c-4.14-5.24-8.39-10.35-14.35-13.67l2.92-2.55L550,402l-.1.08L551,401l-.1.06a2.12,2.12,0,0,0,2-1.2l-.15,0c4.1-.79,6.85-3.86,10-6.17q38.81-28.62,77.47-57.47C641.72,335,643,333.73,645.1,334.1Z"/><path class="cls-4" d="M545.69,405.59c6,3.32,10.21,8.43,14.35,13.67l-2.88,3.82-6,5.79c-5.85-4.16-10.44-9.62-15.27-14.82Z"/><path class="cls-9" d="M553,399.81a2.12,2.12,0,0,1-2,1.2C551.39,400.26,551.76,399.35,553,399.81Z"/><path class="cls-9" d="M551,401l-1.1,1.08Z"/><path class="cls-9" d="M550,402,548.61,403Z"/><path class="cls-12" d="M647.1,332.14l-1.05,1Z"/><path class="cls-12" d="M648.11,331.14l-1,1Z"/><path class="cls-11" d="M378,734.07,355.14,712c11.52-13.1,24.27-25,36.48-37.44,17-17.29,34.19-34.39,51.3-51.58A210.93,210.93,0,0,0,462,642.12c-27.38,27.86-52.63,57.65-78.67,86.73C381.7,730.7,379.82,732.33,378,734.07Z"/><path class="cls-8" d="M462,642.12a210.93,210.93,0,0,1-19.1-19.19l11.19-11.8a31,31,0,0,0,6.93-7.2c3.12-4.31,5.74-3.55,9,.2,4.87,5.55,10.3,10.62,15.49,15.89Z"/></svg>