<svg xmlns="http://www.w3.org/2000/svg" viewBox="0 0 200 200"><defs><style>.cls-1{fill:#43a0ff;}.cls-2{fill:#191d1e;}.cls-3{fill:#fff;}</style></defs><path class="cls-1" d="M176.34,170.59c-8.32-1.32-16.09-2.31-23.74-3.87-3.85-.79-4.85.31-5.3,4-.94,7.76-2.47,15.44-3.66,23.16-.31,2-.47,3.46-3.26,2.92-6.53-1.26-13.11-2.35-19.7-3.18-3-.38-3.35-1.72-2.89-4.31,1.35-7.53,2.4-15.11,3.75-22.64.62-3.45-.08-4.95-4-5.53-17.94-2.62-35.83-5.56-53.71-8.57-3.23-.55-4.39.29-4.81,3.51-1,7.74-2.46,15.44-3.52,23.18-.41,2.92-1.33,3.93-4.49,3.28-6.18-1.27-12.44-2.21-18.71-3-2.64-.33-3.32-1.24-2.87-3.81,1.38-7.87,2.45-15.78,3.86-23.64.55-3.09,0-4.47-3.47-4.9-7.91-1-15.75-2.58-23.66-3.69-2.53-.36-3.4-1-2.87-3.76,1.23-6.37,2.3-12.78,3.05-19.22.36-3.08,1.7-3.38,4.28-2.93,7.53,1.33,15.11,2.4,22.64,3.75,3.39.61,4.94.1,5.52-3.91,2.57-17.78,5.52-35.5,8.48-53.21.53-3.14-.11-4.46-3.48-4.9-7.91-1-15.76-2.54-23.66-3.68-2.46-.35-3.43-1-2.88-3.74,1.26-6.36,2.3-12.77,3.08-19.21.36-3,1.5-3.44,4.21-3,7.86,1.4,15.78,2.43,23.64,3.84,3.07.55,4.06-.42,4.47-3.43,1.07-7.9,2.62-15.75,3.69-23.66.39-2.81,1.39-3.73,4.16-3.26,6.23,1,12.46,2.16,18.74,2.83,3.42.37,3.5,2.05,3.05,4.7C81,18.62,79.86,26.53,78.42,34.38c-.55,3,.32,4.16,3.28,4.61q27.85,4.26,55.69,8.82c2.67.44,3.06-.59,3.38-2.71,1.18-7.89,2.68-15.74,3.68-23.66.49-3.8,1.7-5.07,5.69-4.17a176.13,176.13,0,0,0,17.71,2.9c2.67.33,3.28,1.23,2.82,3.82-1.36,7.7-2.09,15.52-3.8,23.13-1.05,4.71.78,5.72,4.74,6.22,7.09.89,14.13,2.21,21.22,3.16,3.19.43,4.6,1.35,3.79,5a183.32,183.32,0,0,0-2.94,18.22c-.35,3-1.46,3.36-4.19,2.86-7.85-1.43-15.79-2.37-23.63-3.84-3.09-.58-4,.21-4.47,3.26q-4.12,27.14-8.67,54.2c-.49,2.92.12,4.2,3.19,4.62,7.75,1.05,15.45,2.43,23.18,3.54,2.95.42,4.38,1.19,3.59,4.74-1.33,6-2.14,12.12-2.94,18.22C179.39,170,178.78,171.59,176.34,170.59Zm-42.21-63.28c0-9.66.08-19.32,0-29C134,70,130.1,66.07,121.83,66q-21.72-.09-43.45,0c-8.4,0-12.06,3.8-12.09,12.32q-.06,21.23,0,42.45c0,9.31,3.69,13,13,13.12,9.82.08,19.66.41,29.46-.12,6.38-.35,11.25,1.26,15.08,6.4,1.73,2.34,4,4.24,7.27,2.86s3-4.43,3-7.28Q134.14,121.55,134.13,107.31Z"/><path class="cls-2" d="M134.13,107.31q0,14.23,0,28.47c0,2.85.2,5.89-3,7.28s-5.54-.52-7.27-2.86c-3.83-5.14-8.7-6.75-15.08-6.4-9.8.53-19.64.2-29.46.12-9.3-.07-13-3.81-13-13.12q0-21.22,0-42.45C66.32,69.83,70,66.07,78.38,66q21.72-.09,43.45,0c8.27,0,12.18,3.94,12.27,12.31C134.21,88,134.13,97.65,134.13,107.31Zm-33.89,8a24.38,24.38,0,0,0,23.7-19c1.41-5.81.58-6.55-5.28-6.16-3.63.25-2.45,3-3,4.73A16.54,16.54,0,0,1,100.45,107a16.28,16.28,0,0,1-15.4-10.6c-.5-1.38-.52-2.94-1-4.34-1.32-3.84-4.52-1.51-6.81-1.77-2.46-.27-1.61,2-1.48,3.28C77,105.82,87.77,115.38,100.24,115.33Z"/><path class="cls-3" d="M125.1,89.52h-9a11.13,11.13,0,0,1,0,1.16,16,16,0,0,1-32,0,11.13,11.13,0,0,1,.05-1.16h-9c0,.39,0,.77,0,1.16a25,25,0,0,0,50,0C125.13,90.29,125.12,89.91,125.1,89.52Z"/></svg>