<svg id="Слой_1" data-name="Слой 1" xmlns="http://www.w3.org/2000/svg" viewBox="0 0 1024 1024"><defs><style>.cls-1{fill:#dfe1e6;}.cls-2{fill:#fdc377;}.cls-3{fill:#fd576a;}.cls-4{fill:#2a68a5;}.cls-5{fill:#fdd095;}.cls-6{fill:#f5b15e;}.cls-7{fill:#f5b15f;}.cls-8{fill:#da9746;}.cls-9{fill:#e9edee;}.cls-10{fill:#fce3c0;}.cls-11{fill:#c5cad4;}</style></defs><path class="cls-1" d="M473,.1h78c.34,2.07,2,2,3.45,2,3.67,0,7.27.56,10.9.88a464.22,464.22,0,0,1,72.85,12.79A513.84,513.84,0,0,1,771.46,70.53a512.8,512.8,0,0,1,61.7,42.92,550.48,550.48,0,0,1,61.16,58.38,496.14,496.14,0,0,1,46.34,60.38,501.72,501.72,0,0,1,48.2,93.31,491.74,491.74,0,0,1,25.88,89.88c3.33,17.92,6.24,35.91,7.17,54.16.08,1.51-.07,3.11,2,3.45v77c-1.74.27-1.91,1.54-2,3-.59,11.75-2.22,23.38-3.83,35a484.39,484.39,0,0,1-18.56,80.39,498.13,498.13,0,0,1-50.88,110.79c-2.49,4.05-4.35,8.64-8.12,11.85-.77-.85-1.61-1.66-2.31-2.57l-74.41-97.53c-2.21-2.9-4-7.29-6.89-8.22-3.45-1.12-6,3.81-9.42,5.36a3.68,3.68,0,0,1-.47.15c-1.59-5.4-5.6-9.14-9.08-13.24q-17.07-24.09-34.1-48.2c-1.81-2.57-3.4-1.12-5,0-3.55,2.39-7,4.87-10.56,7.31-3.62-6.34-7.17-12.72-10.88-19q-22.54-38.2-45.15-76.35c-2.22-3.46-2.7-7.23-2.48-11.29.27-4.76.05-9.54.05-14.31,9.87-12.37,21.29-23.35,31.73-35.21,7.35-8.37,15.18-16.31,21.13-25.87,16.11-25.9,14.72-51.7-11.06-70.88-2.75-2.05-2.24-3.13.2-5.09,12.75-10.25,21-23,19-40.05-1.72-15.05-8.76-27.42-22.58-34.36-4.63-2.32-4.56-3.32-2.6-7.39,9.29-19.27,8.64-38.09-4.42-55.53-7.53-10.05-16.78-18.1-30-19.75-2.8-.36-2.38-2.25-2.35-4.05.13-7,.54-14-.95-20.9-3.2-14.9-9.7-27.76-23.63-35.31-14.32-7.76-29.25-7.84-44.35-2.07-5.76,2.19-11.4,4.76-17.6,6.23,0-.79-.07-1,0-1.11.68-.94,1.39-1.86,2.1-2.78,8.39-10.85,16-22.17,19.78-35.57,5-17.41-2.82-30.9-20-34.74a34.81,34.81,0,0,0-22.46,2.59c-20.57,9.54-39.1,22.7-58.79,33.81a7.93,7.93,0,0,1-4.81-.93,71.34,71.34,0,0,0-28.9-8.66c-13.39-1.22-26.56-.89-38,8-7.59,5.91-15.44,11.51-23.31,17.05s-14.57,12.53-23,17.32l-83.88,3.52c-6.64-.38-13.36-1.21-19.9.21-20.84,4.49-35.23,24.41-34,46.6a27.84,27.84,0,0,0,1.1,5.3c1.57,3.88-.76,3.71-3.32,3.49-14-3-26.53-.44-36.45,10.27-15.08,16.29-18.09,43-7.5,62.81l1,1.06-.07,0c1.93,5.19,6.87,7.69,10.66,11.57l-7.38,1.6a39.7,39.7,0,0,0-20.48,10.62c-16.05,15.53-17.46,48.14-3,66.19.88,2.73,3.29,4.37,4.82,6.63,1.12,1.64,3.46,2.72,2.37,5.34-19,14-20,55,4.05,68,5.92,10.61,12.91,20.53,19.93,30.41,4.5,6.34,8.55,13,14.09,18.6.59,10.47-1.32,20.86-1.08,31.32.05,2.11-1,3.83-1.94,5.57L235.83,634c-3.89-1.61-6.76-4.73-10.17-7-2.64-1.78-4.19-2.18-6.37,1-9.63,13.92-19.69,27.55-29.38,41.42-4.36,6.23-9.63,11.83-13,18.76-1.52-1-3.28-1.75-4.53-3-3.87-3.89-6.17-2.48-9.12,1.48-14.1,18.9-28.47,37.6-42.81,56.32Q102,767,83.44,791.05a26,26,0,0,1-2.59-3c-8.2-12.91-16-26.05-23-39.66A553,553,0,0,1,29.79,684,488.67,488.67,0,0,1,12.45,624.7c-5.23-23.27-9.06-46.86-10.37-70.76-.08-1.41-.24-2.69-2-3V473c2.07-.34,1.85-1.95,2-3.45,1-10.56,1.52-21.19,3.17-31.65,4.45-28.06,10.41-55.8,19.31-82.83a529.54,529.54,0,0,1,42.68-96.61C89.17,220,116,185.16,146.52,153.23c12.19-12.73,25.62-24.13,39.16-35.43a505.45,505.45,0,0,1,177-95.51A490,490,0,0,1,469.56,2.09C471.06,2,472.67,2.17,473,.1Z"/><path class="cls-1" d="M644,1006.19c-13.27,4.81-27.19,6.93-40.94,9.61-10.19,2-20.54,3.16-30.84,4.51-5.56.73-11.17,1.07-16.75,1.61-1.69.16-3.85-.68-4.43,2H473c-.44-2.37-2.34-1.9-3.93-2-18.49-1.06-36.73-4-54.9-7.48-11.51-2.19-23-4.43-34.16-8.23,1.2-1.78,2.35-3.61,3.62-5.35q37.91-52.27,75.93-104.47c2.3-3.15,2.18-4.54-1.06-6.82-15.09-10.61-30-21.51-44.93-32.3,6.8-8,12.49-16.74,18.43-25.33,7.77-10.91,15.48-21.87,23.32-32.73,3.58-5,3.47-5.36-1.31-8.93-7.66-5.73-16.07-10.46-23-17.17,9.21-10.05,18.38-20.14,27.65-30.14q25.77-27.83,51.67-55.56c1.66-1.79,3-4.09,5.72-4.6,3.71.77,7.39,1.65,11.11,2.28,5.6.95,10.91,2.28,13.79,7.92q4.34,6,8.69,12.09l47.25,65.17a26.21,26.21,0,0,1-3.15,3.17c-8.18,6-16.3,12.05-24.7,17.71-3.15,2.13-3.52,3.94-1.42,6.84,6.7,9.3,13.17,18.77,20.06,27.93,4.78,6.35,8.74,13.31,14.28,19.09,1.93,4.74,5.26,8.51,8.56,12.3-15.12,10.87-30.18,21.82-45.4,32.55-2.82,2-3.19,3.21-1.06,6.08,11.48,15.5,22.76,31.15,34.07,46.78Q621.09,974.42,644,1006.19Z"/><path class="cls-2" d="M516.07,682.8c-2.72.51-4.06,2.81-5.72,4.6Q484.46,715.14,458.68,743c-9.27,10-18.44,20.09-27.65,30.14-3.23-.71-5.46-3.1-8-4.9q-72.68-51.83-145.27-103.76c-14-10.05-28-20.27-41.95-30.42q24.1-43.56,48.2-87.12c1-1.74,2-3.46,1.94-5.57-.24-10.46,1.67-20.85,1.08-31.32,2.37-6.23.14-12.87,1.78-19.26.78-3,1.28-3.89,4.39-2.95,12.39,3.75,24.86,7.25,37.28,10.89,11.47,3.35,22.72,7.07,35.08,6.45,20.9-1,42.09-19.46,36.79-44.57-.74-3.5-.09-5.09,4-4,7.7,2,15.55,3.51,23.23,5.59a54,54,0,0,0,35.58-2.33c15.17-6.21,28.52-22.56,23.91-40.12-1.67-6.36-1.21-6.42,5.69-7.88A31.37,31.37,0,0,0,500,410c9.94-4,15.79-12,19.72-21.46,7-17,7-33.37-5.77-48-1.92-2.22-1.75-3,1-4,6.39-2.41,10.65-7.05,13.55-13.23,4-8.59,5.94-17.27,4.72-26.95-1.32-10.53-8-20-18.21-23.24h0c-.35-.55-.69-.49-1,0-5.06-4.57-10.85-8.17-16.23-12.31-5-3.81-10.87-6.48-14.73-11.69a59.91,59.91,0,0,1,5.3-3.63q20.16-10.92,40.37-21.7,47.72-25.41,95.46-50.76c1.44-.77,3.14-1.23,3.85-3l0,0a2.18,2.18,0,0,0,2-1.07c2-3,6.39-2.24,8.56-5.1-.43-.43-.63-.74-.91-.88-21.95-10.72-43.94-21.34-65.81-32.23-3.09-1.53-7.14-1.91-8.85-5.71,19.69-11.11,38.22-24.27,58.79-33.81a34.81,34.81,0,0,1,22.46-2.59c17.23,3.84,25,17.33,20,34.74-3.81,13.4-11.39,24.72-19.78,35.57-.71.92-1.42,1.84-2.1,2.78-.08.11,0,.32,0,1.11,6.2-1.47,11.84-4,17.6-6.23,15.1-5.77,30-5.69,44.35,2.07,13.93,7.55,20.43,20.41,23.63,35.31,1.49,6.91,1.08,13.91.95,20.9,0,1.8-.45,3.69,2.35,4.05,13.21,1.65,22.46,9.7,30,19.75,13.06,17.44,13.71,36.26,4.42,55.53-2,4.07-2,5.07,2.6,7.39,13.82,6.94,20.86,19.31,22.58,34.36,2,17.08-6.29,29.8-19,40.05-2.44,2-3,3-.2,5.09,25.78,19.18,27.17,45,11.06,70.88-5.95,9.56-13.78,17.5-21.13,25.87-10.44,11.86-21.86,22.84-31.73,35.21-1.36,1.22-2.81,2.34-4.05,3.66-12.7,13.62-25.19,27.42-38.08,40.85q-24.18,25.23-48.93,49.9a307.56,307.56,0,0,1-25.45,23.13c-21.65,17.18-46.37,29.13-71.35,40.6C533.37,675.18,524.3,678.05,516.07,682.8Z"/><path class="cls-3" d="M413.58,857.26c15,10.79,29.84,21.69,44.93,32.3,3.24,2.28,3.36,3.67,1.06,6.82q-38.11,52.13-75.93,104.47c-1.27,1.74-2.42,3.57-3.62,5.35C368,1004,356.58,1000,345.15,996,235.64,957.45,148.9,889.55,84.2,793.3a8.65,8.65,0,0,1-.76-2.25Q102,767,120.49,742.92c14.34-18.72,28.71-37.42,42.81-56.32,2.95-4,5.25-5.37,9.12-1.48,1.25,1.26,3,2,4.53,3a29.32,29.32,0,0,0,7,4.9,3.27,3.27,0,0,0,2.22,1.64L188,696c1.14.94,2.23,2,3.43,2.82Q278.49,761,365.58,823.23C381.54,834.63,397.58,845.92,413.58,857.26Zm-22,85.92a21.82,21.82,0,0,0,22.27-22c0-11.76-10.37-22-22.07-21.91a22,22,0,0,0-21.83,22A21.39,21.39,0,0,0,391.54,943.18Z"/><path class="cls-4" d="M644,1006.19q-22.91-31.74-45.8-63.48c-11.31-15.63-22.59-31.28-34.07-46.78-2.13-2.87-1.76-4.1,1.06-6.08,15.22-10.73,30.28-21.68,45.4-32.55,1.11-.72,2.26-1.39,3.34-2.16q90.71-64.8,181.39-129.64c17.3-12.37,34.51-24.86,51.77-37.29a3.68,3.68,0,0,0,.47-.15c3.41-1.55,6-6.48,9.42-5.36,2.89.93,4.68,5.32,6.89,8.22l74.41,97.53c.7.91,1.54,1.72,2.31,2.57-5.43,10.55-12.7,19.88-19.86,29.23-69.34,90.43-158.51,152.07-268,184C649.82,1005.12,647,1006.29,644,1006.19Zm-22.64-112.3a22,22,0,1,0,21.71,22A21.7,21.7,0,0,0,621.31,893.89Z"/><path class="cls-5" d="M563,125.06c1.71,3.8,5.76,4.18,8.85,5.71,21.87,10.89,43.86,21.51,65.81,32.23.28.14.48.45.91.88-2.17,2.86-6.58,2.06-8.56,5.1l-2,1.07,0,0c-6.59,1.3-12.43,4.59-18.56,7.09-25.1,10.24-50.11,20.68-75.24,30.85-23.42,9.47-46.77,19.19-71.14,26.11-26.12,4.89-42.06-8.45-53.68-30.6-.27,3.7-1.46,6.42-.89,9.73,2.51,14.61,11.71,23.94,24.05,30.46,10.95,5.77,22.69,7.07,34.66,3.09,1.92-.64,4.34-1,4.84-3.7,4.15,1.11,6.54,5.45,11,6,3.86,5.21,9.77,7.88,14.73,11.69,5.38,4.14,11.17,7.74,16.23,12.31h1a15,15,0,0,0,1.21,3.23c9.64,14.7.24,40-14.55,48.32-3.66,2.05-7.38,3.5-11.69.79q-37.77-23.75-75.7-47.24c-29.07-18.07-58.21-36-87.19-54.24-6.64-4.17-14.5-7.11-18-15.13-.18-.4-1.18-.43-1.79-.62-1.26-22.2,13.13-42.12,34-46.61,6.54-1.42,13.26-.59,19.9-.21.17,2.13,1.85,2.94,3.37,4,3.81,2.63,7.57,5.34,11.33,8,9.94,7.15,19.84,14.35,29.86,21.39.81.57,2.25,3.28,3.63,0,5.25-12.58,15.39-20.81,25.82-28.81,3.36-2.59,7.31-4.51,9.87-8.1,8.4-4.79,15.13-11.79,23-17.32s15.72-11.14,23.31-17.05c11.43-8.89,24.6-9.22,38-8a71.34,71.34,0,0,1,28.9,8.66A7.93,7.93,0,0,0,563,125.06Zm-111,85a13.39,13.39,0,0,0,8.85-2.9,134.11,134.11,0,0,0,17.08-14.48c3.81-3.91,3.83-3.92-1.52-5.67-9.63-3.15-18.72-7.08-24.15-16.41-1.38-2.38-2.92-.73-4.16.09a122.66,122.66,0,0,0-18.85,14.67c-7.88,7.81-8.07,8.09.77,15C436.38,205.34,443.43,209.55,451.94,210.08Zm59.12,80.52c.7-5.16-1.53-8.21-6.14-10.22a69.87,69.87,0,0,1-9.89-5.74c-2.33-1.5-3.42-1.4-4.71,1.45-4.19,9.23-9,18.13-15.74,25.83-2,2.29-1.68,3.61.94,4.92,4.9,2.44,9.71,5.07,14.59,7.56a7,7,0,0,0,7.13-.55C506,308.55,510.25,300.54,511.06,290.6Z"/><path class="cls-6" d="M596.91,770.26l-47.25-65.17q-4.36-6-8.69-12.09a17.29,17.29,0,0,0,7.12-2.11c13.77-6.68,27.72-13,41.23-20.2a226.59,226.59,0,0,0,53-38.54c27.4-27,54-54.67,80.45-82.56,3.31-3.49,6.32-7.26,9.46-10.9Q754.83,576.85,777.4,615c3.71,6.29,7.26,12.67,10.88,19a16.92,16.92,0,0,1-1.47,1.34q-93,66.48-185.93,132.94C599.67,769.19,598.53,770.23,596.91,770.26Z"/><path class="cls-5" d="M261.08,290c-10.59-19.77-7.58-46.52,7.5-62.81C278.5,216.52,291.07,213.94,305,217c1.89,4.52,6.15,6.31,10,8.59C359,251.8,402.82,278.19,446.9,304.21c17,10.05,33.23,21.51,51.41,29.53a7,7,0,0,1,2.91,2.61c12.27,17.62,8.92,42.17-6.89,55.56-8,6.79-16.64,9.29-27.39,3.38-22-12.11-44.68-23-67.13-34.29-24.37-12.28-48.81-24.42-73.18-36.7-15.74-7.92-31.31-16.2-47.16-23.89-6-2.89-11.13-7.24-17.49-9.34l.07,0C261.73,290.75,261.4,290.4,261.08,290ZM498,356.32c-.1-6-1.3-8-6.54-10.55-3.59-1.73-7.28-3.24-10.89-4.93-2.34-1.1-4-1.13-5,1.82a105.73,105.73,0,0,1-13.46,27.67c-1.43,2.05-1.16,3.11,1.27,4q7,2.58,13.84,5.64c4.67,2.08,8.53.56,11.8-2.64C494.91,371.62,497.49,364.38,498,356.32Z"/><path class="cls-5" d="M241.78,381.05c-14.46-18.05-13.05-50.66,3-66.19a39.79,39.79,0,0,1,20.48-10.63c4.31,3.25,9.49,4.75,14.28,7,23,10.93,46,21.73,69,32.62q58.89,27.88,117.73,55.84c8.08,3.84,11.72,11.91,10.44,20.77-2.7,18.89-19.55,29.28-36,29.6-8.41.16-16.47-1.91-24.64-3.22-9.3-1.5-19-1.63-27.77-5.24C352.48,426.92,316.77,411.87,281,397,268,391.61,254.85,386.37,241.78,381.05ZM463,414.91c0-6.62-1.3-8.42-7.46-10.57-3.13-1.1-6.27-2.16-9.33-3.43-2.87-1.19-4.5-.76-5.54,2.52-2.83,9-6,17.93-11.26,25.91-.82,1.24-1.2,2.52.67,3.14,5.65,1.86,11.29,3.76,17,5.43,1.84.54,3.6-.52,5-1.68C459,430.76,463,423.86,463,414.91Z"/><path class="cls-7" d="M241.78,381.05c13.07,5.32,26.18,10.56,39.22,16,35.77,14.85,71.48,29.9,107.32,44.6,8.79,3.61,18.47,3.74,27.77,5.24,8.17,1.31,16.23,3.38,24.64,3.22,16.48-.32,33.33-10.71,36-29.6,1.28-8.86-2.36-16.93-10.44-20.77q-58.85-28-117.73-55.84c-23-10.89-46.06-21.69-69-32.62-4.79-2.27-10-3.77-14.28-7l7.38-1.59c-3.79-3.88-8.73-6.38-10.66-11.57,6.36,2.1,11.52,6.45,17.49,9.34,15.85,7.69,31.42,16,47.16,23.89,24.37,12.28,48.81,24.42,73.18,36.7,22.45,11.3,45.13,22.18,67.13,34.29,10.75,5.91,19.37,3.41,27.39-3.38,15.81-13.39,19.16-37.94,6.89-55.56a7,7,0,0,0-2.91-2.61c-18.18-8-34.4-19.48-51.41-29.53C402.82,278.19,359,251.8,315,225.55c-3.82-2.28-8.08-4.07-10-8.59,2.55.22,4.88.39,3.31-3.49a27.84,27.84,0,0,1-1.1-5.3c.61.2,1.61.23,1.79.63,3.5,8,11.36,11,18,15.13,29,18.21,58.12,36.17,87.19,54.24q37.89,23.57,75.7,47.24c4.31,2.71,8,1.26,11.69-.79,14.79-8.32,24.19-33.62,14.55-48.32a15,15,0,0,1-1.21-3.23c10.2,3.25,16.89,12.71,18.21,23.24,1.22,9.68-.68,18.36-4.72,26.95-2.9,6.18-7.16,10.82-13.55,13.23-2.73,1-2.9,1.82-1,4,12.75,14.67,12.81,31,5.77,48C515.76,398.05,509.91,406,500,410a31.37,31.37,0,0,1-5.17,1.8c-6.9,1.46-7.36,1.52-5.69,7.88,4.61,17.56-8.74,33.91-23.91,40.12a54,54,0,0,1-35.58,2.33c-7.68-2.08-15.53-3.56-23.23-5.59-4.12-1.09-4.77.5-4,4,5.3,25.11-15.89,43.53-36.79,44.57-12.36.62-23.61-3.1-35.08-6.45-12.42-3.64-24.89-7.14-37.28-10.89-3.11-.94-3.61-.09-4.39,2.95-1.64,6.39.59,13-1.78,19.26-5.54-5.56-9.59-12.26-14.09-18.6-7-9.88-14-19.8-19.93-30.41,12.26,2.38,23.68,7.44,35.49,11.24,19.45,6.27,38.66,13.38,58.29,19,18.85,5.41,36.1-2.79,43.17-19.16,3-6.87,2.63-13.82.2-20.89-2.14-6.23-7.61-7.28-12.69-9.22q-41.89-16-83.76-32.11c-14.9-5.69-29.84-11.24-44.75-16.86,1.09-2.62-1.25-3.7-2.37-5.34C245.07,385.42,242.66,383.78,241.78,381.05Z"/><path class="cls-5" d="M249,393c14.91,5.62,29.85,11.17,44.75,16.86q41.89,16,83.76,32.11c5.08,1.94,10.55,3,12.69,9.22,2.43,7.07,2.76,14-.2,20.89-7.07,16.37-24.32,24.57-43.17,19.16-19.63-5.64-38.84-12.75-58.29-19-11.81-3.8-23.23-8.86-35.49-11.24C228.93,448,230,407.06,249,393Zm138.08,69.29c-.92-3-.94-6.62-4.36-8.43-3.67-1.94-7.46-3.64-11.07-5.66-2.53-1.42-3.45-.46-4.17,1.94a150.58,150.58,0,0,1-6.32,16.77c-1.4,3.16-5.49,6.3-4.21,9.06s6.38,2.75,9.75,4c3.22,1.22,6.31,2.61,9.88.28C383.1,476,385.82,469.74,387.05,462.31Z"/><path class="cls-8" d="M732.25,538.69c-3.14,3.64-6.15,7.41-9.46,10.9-26.44,27.89-53,55.6-80.45,82.56a226.59,226.59,0,0,1-53,38.54c-13.51,7.18-27.46,13.52-41.23,20.2A17.29,17.29,0,0,1,541,693c-2.88-5.64-8.19-7-13.79-7.92-3.72-.63-7.4-1.51-11.11-2.28,8.23-4.75,17.3-7.62,25.89-11.57,25-11.47,49.7-23.42,71.35-40.6a307.56,307.56,0,0,0,25.45-23.13q24.76-24.64,48.93-49.9c12.89-13.43,25.38-27.23,38.08-40.85,1.24-1.32,2.69-2.44,4.05-3.66,0,4.77.22,9.55-.05,14.31C729.55,531.46,730,535.23,732.25,538.69Z"/><path class="cls-9" d="M602,845c18-13.12,35.87-26.3,53.89-39.34q35.31-25.54,70.76-50.91,33.55-24.12,67.11-48.25Q815.81,690.68,838,675c3.48,4.1,7.49,7.84,9.08,13.24-17.26,12.43-34.47,24.92-51.77,37.29q-90.66,64.86-181.39,129.64c-1.08.77-2.23,1.44-3.34,2.16C607.24,853.51,603.91,849.74,602,845Z"/><path class="cls-2" d="M445,157.84c-2.56,3.59-6.51,5.51-9.87,8.1-10.43,8-20.57,16.23-25.82,28.81-1.38,3.3-2.82.59-3.63,0-10-7-19.92-14.24-29.86-21.39-3.76-2.7-7.52-5.41-11.33-8-1.52-1-3.2-1.85-3.37-4Z"/><path class="cls-7" d="M261.08,290c.32.36.65.71,1,1.06C261.73,290.75,261.4,290.4,261.08,290Z"/><path class="cls-9" d="M188,696c3.79-.09,6.43,2.46,9.44,4.15q44.06,24.9,88.1,49.81,41.43,23.38,82.88,46.74c18.8,10.64,37.52,21.42,56.32,32.06,2.29,1.3,4.56,2.79,7.27,3.19-5.94,8.59-11.63,17.36-18.43,25.33-16-11.34-32-22.63-48-34q-87.1-62.18-174.15-124.43C190.23,698,189.14,696.92,188,696Z"/><path class="cls-7" d="M483,249.08c-4.44-.57-6.83-4.91-11-6-.84-1.94-2.74-2.67-4.26-3.86-1.84-1.44-4.57-2.1-4.72-5.12,24.37-6.92,47.72-16.64,71.14-26.11,25.13-10.17,50.14-20.61,75.24-30.85,6.13-2.5,12-5.79,18.56-7.09-.71,1.73-2.41,2.19-3.85,3q-47.73,25.38-95.46,50.76-20.22,10.77-40.37,21.7A59.91,59.91,0,0,0,483,249.08Z"/><path class="cls-7" d="M628,170.05l2-1.07A2.18,2.18,0,0,1,628,170.05Z"/><path class="cls-7" d="M515,273.08h-1C514.3,272.59,514.64,272.53,515,273.08Z"/><path class="cls-9" d="M391.54,943.18a21.39,21.39,0,0,1-21.63-21.92,22,22,0,0,1,21.83-22c11.7-.1,22,10.15,22.07,21.91A21.82,21.82,0,0,1,391.54,943.18ZM407,921.63c.07-9-6.4-15.74-15.05-15.71a16.15,16.15,0,0,0-15.93,15.8c-.15,7.82,7.64,15.22,16,15.19S407,930.32,407,921.63Z"/><path class="cls-9" d="M183.9,693a1.89,1.89,0,0,1,2.22,1.64A3.27,3.27,0,0,1,183.9,693Z"/><path class="cls-9" d="M621.31,893.89a22,22,0,1,1-.64,43.91,22,22,0,0,1,.64-43.91ZM636,915.7c0-9-5.82-14.8-15-14.84-8.56,0-15.09,6.19-15.12,14.42,0,9.36,5.94,15.64,14.93,15.68S636,924.9,636,915.7Z"/><path class="cls-10" d="M451.94,210.08c-8.51-.53-15.56-4.74-22-9.74-8.84-6.87-8.65-7.15-.77-15A122.66,122.66,0,0,1,448,170.71c1.24-.82,2.78-2.47,4.16-.09,5.43,9.33,14.52,13.26,24.15,16.41,5.35,1.75,5.33,1.76,1.52,5.67a134.11,134.11,0,0,1-17.08,14.48A13.39,13.39,0,0,1,451.94,210.08Z"/><path class="cls-10" d="M511.06,290.6c-.81,9.94-5,17.95-13.82,23.25a7,7,0,0,1-7.13.55c-4.88-2.49-9.69-5.12-14.59-7.56-2.62-1.31-2.93-2.63-.94-4.92,6.7-7.7,11.55-16.6,15.74-25.83,1.29-2.85,2.38-2.95,4.71-1.45a69.87,69.87,0,0,0,9.89,5.74C509.53,282.39,511.76,285.44,511.06,290.6Z"/><path class="cls-2" d="M463,234.08c.15,3,2.88,3.68,4.72,5.12,1.52,1.19,3.42,1.92,4.26,3.86-.5,2.68-2.92,3.06-4.84,3.7-12,4-23.71,2.68-34.66-3.09-12.34-6.52-21.54-15.85-24.05-30.46-.57-3.31.62-6,.89-9.73C421,225.63,436.91,239,463,234.08Z"/><path class="cls-10" d="M498,356.32c-.51,8.06-3.09,15.3-8.94,21-3.27,3.2-7.13,4.72-11.8,2.64s-9.17-3.92-13.84-5.64c-2.43-.9-2.7-2-1.27-4a105.73,105.73,0,0,0,13.46-27.67c1-3,2.62-2.92,5-1.82,3.61,1.69,7.3,3.2,10.89,4.93C496.7,348.3,497.9,350.35,498,356.32Z"/><path class="cls-10" d="M463,414.91c0,8.95-4.07,15.85-10.88,21.32-1.44,1.16-3.2,2.22-5,1.68-5.71-1.67-11.35-3.57-17-5.43-1.87-.62-1.49-1.9-.67-3.14,5.27-8,8.43-16.89,11.26-25.91,1-3.28,2.67-3.71,5.54-2.52,3.06,1.27,6.2,2.33,9.33,3.43C461.72,406.49,463,408.29,463,414.91Z"/><path class="cls-10" d="M387.05,462.31c-1.23,7.43-3.95,13.72-10.5,18-3.57,2.33-6.66.94-9.88-.28-3.37-1.28-8.39-1.12-9.75-4s2.81-5.9,4.21-9.06a150.58,150.58,0,0,0,6.32-16.77c.72-2.4,1.64-3.36,4.17-1.94,3.61,2,7.4,3.72,11.07,5.66C386.11,455.69,386.13,459.28,387.05,462.31Z"/><path class="cls-11" d="M407,921.63c-.06,8.69-6.5,15.25-15,15.28s-16.14-7.37-16-15.19A16.15,16.15,0,0,1,392,905.92C400.64,905.89,407.11,912.63,407,921.63Z"/><path class="cls-11" d="M636,915.7C636,924.9,630,931,620.87,931s-15-6.32-14.93-15.68c0-8.23,6.56-14.46,15.12-14.42C630.22,900.9,636.05,906.68,636,915.7Z"/></svg>