<svg xmlns="http://www.w3.org/2000/svg">
    <symbol viewBox="0 0 24 24" fill="currentColor" stroke="currentColor" id="close">
        <path d="M5 5L19 19M5.00003 19L12 12L19 5" stroke-width="1.5" stroke-linecap="round"/>
    </symbol>

    <symbol viewBox="0 0 24 24" fill="currentColor" stroke="currentColor" id="rotate-right">
        <path d="M22.75 12C22.75 11.5858 22.4142 11.25 22 11.25C21.5858 11.25 21.25 11.5858 21.25 12H22.75ZM18.001 4L17.5505 4.59962L18.001 4ZM20 5.99903L19.4004 6.44953L19.431 6.49029L19.4669 6.52653L20 5.99903ZM21.4069 0.996654C21.405 0.582444 21.0677 0.248159 20.6535 0.250007C20.2393 0.251856 19.905 0.589137 19.9069 1.00335L21.4069 0.996654ZM20.6657 2.98571L21.4157 2.98237V2.98237L20.6657 2.98571ZM16.9857 6.66571L16.9824 7.41571L16.9857 6.66571ZM15.0034 5.90686C14.5891 5.90501 14.2519 6.2393 14.25 6.65351C14.2482 7.06772 14.5824 7.405 14.9967 7.40685L15.0034 5.90686ZM20.2572 5.90267L20.8503 6.36169V6.36169L20.2572 5.90267ZM19.9027 6.25717L20.3617 6.85029L20.3617 6.85029L19.9027 6.25717ZM20.0912 6.09117L20.6215 6.6215L20.0912 6.09117ZM21.25 12C21.25 17.1086 17.1086 21.25 12 21.25V22.75C17.9371 22.75 22.75 17.9371 22.75 12H21.25ZM12 21.25C6.89137 21.25 2.75 17.1086 2.75 12H1.25C1.25 17.9371 6.06294 22.75 12 22.75V21.25ZM2.75 12C2.75 6.89137 6.89137 2.75 12 2.75V1.25C6.06294 1.25 1.25 6.06294 1.25 12H2.75ZM12 2.75C14.0836 2.75 16.0044 3.43804 17.5505 4.59962L18.4515 3.40038C16.6546 2.05032 14.4197 1.25 12 1.25V2.75ZM17.5505 4.59962C18.2508 5.12582 18.8742 5.74916 19.4004 6.44953L20.5996 5.54852C19.9886 4.73519 19.2648 4.01145 18.4515 3.40038L17.5505 4.59962ZM19.9069 1.00335L19.9157 2.98906L21.4157 2.98237L21.4069 0.996654L19.9069 1.00335ZM16.9891 5.91572L15.0034 5.90686L14.9967 7.40685L16.9824 7.41571L16.9891 5.91572ZM19.9157 2.98906C19.9193 3.79848 19.9206 4.34217 19.8757 4.75351C19.8324 5.14976 19.7542 5.32713 19.664 5.44365L20.8503 6.36169C21.1793 5.93661 21.3089 5.44728 21.3668 4.91635C21.4232 4.4005 21.4192 3.75651 21.4157 2.98237L19.9157 2.98906ZM16.9824 7.41571C17.7565 7.41916 18.4005 7.42317 18.9164 7.36684C19.4473 7.30886 19.9366 7.17926 20.3617 6.85029L19.4437 5.66404C19.3271 5.75421 19.1498 5.83243 18.7535 5.8757C18.3422 5.92062 17.7985 5.91933 16.9891 5.91572L16.9824 7.41571ZM19.664 5.44365C19.6321 5.4849 19.5976 5.52404 19.5608 5.56084L20.6215 6.6215C20.7031 6.5399 20.7795 6.45314 20.8503 6.36169L19.664 5.44365ZM19.5608 5.56084C19.524 5.59764 19.4849 5.63211 19.4437 5.66404L20.3617 6.85029C20.4531 6.77952 20.5399 6.7031 20.6215 6.6215L19.5608 5.56084ZM19.4669 6.52653L19.558 6.61867L20.6243 5.56367L20.5331 5.47152L19.4669 6.52653Z" />
    </symbol>

    <symbol viewBox="0 0 24 24" fill="none" id="contacts">
        <path d="M7 7.75C7 8.99264 8.00736 10 9.25 10V11.5C7.17893 11.5 5.5 9.82107 5.5 7.75H7ZM9.25 10C10.4926 10 11.5 8.99264 11.5 7.75H13C13 9.82107 11.3211 11.5 9.25 11.5V10ZM11.5 7.75C11.5 6.50736 10.4926 5.5 9.25 5.5V4C11.3211 4 13 5.67893 13 7.75H11.5ZM9.25 5.5C8.00736 5.5 7 6.50736 7 7.75H5.5C5.5 5.67893 7.17893 4 9.25 4V5.5ZM12.25 14.5H6.25V13H12.25V14.5ZM6.25 19H12.25V20.5H6.25V19ZM12.25 19C13.4926 19 14.5 17.9926 14.5 16.75H16C16 18.8211 14.3211 20.5 12.25 20.5V19ZM4 16.75C4 17.9926 5.00736 19 6.25 19V20.5C4.17893 20.5 2.5 18.8211 2.5 16.75H4ZM6.25 14.5C5.00736 14.5 4 15.5074 4 16.75H2.5C2.5 14.6789 4.17893 13 6.25 13V14.5ZM12.25 13C14.3211 13 16 14.6789 16 16.75H14.5C14.5 15.5074 13.4926 14.5 12.25 14.5V13Z" fill="currentColor"/>
        <path d="M13.4979 10.3887C13.6556 10.1353 13.9515 10 14.25 10C15.4926 10 16.5 8.99264 16.5 7.75C16.5 6.50736 15.4926 5.5 14.25 5.5C13.9515 5.5 13.6556 5.36473 13.4979 5.11135C13.4909 5.10014 13.4839 5.08896 13.4768 5.07782C13.2142 4.66331 13.3473 4.0764 13.835 4.0227C13.9713 4.0077 14.1097 4 14.25 4C16.3211 4 18 5.67893 18 7.75C18 9.82107 16.3211 11.5 14.25 11.5C14.1097 11.5 13.9713 11.4923 13.835 11.4773C13.3473 11.4236 13.2142 10.8367 13.4768 10.4222C13.4839 10.411 13.4909 10.3999 13.4979 10.3887Z" fill="currentColor"/>
        <path d="M16.5417 18.3169C16.6552 18.1275 16.8556 18 17.0764 18H17.25C18.4926 18 19.5 16.9926 19.5 15.75C19.5 14.5074 18.4926 13.5 17.25 13.5H17.0764C16.8556 13.5 16.6552 13.3725 16.5417 13.1831C16.2646 12.7208 16.5653 12 17.1043 12H17.25C19.3211 12 21 13.6789 21 15.75C21 17.8211 19.3211 19.5 17.25 19.5H17.1043C16.5653 19.5 16.2646 18.7792 16.5417 18.3169Z" fill="currentColor"/>
    </symbol>
    
    <symbol viewBox="0 0 24 24" fill="none" id="messages">
        <path d="M14.8532 18.8449C16.6394 16.1283 16.339 12.4404 13.9521 10.0504C11.5451 7.64038 7.81971 7.35488 5.10034 9.19395M14.8532 18.8449C14.5961 19.2359 14.2957 19.6068 13.9521 19.9508C12.3638 21.5411 8.99563 22.9161 6.26196 21.2246C6.10983 21.1305 6.03377 21.0834 5.97625 21.0606C5.86629 21.017 5.78289 21.0044 5.66496 21.0135C5.60329 21.0183 5.53341 21.0364 5.39365 21.0727C4.51422 21.3009 4.0745 21.415 3.75772 21.3505C3.2079 21.2384 2.77821 20.8082 2.66631 20.2577C2.60184 19.9405 2.71581 19.5002 2.94375 18.6197C2.97998 18.4797 2.9981 18.4098 3.00285 18.3478C3.0119 18.2297 2.99904 18.1453 2.95528 18.0352C2.93232 17.9775 2.88538 17.9019 2.7915 17.7506C1.09634 15.0195 2.40825 11.7085 4.06419 10.0504C4.38764 9.72658 4.73491 9.44108 5.10034 9.19395M14.8532 18.8449L15 18.8198C15.6216 18.6705 16.2353 18.4232 16.8248 18.0585C17.0095 17.9441 17.1019 17.887 17.1717 17.8593C17.3052 17.8064 17.4065 17.791 17.5497 17.8021C17.6246 17.8079 17.7094 17.8299 17.8791 17.874C18.947 18.1511 19.481 18.2897 19.8656 18.2113C20.5333 18.0753 21.055 17.5528 21.1909 16.8843C21.2692 16.4992 21.1308 15.9646 20.854 14.8954C20.81 14.7254 20.788 14.6404 20.7823 14.5652C20.7713 14.4218 20.7869 14.3192 20.84 14.1856C20.8679 14.1155 20.9249 14.0237 21.0389 13.8401C23.0973 10.5236 21.5043 6.50314 19.4935 4.48982C16.1779 1.17006 10.8023 1.17006 7.48669 4.48982C6.1619 5.81628 5.36645 7.47204 5.10034 9.19395" stroke="currentColor" stroke-width="1.5"/>
        <path d="M11 15C11 15.5523 11.4477 16 12 16C12.5523 16 13 15.5523 13 15C13 14.4477 12.5523 14 12 14C11.4477 14 11 14.4477 11 15Z" fill="currentColor"/>
        <path d="M8 15C8 15.5523 8.44772 16 9 16C9.55228 16 10 15.5523 10 15C10 14.4477 9.55228 14 9 14C8.44772 14 8 14.4477 8 15Z" fill="currentColor"/>
        <path d="M5 15C5 15.5523 5.44772 16 6 16C6.55228 16 7 15.5523 7 15C7 14.4477 6.55228 14 6 14C5.44772 14 5 14.4477 5 15Z" fill="currentColor"/>
    </symbol>

    <symbol viewBox="0 0 24 24" fill="currentColor" id="profile">
        <path d="M15.25 9C15.25 10.7949 13.7949 12.25 12 12.25V13.75C14.6234 13.75 16.75 11.6234 16.75 9H15.25ZM12 12.25C10.2051 12.25 8.75 10.7949 8.75 9H7.25C7.25 11.6234 9.37665 13.75 12 13.75V12.25ZM8.75 9C8.75 7.20507 10.2051 5.75 12 5.75V4.25C9.37665 4.25 7.25 6.37665 7.25 9H8.75ZM12 5.75C13.7949 5.75 15.25 7.20507 15.25 9H16.75C16.75 6.37665 14.6234 4.25 12 4.25V5.75ZM9 16.75H15V15.25H9V16.75ZM2.75 12C2.75 6.89137 6.89137 2.75 12 2.75V1.25C6.06294 1.25 1.25 6.06294 1.25 12H2.75ZM12 2.75C17.1086 2.75 21.25 6.89137 21.25 12H22.75C22.75 6.06294 17.9371 1.25 12 1.25V2.75ZM21.25 12C21.25 14.6233 20.159 16.9905 18.4039 18.6748L19.4425 19.7571C21.4801 17.8016 22.75 15.0485 22.75 12H21.25ZM18.4039 18.6748C16.7412 20.2705 14.4858 21.25 12 21.25V22.75C14.8882 22.75 17.5117 21.61 19.4425 19.7571L18.4039 18.6748ZM15 16.75C16.576 16.75 17.8915 17.8726 18.1876 19.3621L19.6588 19.0697C19.226 16.8918 17.3055 15.25 15 15.25V16.75ZM12 21.25C9.51425 21.25 7.25884 20.2705 5.59612 18.6748L4.55751 19.7571C6.48833 21.61 9.11182 22.75 12 22.75V21.25ZM5.59612 18.6748C3.84103 16.9905 2.75 14.6233 2.75 12H1.25C1.25 15.0485 2.51989 17.8016 4.55751 19.7571L5.59612 18.6748ZM9 15.25C6.69445 15.25 4.77403 16.8918 4.3412 19.0697L5.81243 19.3621C6.10846 17.8726 7.42396 16.75 9 16.75V15.25Z"/>
    </symbol>

    <symbol viewBox="0 0 24 24" stroke="currentColor" fill="none" id="logout">
        <path d="M18 4C20.3903 5.8273 22 8.75893 22 12C22 17.5228 17.5228 22 12 22C6.47715 22 2 17.5228 2 12C2 8.72852 3.57131 5.82443 6 4M12 2V9" stroke-width="1.5" stroke-linecap="round"/>
    </symbol>
    
    <symbol viewBox="0 0 24 24" fill="currentColor" id="setting">
        <path d="M5.93188 5.38642L5.74952 6.11391L5.93188 5.38642ZM9.30644 3.43812L8.58523 3.2323L9.30644 3.43812ZM3.23837 10.0517L3.77722 9.53005L3.23837 10.0517ZM3.23837 13.9483L2.69952 13.4266H2.69952L3.23837 13.9483ZM5.93188 18.6136L6.11423 19.3411L5.93188 18.6136ZM9.30644 20.5619L8.58523 20.7677L9.30644 20.5619ZM14.6935 20.5619L15.4147 20.7677L14.6935 20.5619ZM18.068 18.6136L18.2504 17.8861L18.068 18.6136ZM20.7615 13.9483L20.2227 14.47V14.47L20.7615 13.9483ZM20.7615 10.0517L20.2227 9.53005V9.53005L20.7615 10.0517ZM18.068 5.38642L17.8857 4.65893L18.068 5.38642ZM14.6935 3.43812L15.4147 3.2323L14.6935 3.43812ZM5.74952 6.11391C7.60843 6.57987 9.50172 5.48678 10.0276 3.64394L8.58523 3.2323C8.28146 4.2967 7.18792 4.92806 6.11423 4.65893L5.74952 6.11391ZM3.77722 9.53005C2.34195 8.04752 3.74798 5.6122 5.74952 6.11391L6.11423 4.65893C2.6489 3.7903 0.214599 8.00664 2.69952 10.5734L3.77722 9.53005ZM3.77722 14.47C5.1102 13.0931 5.1102 10.9069 3.77722 9.53005L2.69952 10.5734C3.46944 11.3687 3.46944 12.6314 2.69952 13.4266L3.77722 14.47ZM5.74952 17.8861C3.74798 18.3878 2.34195 15.9525 3.77722 14.47L2.69952 13.4266C0.214598 15.9934 2.6489 20.2097 6.11423 19.3411L5.74952 17.8861ZM10.0276 20.3561C9.50172 18.5133 7.60843 17.4202 5.74952 17.8861L6.11423 19.3411C7.18792 19.072 8.28146 19.7033 8.58523 20.7677L10.0276 20.3561ZM13.9722 20.3561C13.406 22.3403 10.5939 22.3403 10.0276 20.3561L8.58523 20.7677C9.56564 24.2031 14.4342 24.2031 15.4147 20.7677L13.9722 20.3561ZM18.2504 17.8861C16.3915 17.4202 14.4982 18.5133 13.9722 20.3561L15.4147 20.7677C15.7184 19.7033 16.812 19.072 17.8857 19.3411L18.2504 17.8861ZM20.2227 14.47C21.6579 15.9525 20.2519 18.3878 18.2504 17.8861L17.8857 19.3411C21.351 20.2097 23.7853 15.9934 21.3004 13.4266L20.2227 14.47ZM20.2227 9.53005C18.8897 10.9069 18.8897 13.0931 20.2227 14.47L21.3004 13.4266C20.5305 12.6314 20.5305 11.3687 21.3004 10.5734L20.2227 9.53005ZM18.2504 6.11391C20.2519 5.6122 21.6579 8.04752 20.2227 9.53005L21.3004 10.5734C23.7853 8.00664 21.351 3.7903 17.8857 4.65893L18.2504 6.11391ZM13.9722 3.64394C14.4982 5.48678 16.3915 6.57987 18.2504 6.11391L17.8857 4.65893C16.812 4.92806 15.7184 4.2967 15.4147 3.2323L13.9722 3.64394ZM15.4147 3.2323C14.4342 -0.203084 9.56564 -0.203083 8.58523 3.2323L10.0276 3.64394C10.5939 1.6597 13.406 1.6597 13.9722 3.64394L15.4147 3.2323ZM8.24994 12C8.24994 14.0711 9.92888 15.75 11.9999 15.75V14.25C10.7573 14.25 9.74994 13.2427 9.74994 12H8.24994ZM11.9999 15.75C14.071 15.75 15.7499 14.0711 15.7499 12H14.2499C14.2499 13.2427 13.2426 14.25 11.9999 14.25V15.75ZM15.7499 12C15.7499 9.92895 14.071 8.25001 11.9999 8.25001V9.75002C13.2426 9.75002 14.2499 10.7574 14.2499 12H15.7499ZM11.9999 8.25001C9.92888 8.25001 8.24994 9.92895 8.24994 12H9.74994C9.74994 10.7574 10.7573 9.75002 11.9999 9.75002V8.25001Z"/>
    </symbol>
    
    <symbol viewBox="0 0 24 24" id="edit">
        <path d="M16.2041 4.5755L16.2941 4.6275C17.0723 5.07671 17.7211 5.4513 18.1962 5.81795C18.6977 6.20494 19.0957 6.64914 19.2625 7.27132C19.4292 7.8935 19.3066 8.4772 19.0658 9.06309C18.8986 9.46976 18.6529 9.92674 18.3567 10.448L17.7214 10.0704L17.7132 10.0656L10.7879 6.06728L10.1403 5.68557C10.4404 5.17448 10.7107 4.73795 10.9769 4.393C11.3639 3.89152 11.8081 3.49349 12.4303 3.32678C13.0525 3.16006 13.6362 3.28267 14.2221 3.52347C14.7771 3.7516 15.426 4.12624 16.2041 4.5755Z" fill="currentColor"/>
        <path d="M9.38884 6.98384L5.91087 13.0077C5.61308 13.5225 5.37762 13.9296 5.29039 14.3926C5.20315 14.8556 5.27434 15.3204 5.36437 15.9083L5.38862 16.0672C5.55481 17.1586 5.69179 18.0581 5.89839 18.7403C6.11446 19.4537 6.44662 20.0712 7.09989 20.4484C7.75316 20.8256 8.45402 20.8045 9.17991 20.6349C9.87398 20.4727 10.7215 20.1416 11.7497 19.7398L11.8995 19.6814C12.4536 19.4654 12.8918 19.2946 13.2491 18.9876C13.6065 18.6805 13.8413 18.2731 14.1382 17.7578L17.6079 11.7479L16.9591 11.3623L10.0292 7.36127L9.38884 6.98384Z" fill="currentColor"/>
    </symbol>

    <symbol viewBox="0 0 24 24" id="user-add">
        <path d="M12.25 6C12.25 7.79493 10.7949 9.25 9 9.25V10.75C11.6234 10.75 13.75 8.62335 13.75 6H12.25ZM9 9.25C7.20507 9.25 5.75 7.79493 5.75 6H4.25C4.25 8.62335 6.37665 10.75 9 10.75V9.25ZM5.75 6C5.75 4.20507 7.20507 2.75 9 2.75V1.25C6.37665 1.25 4.25 3.37665 4.25 6H5.75ZM9 2.75C10.7949 2.75 12.25 4.20507 12.25 6H13.75C13.75 3.37665 11.6234 1.25 9 1.25V2.75ZM6 13.75H12V12.25H6V13.75ZM12 20.25H6V21.75H12V20.25ZM6 20.25C4.20507 20.25 2.75 18.7949 2.75 17H1.25C1.25 19.6234 3.37665 21.75 6 21.75V20.25ZM15.25 17C15.25 18.7949 13.7949 20.25 12 20.25V21.75C14.6234 21.75 16.75 19.6234 16.75 17H15.25ZM12 13.75C13.7949 13.75 15.25 15.2051 15.25 17H16.75C16.75 14.3766 14.6234 12.25 12 12.25V13.75ZM6 12.25C3.37665 12.25 1.25 14.3766 1.25 17H2.75C2.75 15.2051 4.20507 13.75 6 13.75V12.25Z" fill="currentColor"/>
        <path d="M19 8V14M16 11H22" stroke="#43a0ff" stroke-width="1.5" stroke-linecap="round"/>
    </symbol>

    <symbol viewBox="0 0 24 24" fill="none" id="star">
        <path d="M8.72505 4.335C9.75586 1.22167 14.2441 1.22167 15.275 4.335C15.7359 5.72732 17.0581 6.66999 18.5499 6.66999C21.8857 6.66999 23.2727 10.8589 20.5739 12.7831C19.367 13.6436 18.862 15.1689 19.323 16.5612C20.3538 19.6745 16.7227 22.2634 14.024 20.3393C12.8171 19.4788 11.1829 19.4788 9.97597 20.3393C7.27725 22.2634 3.64616 19.6745 4.67698 16.5612C5.13797 15.1689 4.63296 13.6436 3.42606 12.7831C0.727347 10.8589 2.1143 6.66999 5.45009 6.66999C6.9419 6.66999 8.26405 5.72732 8.72505 4.335Z" stroke="currentColor" stroke-width="1.5"/>
    </symbol>

    <symbol viewBox="0 0 24 24" fill="none" id="close">
        <path d="M5 5L19 19M5.00003 19L12 12L19 5" stroke="currentColor" stroke-width="1.5" stroke-linecap="round"/>
    </symbol>

    <symbol viewBox="0 0 24 24" fill="none" id="search">
        <path d="M19.5304 17.4698C19.2375 17.1769 18.7626 17.1769 18.4697 17.4698C18.1768 17.7626 18.1768 18.2375 18.4697 18.5304L19.5304 17.4698ZM22.4696 22.5304C22.7625 22.8233 23.2374 22.8233 23.5303 22.5304C23.8232 22.2375 23.8232 21.7626 23.5303 21.4697L22.4696 22.5304ZM18.4697 18.5304L22.4696 22.5304L23.5303 21.4697L19.5304 17.4698L18.4697 18.5304ZM11 18.25C6.44365 18.25 2.75 14.5563 2.75 10H1.25C1.25 15.3848 5.61522 19.75 11 19.75V18.25ZM19.25 10C19.25 14.5563 15.5563 18.25 11 18.25V19.75C16.3848 19.75 20.75 15.3848 20.75 10H19.25ZM11 1.75C15.5563 1.75 19.25 5.44365 19.25 10H20.75C20.75 4.61522 16.3848 0.25 11 0.25V1.75ZM11 0.25C5.61522 0.25 1.25 4.61522 1.25 10H2.75C2.75 5.44365 6.44365 1.75 11 1.75V0.25Z" fill="currentColor"/>
    </symbol>

    <symbol viewBox="0 0 24 24" fill="none" id="add">
        <path d="M5.06107 20.0451L5.50191 19.4383L5.06107 20.0451ZM3.95491 18.9389L4.56168 18.4981L3.95491 18.9389ZM20.0451 18.9389L19.4383 18.4981L20.0451 18.9389ZM18.9389 20.0451L18.4981 19.4383L18.9389 20.0451ZM18.9389 3.95491L18.4981 4.56168L18.9389 3.95491ZM20.0451 5.06107L19.4383 5.50191L20.0451 5.06107ZM5.06107 3.95491L5.50191 4.56168L5.06107 3.95491ZM3.95491 5.06107L4.56168 5.50191L3.95491 5.06107ZM12 20.25C10.1084 20.25 8.74999 20.249 7.69804 20.135C6.66013 20.0225 6.00992 19.8074 5.50191 19.4383L4.62023 20.6518C5.42656 21.2377 6.37094 21.5 7.53648 21.6263C8.68798 21.751 10.1418 21.75 12 21.75V20.25ZM2.25 12C2.25 13.8582 2.24897 15.312 2.37373 16.4635C2.50001 17.6291 2.76232 18.5734 3.34815 19.3798L4.56168 18.4981C4.19259 17.9901 3.97745 17.3399 3.865 16.302C3.75103 15.25 3.75 13.8916 3.75 12H2.25ZM5.50191 19.4383C5.14111 19.1762 4.82382 18.8589 4.56168 18.4981L3.34815 19.3798C3.70281 19.8679 4.13209 20.2972 4.62023 20.6518L5.50191 19.4383ZM20.25 12C20.25 13.8916 20.249 15.25 20.135 16.302C20.0225 17.3399 19.8074 17.9901 19.4383 18.4981L20.6518 19.3798C21.2377 18.5734 21.5 17.6291 21.6263 16.4635C21.751 15.312 21.75 13.8582 21.75 12H20.25ZM12 21.75C13.8582 21.75 15.312 21.751 16.4635 21.6263C17.6291 21.5 18.5734 21.2377 19.3798 20.6518L18.4981 19.4383C17.9901 19.8074 17.3399 20.0225 16.302 20.135C15.25 20.249 13.8916 20.25 12 20.25V21.75ZM19.4383 18.4981C19.1762 18.8589 18.8589 19.1762 18.4981 19.4383L19.3798 20.6518C19.8679 20.2972 20.2972 19.8679 20.6518 19.3798L19.4383 18.4981ZM12 3.75C13.8916 3.75 15.25 3.75103 16.302 3.865C17.3399 3.97745 17.9901 4.19259 18.4981 4.56168L19.3798 3.34815C18.5734 2.76232 17.6291 2.50001 16.4635 2.37373C15.312 2.24897 13.8582 2.25 12 2.25V3.75ZM21.75 12C21.75 10.1418 21.751 8.68798 21.6263 7.53648C21.5 6.37094 21.2377 5.42656 20.6518 4.62023L19.4383 5.50191C19.8074 6.00992 20.0225 6.66013 20.135 7.69804C20.249 8.74999 20.25 10.1084 20.25 12H21.75ZM18.4981 4.56168C18.8589 4.82382 19.1762 5.14111 19.4383 5.50191L20.6518 4.62023C20.2972 4.13209 19.8679 3.70281 19.3798 3.34815L18.4981 4.56168ZM12 2.25C10.1418 2.25 8.68798 2.24897 7.53648 2.37373C6.37094 2.50001 5.42656 2.76232 4.62023 3.34815L5.50191 4.56168C6.00992 4.19259 6.66013 3.97745 7.69804 3.865C8.74999 3.75103 10.1084 3.75 12 3.75V2.25ZM3.75 12C3.75 10.1084 3.75103 8.74999 3.865 7.69804C3.97745 6.66013 4.19259 6.00992 4.56168 5.50191L3.34815 4.62023C2.76232 5.42656 2.50001 6.37094 2.37373 7.53648C2.24897 8.68798 2.25 10.1418 2.25 12H3.75ZM4.62023 3.34815C4.13209 3.70281 3.70281 4.13209 3.34815 4.62023L4.56168 5.50191C4.82382 5.14111 5.14111 4.82382 5.50191 4.56168L4.62023 3.34815Z" fill="currentColor"/>
        <path d="M9 12H15M12 9V15" stroke="#43a0ff" stroke-width="1.5" stroke-linecap="round"/>
    </symbol>

    <symbol viewBox="0 0 24 24" fill="none" id="check">
        <path d="M5.06107 20.0451C6.3754 21 8.25027 21 12 21C15.7497 21 17.6246 21 18.9389 20.0451C19.3634 19.7367 19.7367 19.3634 20.0451 18.9389C21 17.6246 21 15.7497 21 12C21 8.25027 21 6.3754 20.0451 5.06107C19.7367 4.6366 19.3634 4.26331 18.9389 3.95491C17.6246 3 15.7497 3 12 3C8.25027 3 6.3754 3 5.06107 3.95491C4.6366 4.26331 4.26331 4.6366 3.95491 5.06107C3 6.3754 3 8.25027 3 12C3 15.7497 3 17.6246 3.95491 18.9389C4.26331 19.3634 4.6366 19.7367 5.06107 20.0451Z" stroke="currentColor" stroke-width="1.5" stroke-linecap="round"/>
        <path d="M17 9L13.6308 12.7632C12.2957 14.2544 11.6282 15 10.75 15C9.8718 15 9.20425 14.2544 7.86917 12.7632L7 11.7924" stroke="#70cf97" stroke-width="1.5" stroke-linecap="round"/>
    </symbol>

    <symbol viewBox="0 0 24 24" fill="none" id="add-message">
        <path d="M19.0944 19.0711C16.8228 21.3427 12.0054 23.3067 8.09562 20.8906C7.87804 20.7561 7.76925 20.6889 7.68699 20.6563C7.52971 20.594 7.41043 20.576 7.24178 20.589C7.15356 20.5958 7.05362 20.6217 6.85373 20.6736C5.59593 20.9996 4.96704 21.1626 4.51396 21.0704C3.72759 20.9103 3.11302 20.2958 2.95298 19.5094C2.86078 19.0563 3.02378 18.4274 3.34979 17.1696C3.40161 16.9697 3.42752 16.8697 3.43431 16.7812C3.44725 16.6126 3.42886 16.4919 3.36627 16.3347C3.33344 16.2523 3.2663 16.1442 3.13203 15.9282C0.707556 12.0269 2.58389 7.29732 4.95228 4.92893C8.85752 1.02369 15.1892 1.02369 19.0944 4.92893C22.9997 8.83418 22.9997 15.1658 19.0944 19.0711Z" stroke="currentColor" stroke-width="1.5"/>
        <path d="M9.05273 11.8579C9.05273 12.4102 8.60502 12.8579 8.05273 12.8579C7.50045 12.8579 7.05273 12.4102 7.05273 11.8579C7.05273 11.3056 7.50045 10.8579 8.05273 10.8579C8.60502 10.8579 9.05273 11.3056 9.05273 11.8579Z" fill="#43a0ff"/>
        <path d="M13.0527 11.8579C13.0527 12.4102 12.605 12.8579 12.0527 12.8579C11.5004 12.8579 11.0527 12.4102 11.0527 11.8579C11.0527 11.3056 11.5004 10.8579 12.0527 10.8579C12.605 10.8579 13.0527 11.3056 13.0527 11.8579Z" fill="#43a0ff"/>
        <path d="M17.0527 11.8579C17.0527 12.4102 16.605 12.8579 16.0527 12.8579C15.5005 12.8579 15.0527 12.4102 15.0527 11.8579C15.0527 11.3056 15.5005 10.8579 16.0527 10.8579C16.605 10.8579 17.0527 11.3056 17.0527 11.8579Z" fill="#43a0ff"/>
    </symbol>

    <symbol viewBox="0 0 24 24" fill="none" id="delete">
        <path d="M18.5172 12.7795L19.26 12.8829L19.26 12.8829L18.5172 12.7795ZM18.2549 14.6645L18.9977 14.7679L18.9977 14.7679L18.2549 14.6645ZM5.74514 14.6645L6.48798 14.5611L6.48798 14.5611L5.74514 14.6645ZM5.4828 12.7795L4.73996 12.8829L4.73996 12.8829L5.4828 12.7795ZM9.18365 21.7368L8.89206 22.4278L8.89206 22.4278L9.18365 21.7368ZM6.47508 18.5603L7.17907 18.3017L7.17907 18.3017L6.47508 18.5603ZM17.5249 18.5603L18.2289 18.819L18.2289 18.819L17.5249 18.5603ZM14.8164 21.7368L14.5248 21.0458L14.5248 21.0458L14.8164 21.7368ZM5.74664 8.92906C5.70746 8.5167 5.34142 8.21418 4.92906 8.25336C4.5167 8.29254 4.21418 8.65858 4.25336 9.07094L5.74664 8.92906ZM19.7466 9.07094C19.7858 8.65858 19.4833 8.29254 19.0709 8.25336C18.6586 8.21418 18.2925 8.5167 18.2534 8.92906L19.7466 9.07094ZM20 7.75C20.4142 7.75 20.75 7.41421 20.75 7C20.75 6.58579 20.4142 6.25 20 6.25V7.75ZM4 6.25C3.58579 6.25 3.25 6.58579 3.25 7C3.25 7.41421 3.58579 7.75 4 7.75V6.25ZM16 7V7.75H16.75V7H16ZM8 7H7.25V7.75H8V7ZM17.7744 12.6761L17.512 14.5611L18.9977 14.7679L19.26 12.8829L17.7744 12.6761ZM6.48798 14.5611L6.22564 12.6761L4.73996 12.8829L5.0023 14.7679L6.48798 14.5611ZM12 21.25C10.4708 21.25 9.92544 21.2358 9.47524 21.0458L8.89206 22.4278C9.68914 22.7642 10.6056 22.75 12 22.75V21.25ZM5.0023 14.7679C5.282 16.7777 5.43406 17.9017 5.77109 18.819L7.17907 18.3017C6.91156 17.5736 6.77851 16.6488 6.48798 14.5611L5.0023 14.7679ZM9.47524 21.0458C8.55279 20.6566 7.69496 19.7058 7.17907 18.3017L5.77109 18.819C6.3857 20.4918 7.48205 21.8328 8.89206 22.4278L9.47524 21.0458ZM17.512 14.5611C17.2215 16.6488 17.0884 17.5736 16.8209 18.3017L18.2289 18.819C18.5659 17.9017 18.718 16.7777 18.9977 14.7679L17.512 14.5611ZM12 22.75C13.3944 22.75 14.3109 22.7642 15.1079 22.4278L14.5248 21.0458C14.0746 21.2358 13.5292 21.25 12 21.25V22.75ZM16.8209 18.3017C16.305 19.7058 15.4472 20.6566 14.5248 21.0458L15.1079 22.4278C16.5179 21.8328 17.6143 20.4918 18.2289 18.819L16.8209 18.3017ZM6.22564 12.6761C6.00352 11.08 5.83766 9.88703 5.74664 8.92906L4.25336 9.07094C4.34819 10.069 4.51961 11.2995 4.73996 12.8829L6.22564 12.6761ZM19.26 12.8829C19.4804 11.2995 19.6518 10.069 19.7466 9.07094L18.2534 8.92906C18.1623 9.88702 17.9965 11.08 17.7744 12.6761L19.26 12.8829ZM20 6.25H4V7.75H20V6.25ZM15.25 6V7H16.75V6H15.25ZM16 6.25H8V7.75H16V6.25ZM8.75 7V6H7.25V7H8.75ZM12 2.75C13.7949 2.75 15.25 4.20507 15.25 6H16.75C16.75 3.37665 14.6234 1.25 12 1.25V2.75ZM12 1.25C9.37665 1.25 7.25 3.37665 7.25 6H8.75C8.75 4.20507 10.2051 2.75 12 2.75V1.25Z" fill="currentColor"/>
    </symbol>

    <symbol viewBox="0 0 24 24" fill="none" id="new-chat">
        <path d="M9.53118 19.0199L9.25825 18.3213L9.53118 19.0199ZM5.47478 19.7988L5.09978 20.4483L5.09978 20.4483L5.47478 19.7988ZM4.12116 15.8964L3.37971 16.0093L4.12116 15.8964ZM4.61146 13.2941L5.26098 13.6691L4.61146 13.2941ZM4.02731 14.5314L3.29028 14.3925L3.29028 14.3925L4.02731 14.5314ZM11.5397 17.2941L12.1892 17.6691L11.5397 17.2941ZM10.7602 18.4186L11.249 18.9875L11.249 18.9875L10.7602 18.4186ZM8.4099 6.71503L7.76038 6.34003L8.4099 6.71503ZM14.6886 10.34L10.8901 16.9191L12.1892 17.6691L15.9876 11.09L14.6886 10.34ZM5.26098 13.6691L9.05942 7.09003L7.76038 6.34003L3.96194 12.9191L5.26098 13.6691ZM9.25825 18.3213C8.16178 18.7497 7.41502 19.0394 6.83854 19.1741C6.28167 19.3042 6.02898 19.2527 5.84978 19.1493L5.09978 20.4483C5.75305 20.8255 6.45392 20.8044 7.17981 20.6348C7.88609 20.4698 8.75129 20.1298 9.80411 19.7184L9.25825 18.3213ZM3.37971 16.0093C3.5499 17.1267 3.68805 18.046 3.89829 18.7402C4.11436 19.4536 4.44651 20.0712 5.09978 20.4483L5.84978 19.1493C5.67059 19.0458 5.49965 18.8527 5.33389 18.3054C5.16229 17.7388 5.03986 16.9472 4.86261 15.7835L3.37971 16.0093ZM3.96194 12.9191C3.64012 13.4765 3.38246 13.9033 3.29028 14.3925L4.76434 14.6702C4.7983 14.49 4.88802 14.3151 5.26098 13.6691L3.96194 12.9191ZM4.86261 15.7835C4.7503 15.046 4.73039 14.8505 4.76434 14.6702L3.29028 14.3925C3.1981 14.8817 3.2828 15.373 3.37971 16.0093L4.86261 15.7835ZM10.8901 16.9191C10.5172 17.5651 10.4105 17.7303 10.2715 17.8498L11.249 18.9875C11.6266 18.6631 11.8674 18.2265 12.1892 17.6691L10.8901 16.9191ZM9.80411 19.7184C10.4036 19.4842 10.8714 19.3119 11.249 18.9875L10.2715 17.8498C10.1324 17.9693 9.95303 18.0498 9.25825 18.3213L9.80411 19.7184ZM13.499 5.90045C14.3339 6.38245 14.8939 6.70761 15.2797 7.00537C15.6483 7.28983 15.7658 7.48144 15.8135 7.65945L17.2623 7.27123C17.0956 6.64904 16.6976 6.20485 16.1961 5.81785C15.7119 5.44416 15.0471 5.06221 14.249 4.60141L13.499 5.90045ZM15.9876 11.09C16.4484 10.2919 16.8331 9.62875 17.0657 9.063C17.3065 8.47711 17.4291 7.89341 17.2623 7.27123L15.8135 7.65945C15.8612 7.83747 15.8553 8.06212 15.6783 8.49278C15.493 8.94357 15.1706 9.50517 14.6886 10.34L15.9876 11.09ZM14.249 4.60141C13.4509 4.1406 12.7877 3.7559 12.222 3.52337C11.6361 3.28257 11.0524 3.15997 10.4302 3.32668L10.8184 4.77557C10.9964 4.72787 11.2211 4.73376 11.6518 4.91076C12.1025 5.09604 12.6641 5.41844 13.499 5.90045L14.249 4.60141ZM9.05942 7.09003C9.54142 6.25517 9.86658 5.69516 10.1643 5.30931C10.4488 4.9407 10.6404 4.82327 10.8184 4.77557L10.4302 3.32668C9.80802 3.49339 9.36382 3.89142 8.97683 4.39291C8.60313 4.87716 8.22118 5.54189 7.76038 6.34003L9.05942 7.09003ZM15.7131 10.0655L8.7849 6.06551L8.0349 7.36455L14.9631 11.3645L15.7131 10.0655Z" fill="currentColor"/>
        <path d="M20 20.75C20.4142 20.75 20.75 20.4142 20.75 20C20.75 19.5858 20.4142 19.25 20 19.25V20.75ZM14 19.25C13.5858 19.25 13.25 19.5858 13.25 20C13.25 20.4142 13.5858 20.75 14 20.75V19.25ZM20 19.25H14V20.75H20V19.25Z" fill="#43a0ff"/>
    </symbol>

    <symbol viewBox="0 0 24 24" fill="none" id="menu">
        <path d="M14 12C14 13.1046 13.1046 14 12 14C10.8954 14 10 13.1046 10 12C10 10.8954 10.8954 10 12 10C13.1046 10 14 10.8954 14 12Z" stroke="currentColor" stroke-width="1.5"/>
        <path d="M14 4C14 5.10457 13.1046 6 12 6C10.8954 6 10 5.10457 10 4C10 2.89543 10.8954 2 12 2C13.1046 2 14 2.89543 14 4Z" stroke="currentColor" stroke-width="1.5"/>
        <path d="M14 20C14 21.1046 13.1046 22 12 22C10.8954 22 10 21.1046 10 20C10 18.8954 10.8954 18 12 18C13.1046 18 14 18.8954 14 20Z" stroke="currentColor" stroke-width="1.5"/>
    </symbol>

    <symbol viewBox="0 0 24 24" fill="none" id="volume-off">
        <path d="M4.75 20L20.7499 4" stroke="currentColor" stroke-width="1.5" stroke-linecap="round"/>
        <path d="M11.138 7.59741C12.3658 6.58542 13.2306 5.87463 13.913 5.44414C14.6084 5.00545 14.9194 4.98763 15.0998 5.04022C15.2258 5.07693 15.3452 5.13326 15.4536 5.20711C15.6089 5.31289 15.793 5.5642 15.8967 6.37985C15.9492 6.79224 15.975 7.28932 15.9877 7.89198C16.0017 8.55521 16.8018 8.8876 17.2709 8.41852C17.413 8.27638 17.4921 8.08272 17.4879 7.88175C17.4743 7.23246 17.4455 6.66856 17.3847 6.19058C17.2699 5.28798 17.0169 4.4569 16.298 3.96731C16.0594 3.80483 15.7967 3.68092 15.5195 3.60014C14.6845 3.35675 13.8822 3.69003 13.1127 4.17549C12.3398 4.66305 11.4018 5.43617 10.2282 6.40346L9.18797 7.26075C8.98851 7.42515 8.90785 7.49135 8.82791 7.55092C8.15104 8.05531 7.3393 8.34671 6.49617 8.38798C6.3966 8.39285 6.29225 8.39306 6.03377 8.39306L5.9922 8.39305C5.76938 8.39299 5.5977 8.39294 5.44421 8.41011C4.16758 8.55296 3.15992 9.56062 3.01707 10.8373C2.9999 10.9907 2.99994 11.1624 3.00001 11.3852V12.6152C2.99994 12.838 2.9999 13.0097 3.01707 13.1631C3.15992 14.4398 4.16758 15.4474 5.44421 15.5903C5.59771 15.6075 5.76939 15.6074 5.99221 15.6074L6.03377 15.6073C6.29225 15.6073 6.3966 15.6075 6.49617 15.6124C7.3393 15.6537 8.15104 15.9451 8.82791 16.4495C8.96136 16.5489 9.14704 16.5424 9.26472 16.4247L9.76151 15.928C9.95528 15.7342 9.94394 15.4104 9.7242 15.2467C8.80843 14.5643 7.71019 14.17 6.56949 14.1142C6.42886 14.1073 6.28609 14.1073 6.05402 14.1073H6.03377C5.74997 14.1073 5.66982 14.1062 5.61101 14.0996C5.03072 14.0347 4.5727 13.5766 4.50777 12.9963C4.50119 12.9375 4.50002 12.8574 4.50002 12.5736V11.4268C4.50002 11.143 4.50119 11.0629 4.50777 11.0041C4.5727 10.4238 5.03072 9.96574 5.61101 9.90081C5.66982 9.89423 5.74997 9.89306 6.03377 9.89306H6.05403C6.28607 9.89306 6.42887 9.89307 6.56949 9.88618C7.71019 9.83036 8.80843 9.43611 9.7242 8.7537C9.83711 8.66956 9.94728 8.57876 10.1264 8.43115L11.138 7.59741Z" fill="currentColor"/>
        <path d="M11.8122 16.9575C11.5133 16.7127 11.0774 16.7333 10.8043 17.0065L10.2275 17.5833C10.2236 17.5871 10.2239 17.5935 10.2281 17.5969C11.4018 18.5642 12.3398 19.3373 13.1127 19.8249C13.8822 20.3104 14.6845 20.6436 15.5195 20.4003C15.7967 20.3195 16.0594 20.1956 16.298 20.0331C17.0169 19.5435 17.2699 18.7124 17.3847 17.8098C17.5 16.9033 17.5 15.6877 17.5 14.1669V12.1214C17.5 11.4532 16.6922 11.1186 16.2197 11.5911C16.079 11.7317 16 11.9225 16 12.1214V14.1096C16 15.7008 15.9985 16.8202 15.8967 17.6206C15.793 18.4362 15.6089 18.6875 15.4536 18.7933C15.3452 18.8671 15.2258 18.9235 15.0998 18.9602C14.9194 19.0128 14.6084 18.995 13.913 18.5563C13.3628 18.2092 12.6941 17.6799 11.8122 16.9575Z" fill="currentColor"/>
    </symbol>

    <symbol viewBox="0 0 24 24" fill="none" id="volume-on">
        <path d="M20 15.7312L20.4 15.3312C20.4599 15.2714 20.4898 15.2415 20.5147 15.2158C22.4003 13.2754 22.4003 10.1871 20.5147 8.2467C20.4898 8.22102 20.4599 8.19109 20.4 8.13124L20 7.73124M8.91496 15.8919L9.91095 16.7128C12.3331 18.7091 13.5442 19.7072 14.5596 19.4113C14.7612 19.3525 14.9523 19.2624 15.1258 19.1442C16 18.5489 16 16.9795 16 13.8407V9.62183C16 6.48302 16 4.91362 15.1258 4.31825C14.9523 4.20008 14.7612 4.10997 14.5596 4.05122C13.5442 3.75525 12.3331 4.75339 9.91095 6.74968L8.91496 7.57056C8.72104 7.73038 8.62409 7.81029 8.52604 7.88335C7.72972 8.47675 6.77473 8.81958 5.78282 8.86812C5.66069 8.8741 5.53505 8.8741 5.28376 8.8741C5.02022 8.8741 4.88845 8.8741 4.7776 8.8865C3.84914 8.99039 3.11629 9.72323 3.0124 10.6517C3 10.7625 3 10.8943 3 11.1579V12.3046C3 12.5682 3 12.6999 3.0124 12.8108C3.11629 13.7392 3.84914 14.4721 4.7776 14.576C4.88845 14.5884 5.02022 14.5884 5.28376 14.5884C5.53505 14.5884 5.66069 14.5884 5.78282 14.5944C6.77473 14.6429 7.72972 14.9857 8.52604 15.5791C8.62409 15.6522 8.72104 15.7321 8.91496 15.8919Z" stroke="currentColor" stroke-width="1.5" stroke-linecap="round"/>
    </symbol>
    
    <symbol viewBox="0 0 24 24" fill="none" id="category">
        <path d="M4 7C4 6.06812 4 5.60218 4.15224 5.23463C4.35523 4.74458 4.74458 4.35523 5.23463 4.15224C5.60218 4 6.06812 4 7 4C7.93188 4 8.39782 4 8.76537 4.15224C9.25542 4.35523 9.64477 4.74458 9.84776 5.23463C10 5.60218 10 6.06812 10 7C10 7.93188 10 8.39782 9.84776 8.76537C9.64477 9.25542 9.25542 9.64477 8.76537 9.84776C8.39782 10 7.93188 10 7 10C6.06812 10 5.60218 10 5.23463 9.84776C4.74458 9.64477 4.35523 9.25542 4.15224 8.76537C4 8.39782 4 7.93188 4 7Z" stroke="currentColor" stroke-width="1.5"/>
        <path d="M14 7C14 6.06812 14 5.60218 14.1522 5.23463C14.3552 4.74458 14.7446 4.35523 15.2346 4.15224C15.6022 4 16.0681 4 17 4C17.9319 4 18.3978 4 18.7654 4.15224C19.2554 4.35523 19.6448 4.74458 19.8478 5.23463C20 5.60218 20 6.06812 20 7C20 7.93188 20 8.39782 19.8478 8.76537C19.6448 9.25542 19.2554 9.64477 18.7654 9.84776C18.3978 10 17.9319 10 17 10C16.0681 10 15.6022 10 15.2346 9.84776C14.7446 9.64477 14.3552 9.25542 14.1522 8.76537C14 8.39782 14 7.93188 14 7Z" stroke="currentColor" stroke-width="1.5"/>
        <path d="M4 17C4 16.0681 4 15.6022 4.15224 15.2346C4.35523 14.7446 4.74458 14.3552 5.23463 14.1522C5.60218 14 6.06812 14 7 14C7.93188 14 8.39782 14 8.76537 14.1522C9.25542 14.3552 9.64477 14.7446 9.84776 15.2346C10 15.6022 10 16.0681 10 17C10 17.9319 10 18.3978 9.84776 18.7654C9.64477 19.2554 9.25542 19.6448 8.76537 19.8478C8.39782 20 7.93188 20 7 20C6.06812 20 5.60218 20 5.23463 19.8478C4.74458 19.6448 4.35523 19.2554 4.15224 18.7654C4 18.3978 4 17.9319 4 17Z" stroke="currentColor" stroke-width="1.5"/>
        <path d="M14 17C14 16.0681 14 15.6022 14.1522 15.2346C14.3552 14.7446 14.7446 14.3552 15.2346 14.1522C15.6022 14 16.0681 14 17 14C17.9319 14 18.3978 14 18.7654 14.1522C19.2554 14.3552 19.6448 14.7446 19.8478 15.2346C20 15.6022 20 16.0681 20 17C20 17.9319 20 18.3978 19.8478 18.7654C19.6448 19.2554 19.2554 19.6448 18.7654 19.8478C18.3978 20 17.9319 20 17 20C16.0681 20 15.6022 20 15.2346 19.8478C14.7446 19.6448 14.3552 19.2554 14.1522 18.7654C14 18.3978 14 17.9319 14 17Z" stroke="currentColor" stroke-width="1.5"/>
    </symbol>
    
    <symbol viewBox="0 0 24 24" fill="none" id="image">
        <path d="M5.06107 20.0451L5.50191 19.4383L5.06107 20.0451ZM3.95491 18.9389L3.34815 19.3798L3.95491 18.9389ZM20.0451 18.9389L19.4383 18.4981L20.0451 18.9389ZM18.9389 20.0451L18.4981 19.4383L18.9389 20.0451ZM18.9389 3.95491L18.4981 4.56168L18.9389 3.95491ZM20.0451 5.06107L19.4383 5.50191L20.0451 5.06107ZM5.06107 3.95491L5.50191 4.56168L5.06107 3.95491ZM3.95491 5.06107L4.56168 5.50191L3.95491 5.06107ZM4.21965 18.5607L3.54883 18.2253H3.54883L4.21965 18.5607ZM11.5 15L11.724 14.2842L11.6861 14.2724L11.6471 14.2646L11.5 15ZM9.15808 14.653L9.17401 15.4028L9.15808 14.653ZM5.38354 16.4991L4.80143 16.0261L5.38354 16.4991ZM11.6727 15.7714L11.0198 15.4023L11.6727 15.7714ZM8.34708 20.131C8.14326 20.4916 8.27036 20.9491 8.63096 21.1529C8.99156 21.3567 9.44911 21.2296 9.65292 20.869L8.34708 20.131ZM19.5106 13.1101L19.9448 12.4986L19.5106 13.1101ZM12.7358 14.0336L12.1537 13.5606H12.1537L12.7358 14.0336ZM4.10982 18.7804L4.75526 19.1623L4.76878 19.1395L4.78065 19.1158L4.10982 18.7804ZM8.25 9C8.25 10.5188 9.48122 11.75 11 11.75V10.25C10.3096 10.25 9.75 9.69036 9.75 9H8.25ZM11 11.75C12.5188 11.75 13.75 10.5188 13.75 9H12.25C12.25 9.69036 11.6904 10.25 11 10.25V11.75ZM13.75 9C13.75 7.48122 12.5188 6.25 11 6.25V7.75C11.6904 7.75 12.25 8.30964 12.25 9H13.75ZM11 6.25C9.48122 6.25 8.25 7.48122 8.25 9H9.75C9.75 8.30964 10.3096 7.75 11 7.75V6.25ZM12 20.25C10.1084 20.25 8.74999 20.249 7.69804 20.135C6.66013 20.0225 6.00992 19.8074 5.50191 19.4383L4.62023 20.6518C5.42656 21.2377 6.37094 21.5 7.53648 21.6263C8.68798 21.751 10.1418 21.75 12 21.75V20.25ZM2.25 12C2.25 13.8582 2.24897 15.312 2.37373 16.4635C2.50001 17.6291 2.76232 18.5734 3.34815 19.3798L4.56168 18.4981C4.19259 17.9901 3.97745 17.3399 3.865 16.302C3.75103 15.25 3.75 13.8916 3.75 12H2.25ZM12 21.75C13.8582 21.75 15.312 21.751 16.4635 21.6263C17.6291 21.5 18.5734 21.2377 19.3798 20.6518L18.4981 19.4383C17.9901 19.8074 17.3399 20.0225 16.302 20.135C15.25 20.249 13.8916 20.25 12 20.25V21.75ZM19.4383 18.4981C19.1762 18.8589 18.8589 19.1762 18.4981 19.4383L19.3798 20.6518C19.8679 20.2972 20.2972 19.8679 20.6518 19.3798L19.4383 18.4981ZM12 3.75C13.8916 3.75 15.25 3.75103 16.302 3.865C17.3399 3.97745 17.9901 4.19259 18.4981 4.56168L19.3798 3.34815C18.5734 2.76232 17.6291 2.50001 16.4635 2.37373C15.312 2.24897 13.8582 2.25 12 2.25V3.75ZM21.75 12C21.75 10.1418 21.751 8.68798 21.6263 7.53648C21.5 6.37094 21.2377 5.42656 20.6518 4.62023L19.4383 5.50191C19.8074 6.00992 20.0225 6.66013 20.135 7.69804C20.249 8.74999 20.25 10.1084 20.25 12H21.75ZM18.4981 4.56168C18.8589 4.82382 19.1762 5.14111 19.4383 5.50191L20.6518 4.62023C20.2972 4.13209 19.8679 3.70281 19.3798 3.34815L18.4981 4.56168ZM12 2.25C10.1418 2.25 8.68798 2.24897 7.53648 2.37373C6.37094 2.50001 5.42656 2.76232 4.62023 3.34815L5.50191 4.56168C6.00992 4.19259 6.66013 3.97745 7.69804 3.865C8.74999 3.75103 10.1084 3.75 12 3.75V2.25ZM3.75 12C3.75 10.1084 3.75103 8.74999 3.865 7.69804C3.97745 6.66013 4.19259 6.00992 4.56168 5.50191L3.34815 4.62023C2.76232 5.42656 2.50001 6.37094 2.37373 7.53648C2.24897 8.68798 2.25 10.1418 2.25 12H3.75ZM4.62023 3.34815C4.13209 3.70281 3.70281 4.13209 3.34815 4.62023L4.56168 5.50191C4.82382 5.14111 5.14111 4.82382 5.50191 4.56168L4.62023 3.34815ZM11.6471 14.2646C10.4878 14.0327 9.79315 13.8893 9.14216 13.9032L9.17401 15.4028C9.62029 15.3933 10.1211 15.4891 11.3529 15.7354L11.6471 14.2646ZM4.89047 18.8961C5.45225 17.7726 5.68417 17.3184 5.96564 16.972L4.80143 16.0261C4.39085 16.5315 4.07753 17.1679 3.54883 18.2253L4.89047 18.8961ZM9.14216 13.9032C7.45369 13.939 5.86635 14.7154 4.80143 16.0261L5.96564 16.972C6.75276 16.0031 7.92601 15.4293 9.17401 15.4028L9.14216 13.9032ZM11.0198 15.4023L8.34708 20.131L9.65292 20.869L12.3256 16.1404L11.0198 15.4023ZM19.9448 12.4986C17.4737 10.7441 14.0651 11.2087 12.1537 13.5606L13.3178 14.5066C14.7305 12.7683 17.25 12.4249 19.0764 13.7217L19.9448 12.4986ZM12.3256 16.1404C12.4556 15.9105 12.5685 15.7108 12.6693 15.5345L11.3671 14.7899C11.2641 14.9701 11.1492 15.1733 11.0198 15.4023L12.3256 16.1404ZM12.6693 15.5345C12.9887 14.9758 13.1615 14.699 13.3178 14.5066L12.1537 13.5606C11.9086 13.8622 11.6794 14.2437 11.3671 14.7899L12.6693 15.5345ZM11.276 15.7158L11.7942 15.8779L12.2422 14.4464L11.724 14.2842L11.276 15.7158ZM21.5153 13.9547C20.7847 13.224 20.3507 12.7868 19.9448 12.4986L19.0764 13.7217C19.3525 13.9177 19.6771 14.2377 20.4547 15.0153L21.5153 13.9547ZM20.25 12C20.25 12.9413 20.25 13.7543 20.2352 14.4695L21.7348 14.5005C21.75 13.7667 21.75 12.9368 21.75 12H20.25ZM20.2352 14.4695C20.19 16.6526 20 17.725 19.4383 18.4981L20.6518 19.3798C21.5217 18.1825 21.6903 16.6546 21.7348 14.5005L20.2352 14.4695ZM3.54883 18.2253L3.439 18.4449L4.78065 19.1158L4.89047 18.8961L3.54883 18.2253ZM5.50191 19.4383C5.1542 19.1857 4.8469 18.8818 4.59044 18.5372L3.38706 19.4327C3.73405 19.899 4.1498 20.3101 4.62023 20.6518L5.50191 19.4383ZM4.59044 18.5372C4.58078 18.5242 4.57119 18.5112 4.56168 18.4981L3.34815 19.3798C3.36102 19.3975 3.37399 19.4151 3.38706 19.4327L4.59044 18.5372ZM3.46439 18.3984L3.34331 18.603L4.63418 19.3669L4.75526 19.1623L3.46439 18.3984Z" fill="currentColor"/>
    </symbol>
    
    <symbol viewBox="0 0 24 24" fill="none" id="document">
        <path d="M5.06107 21.0451L5.50191 20.4383L5.06107 21.0451ZM3.95491 19.9389L4.56168 19.4981L3.95491 19.9389ZM20.0451 19.9389L19.4383 19.4981L20.0451 19.9389ZM18.9389 21.0451L18.4981 20.4383L18.9389 21.0451ZM18.9389 2.95491L19.3798 2.34815L18.9389 2.95491ZM20.0451 4.06107L19.4383 4.50191L20.0451 4.06107ZM5.06107 2.95491L5.50191 3.56168L5.06107 2.95491ZM3.95491 4.06107L4.56168 4.50191L3.95491 4.06107ZM13.1461 6.59531L13.2635 7.33608L13.1461 6.59531ZM11.5818 6.59531L11.4645 7.33608L11.5818 6.59531ZM8 15.25C7.58579 15.25 7.25 15.5858 7.25 16C7.25 16.4142 7.58579 16.75 8 16.75V15.25ZM16 16.75C16.4142 16.75 16.75 16.4142 16.75 16C16.75 15.5858 16.4142 15.25 16 15.25V16.75ZM8 11.25C7.58579 11.25 7.25 11.5858 7.25 12C7.25 12.4142 7.58579 12.75 8 12.75V11.25ZM11 12.75C11.4142 12.75 11.75 12.4142 11.75 12C11.75 11.5858 11.4142 11.25 11 11.25V12.75ZM20.25 11V13H21.75V11H20.25ZM3.75 13V11H2.25V13H3.75ZM12 21.25C10.1084 21.25 8.74999 21.249 7.69804 21.135C6.66013 21.0225 6.00992 20.8074 5.50191 20.4383L4.62023 21.6518C5.42656 22.2377 6.37094 22.5 7.53648 22.6263C8.68798 22.751 10.1418 22.75 12 22.75V21.25ZM2.25 13C2.25 14.8582 2.24897 16.312 2.37373 17.4635C2.50001 18.6291 2.76232 19.5734 3.34815 20.3798L4.56168 19.4981C4.19259 18.9901 3.97745 18.3399 3.865 17.302C3.75103 16.25 3.75 14.8916 3.75 13H2.25ZM5.50191 20.4383C5.14111 20.1762 4.82382 19.8589 4.56168 19.4981L3.34815 20.3798C3.70281 20.8679 4.13209 21.2972 4.62023 21.6518L5.50191 20.4383ZM20.25 13C20.25 14.8916 20.249 16.25 20.135 17.302C20.0225 18.3399 19.8074 18.9901 19.4383 19.4981L20.6518 20.3798C21.2377 19.5734 21.5 18.6291 21.6263 17.4635C21.751 16.312 21.75 14.8582 21.75 13H20.25ZM12 22.75C13.8582 22.75 15.312 22.751 16.4635 22.6263C17.6291 22.5 18.5734 22.2377 19.3798 21.6518L18.4981 20.4383C17.9901 20.8074 17.3399 21.0225 16.302 21.135C15.25 21.249 13.8916 21.25 12 21.25V22.75ZM19.4383 19.4981C19.1762 19.8589 18.8589 20.1762 18.4981 20.4383L19.3798 21.6518C19.8679 21.2972 20.2972 20.8679 20.6518 20.3798L19.4383 19.4981ZM21.75 11C21.75 9.14184 21.751 7.68798 21.6263 6.53648C21.5 5.37094 21.2377 4.42656 20.6518 3.62023L19.4383 4.50191C19.8074 5.00992 20.0225 5.66013 20.135 6.69804C20.249 7.74999 20.25 9.10843 20.25 11H21.75ZM18.4981 3.56168C18.8589 3.82382 19.1762 4.14111 19.4383 4.50191L20.6518 3.62023C20.2972 3.13209 19.8679 2.70281 19.3798 2.34815L18.4981 3.56168ZM3.75 11C3.75 9.10843 3.75103 7.74999 3.865 6.69804C3.97745 5.66013 4.19259 5.00992 4.56168 4.50191L3.34815 3.62023C2.76232 4.42656 2.50001 5.37094 2.37373 6.53648C2.24897 7.68798 2.25 9.14184 2.25 11H3.75ZM4.62023 2.34815C4.13209 2.70281 3.70281 3.13209 3.34815 3.62023L4.56168 4.50191C4.82382 4.14111 5.14111 3.82382 5.50191 3.56168L4.62023 2.34815ZM13.0288 5.85454C12.5883 5.92431 12.1396 5.92431 11.6991 5.85454L11.4645 7.33608C12.0604 7.43047 12.6675 7.43047 13.2635 7.33608L13.0288 5.85454ZM8 16.75H16V15.25H8V16.75ZM8 12.75H11V11.25H8V12.75ZM17.9103 2.12083C16.6701 3.36015 15.7663 4.25006 14.9856 4.8649C14.2161 5.47095 13.6262 5.75993 13.0288 5.85454L13.2635 7.33608C14.2116 7.1859 15.0379 6.73301 15.9137 6.04333C16.7783 5.36245 17.7488 4.40277 18.9706 3.18187L17.9103 2.12083ZM12 2.75C13.6617 2.75 14.9149 2.75053 15.9149 2.82911C16.9124 2.9075 17.5844 3.05963 18.1028 3.32103L18.7782 1.98168C18.0049 1.59173 17.107 1.41817 16.0324 1.33372C14.9603 1.24947 13.6391 1.25 12 1.25V2.75ZM18.1028 3.32103C18.2431 3.3918 18.374 3.4715 18.4981 3.56168L19.3798 2.34815C19.1892 2.20967 18.9892 2.08809 18.7782 1.98168L18.1028 3.32103ZM5.5419 2.96653C6.83246 4.25703 7.84545 5.26842 8.73841 5.98311C9.64243 6.70666 10.489 7.18158 11.4645 7.33608L11.6991 5.85454C11.0846 5.75721 10.4781 5.45425 9.67572 4.81202C8.86225 4.16095 7.91543 3.21868 6.60254 1.90585L5.5419 2.96653ZM12 1.25C10.5637 1.25 9.37369 1.24973 8.38484 1.30572C7.39671 1.36167 6.55633 1.47576 5.82759 1.7272L6.31685 3.14517C6.85227 2.96043 7.53187 2.85642 8.46964 2.80332C9.40668 2.75027 10.5485 2.75 12 2.75V1.25ZM5.82759 1.7272C5.38699 1.87923 4.98789 2.08103 4.62023 2.34815L5.50191 3.56168C5.73848 3.3898 6.00284 3.25352 6.31685 3.14517L5.82759 1.7272Z" fill="currentColor"/>
    </symbol>
    
    <symbol viewBox="0 0 24 24" fill="none" id="microphone">
        <path d="M20.75 10C20.75 9.58579 20.4142 9.25 20 9.25C19.5858 9.25 19.25 9.58579 19.25 10H20.75ZM4.75 10C4.75 9.58579 4.41421 9.25 4 9.25C3.58579 9.25 3.25 9.58579 3.25 10H4.75ZM9.8181 21.2724C9.41625 21.3729 9.17193 21.7801 9.27239 22.1819C9.37285 22.5837 9.78006 22.8281 10.1819 22.7276L9.8181 21.2724ZM10.7873 21.8032L10.6054 21.0756L10.7873 21.8032ZM13.2127 21.8032L13.3946 21.0756L13.2127 21.8032ZM13.8181 22.7276C14.2199 22.8281 14.6271 22.5837 14.7276 22.1819C14.8281 21.7801 14.5837 21.3729 14.1819 21.2724L13.8181 22.7276ZM12 21.6539V22.4039V21.6539ZM15.25 6V10H16.75V6H15.25ZM8.75 10V6H7.25V10H8.75ZM12 13.25C10.2051 13.25 8.75 11.7949 8.75 10H7.25C7.25 12.6234 9.37665 14.75 12 14.75V13.25ZM15.25 10C15.25 11.7949 13.7949 13.25 12 13.25V14.75C14.6234 14.75 16.75 12.6234 16.75 10H15.25ZM12 2.75C13.7949 2.75 15.25 4.20507 15.25 6H16.75C16.75 3.37665 14.6234 1.25 12 1.25V2.75ZM12 1.25C9.37665 1.25 7.25 3.37665 7.25 6H8.75C8.75 4.20507 10.2051 2.75 12 2.75V1.25ZM19.25 10C19.25 14.0041 16.0041 17.25 12 17.25V18.75C16.8325 18.75 20.75 14.8325 20.75 10H19.25ZM12 17.25C7.99594 17.25 4.75 14.0041 4.75 10H3.25C3.25 14.8325 7.16751 18.75 12 18.75V17.25ZM11.25 18V21H12.75V18H11.25ZM10.1819 22.7276L10.9692 22.5308L10.6054 21.0756L9.8181 21.2724L10.1819 22.7276ZM13.0308 22.5308L13.8181 22.7276L14.1819 21.2724L13.3946 21.0756L13.0308 22.5308ZM10.9692 22.5308C11.3076 22.4462 11.6538 22.4039 12 22.4039V20.9039C11.5316 20.9039 11.0632 20.9611 10.6054 21.0756L10.9692 22.5308ZM12 22.4039C12.3462 22.4039 12.6924 22.4462 13.0308 22.5308L13.3946 21.0756C12.9368 20.9611 12.4684 20.9039 12 20.9039V22.4039ZM11.25 21V21.6539H12.75V21H11.25Z" fill="currentColor"/>
    </symbol>
    
    <symbol viewBox="0 0 24 24" fill="none" id="add_file">
        <path d="M4.78217 8.93844L4.8995 9.67921H4.8995L4.78217 8.93844ZM8.93844 4.78217L9.67921 4.8995V4.8995L8.93844 4.78217ZM18.9389 20.0451L18.4981 19.4383L18.9389 20.0451ZM20.0451 18.9389L19.4383 18.4981L20.0451 18.9389ZM3.95491 18.9389L4.56168 18.4981L3.95491 18.9389ZM5.06107 20.0451L5.50191 19.4383L5.06107 20.0451ZM5.06107 3.95491L4.62024 3.34815L5.06107 3.95491ZM3.95491 5.06107L3.34815 4.62023L3.95491 5.06107ZM18.9389 3.95491L18.4981 4.56168L18.9389 3.95491ZM20.0451 5.06107L19.4383 5.50191L20.0451 5.06107ZM9 3.02893L8.97432 2.27937L9 3.02893ZM3.02893 9L2.27937 8.97432L3.02893 9ZM10 12.25C9.58579 12.25 9.25 12.5858 9.25 13C9.25 13.4142 9.58579 13.75 10 13.75V12.25ZM16 13.75C16.4142 13.75 16.75 13.4142 16.75 13C16.75 12.5858 16.4142 12.25 16 12.25V13.75ZM12.25 16C12.25 16.4142 12.5858 16.75 13 16.75C13.4142 16.75 13.75 16.4142 13.75 16H12.25ZM13.75 10C13.75 9.58579 13.4142 9.25 13 9.25C12.5858 9.25 12.25 9.58579 12.25 10H13.75ZM4.8995 9.67921C7.35988 9.28952 9.28952 7.35988 9.67921 4.8995L8.19768 4.66485C7.90965 6.48339 6.48339 7.90965 4.66485 8.19768L4.8995 9.67921ZM12 21.75C13.8582 21.75 15.312 21.751 16.4635 21.6263C17.6291 21.5 18.5734 21.2377 19.3798 20.6518L18.4981 19.4383C17.9901 19.8074 17.3399 20.0225 16.302 20.135C15.25 20.249 13.8916 20.25 12 20.25V21.75ZM20.25 12C20.25 13.8916 20.249 15.25 20.135 16.302C20.0225 17.3399 19.8074 17.9901 19.4383 18.4981L20.6518 19.3798C21.2377 18.5734 21.5 17.6291 21.6263 16.4635C21.751 15.312 21.75 13.8582 21.75 12H20.25ZM19.3798 20.6518C19.8679 20.2972 20.2972 19.8679 20.6518 19.3798L19.4383 18.4981C19.1762 18.8589 18.8589 19.1762 18.4981 19.4383L19.3798 20.6518ZM2.25 12C2.25 13.8582 2.24897 15.312 2.37373 16.4635C2.50001 17.6291 2.76232 18.5734 3.34815 19.3798L4.56168 18.4981C4.19259 17.9901 3.97745 17.3399 3.865 16.302C3.75103 15.25 3.75 13.8916 3.75 12H2.25ZM12 20.25C10.1084 20.25 8.74999 20.249 7.69804 20.135C6.66013 20.0225 6.00992 19.8074 5.50191 19.4383L4.62024 20.6518C5.42656 21.2377 6.37094 21.5 7.53648 21.6263C8.68798 21.751 10.1418 21.75 12 21.75V20.25ZM3.34815 19.3798C3.70281 19.8679 4.13209 20.2972 4.62024 20.6518L5.50191 19.4383C5.14111 19.1762 4.82382 18.8589 4.56168 18.4981L3.34815 19.3798ZM4.62024 3.34815C4.13209 3.70281 3.70281 4.13209 3.34815 4.62023L4.56168 5.50191C4.82381 5.14111 5.14111 4.82382 5.50191 4.56168L4.62024 3.34815ZM12 3.75C13.8916 3.75 15.25 3.75103 16.302 3.865C17.3399 3.97745 17.9901 4.19259 18.4981 4.56168L19.3798 3.34815C18.5734 2.76232 17.6291 2.50001 16.4635 2.37373C15.312 2.24897 13.8582 2.25 12 2.25V3.75ZM21.75 12C21.75 10.1418 21.751 8.68798 21.6263 7.53648C21.5 6.37094 21.2377 5.42656 20.6518 4.62023L19.4383 5.50191C19.8074 6.00992 20.0225 6.66013 20.135 7.69804C20.249 8.74999 20.25 10.1084 20.25 12H21.75ZM18.4981 4.56168C18.8589 4.82382 19.1762 5.14111 19.4383 5.50191L20.6518 4.62023C20.2972 4.13209 19.8679 3.70281 19.3798 3.34815L18.4981 4.56168ZM12 2.25C10.8352 2.25 9.83424 2.24991 8.97432 2.27937L9.02568 3.77849C9.85445 3.75009 10.8269 3.75 12 3.75V2.25ZM8.97432 2.27937C7.10087 2.34355 5.7239 2.5463 4.62024 3.34815L5.50191 4.56168C6.20746 4.04907 7.17075 3.84204 9.02568 3.77849L8.97432 2.27937ZM8.25 3.02892C8.24999 3.96617 8.24707 4.35298 8.19768 4.66485L9.67921 4.8995C9.75165 4.44215 9.74999 3.91121 9.75 3.02893L8.25 3.02892ZM3.75 12C3.75 10.8269 3.75009 9.85445 3.77849 9.02568L2.27937 8.97432C2.24991 9.83424 2.25 10.8352 2.25 12H3.75ZM3.77849 9.02568C3.84204 7.17075 4.04907 6.20746 4.56168 5.50191L3.34815 4.62023C2.5463 5.7239 2.34356 7.10087 2.27937 8.97432L3.77849 9.02568ZM3.02893 9.75C3.91121 9.74999 4.44215 9.75165 4.8995 9.67921L4.66485 8.19768C4.35298 8.24707 3.96618 8.24999 3.02892 8.25L3.02893 9.75ZM10 13.75H16V12.25H10V13.75ZM13.75 16V10H12.25V16H13.75Z" fill="currentColor"/>
    </symbol>
    
    <symbol viewBox="0 0 24 24" fill="none" id="send">
        <path d="M15.6542 2.33449C18.8408 1.72335 21.6385 4.52097 21.0273 7.70757L19.2727 16.8566C18.8913 18.8455 17.3858 20.436 15.4297 20.9414C11.5241 21.9503 7.95463 18.3282 9.09831 14.4391C9.1299 14.3317 9.03011 14.2319 8.92271 14.2635C5.03362 15.4072 1.41158 11.8378 2.42049 7.93218C2.92582 5.97601 4.51636 4.47056 6.5052 4.08914L15.6542 2.33449Z" fill="currentColor"/>
    </symbol>

    <symbol viewBox="0 0 24 24" fill="none" id="copy">
        <rect x="9.47" y="9.51" width="12.25" height="12.25" rx="4" fill="currentColor"/>
        <path d="M10.55,3.75a2.5,2.5,0,0,1,2.5,2.5V10.5a2.5,2.5,0,0,1-2.5,2.5H6.3a2.5,2.5,0,0,1-2.5-2.5V6.25a2.5,2.5,0,0,1,2.5-2.5h4.25m0-1.5H6.3a4,4,0,0,0-4,4V10.5a4,4,0,0,0,4,4h4.25a4,4,0,0,0,4-4V6.25a4,4,0,0,0-4-4Z" fill="currentColor"/>
    </symbol>

    <symbol viewBox="0 0 24 24" fill="none" id="stop">
        <path d="M10.2235 15.8978L10.4177 15.1733L10.2235 15.8978ZM8.10222 13.7765L8.82667 13.5823L8.10222 13.7765ZM15.8978 13.7765L15.1733 13.5823L15.8978 13.7765ZM13.7765 15.8978L13.5823 15.1733L13.7765 15.8978ZM13.7765 8.10222L13.5823 8.82667L13.7765 8.10222ZM15.8978 10.2235L15.1733 10.4177L15.8978 10.2235ZM10.2235 8.10222L10.4177 8.82667L10.2235 8.10222ZM8.10222 10.2235L8.82667 10.4177L8.10222 10.2235ZM21.25 12C21.25 17.1086 17.1086 21.25 12 21.25V22.75C17.9371 22.75 22.75 17.9371 22.75 12H21.25ZM12 21.25C6.89137 21.25 2.75 17.1086 2.75 12H1.25C1.25 17.9371 6.06294 22.75 12 22.75V21.25ZM2.75 12C2.75 6.89137 6.89137 2.75 12 2.75V1.25C6.06294 1.25 1.25 6.06294 1.25 12H2.75ZM12 2.75C17.1086 2.75 21.25 6.89137 21.25 12H22.75C22.75 6.06294 17.9371 1.25 12 1.25V2.75ZM12 15.25C11.0217 15.25 10.6797 15.2436 10.4177 15.1733L10.0294 16.6222C10.5303 16.7564 11.1183 16.75 12 16.75V15.25ZM7.25 12C7.25 12.8817 7.24356 13.4697 7.37778 13.9706L8.82667 13.5823C8.75644 13.3203 8.75 12.9783 8.75 12H7.25ZM10.4177 15.1733C9.6412 14.9653 9.03472 14.3588 8.82667 13.5823L7.37778 13.9706C7.72453 15.2647 8.73533 16.2755 10.0294 16.6222L10.4177 15.1733ZM15.25 12C15.25 12.9783 15.2436 13.3203 15.1733 13.5823L16.6222 13.9706C16.7564 13.4697 16.75 12.8817 16.75 12H15.25ZM12 16.75C12.8817 16.75 13.4697 16.7564 13.9706 16.6222L13.5823 15.1733C13.3203 15.2436 12.9783 15.25 12 15.25V16.75ZM15.1733 13.5823C14.9653 14.3588 14.3588 14.9653 13.5823 15.1733L13.9706 16.6222C15.2647 16.2755 16.2755 15.2647 16.6222 13.9706L15.1733 13.5823ZM12 8.75C12.9783 8.75 13.3203 8.75644 13.5823 8.82667L13.9706 7.37778C13.4697 7.24356 12.8817 7.25 12 7.25V8.75ZM16.75 12C16.75 11.1183 16.7564 10.5303 16.6222 10.0294L15.1733 10.4177C15.2436 10.6797 15.25 11.0217 15.25 12H16.75ZM13.5823 8.82667C14.3588 9.03472 14.9653 9.6412 15.1733 10.4177L16.6222 10.0294C16.2755 8.73533 15.2647 7.72453 13.9706 7.37778L13.5823 8.82667ZM12 7.25C11.1183 7.25 10.5303 7.24356 10.0294 7.37778L10.4177 8.82667C10.6797 8.75644 11.0217 8.75 12 8.75V7.25ZM8.75 12C8.75 11.0217 8.75644 10.6797 8.82667 10.4177L7.37778 10.0294C7.24356 10.5303 7.25 11.1183 7.25 12H8.75ZM10.0294 7.37778C8.73533 7.72453 7.72453 8.73533 7.37778 10.0294L8.82667 10.4177C9.03472 9.6412 9.6412 9.03472 10.4177 8.82667L10.0294 7.37778Z" fill="currentColor"/>
    </symbol>

    <symbol viewBox="0 0 24 24" fill="none" id="record">
        <path d="M12 8V16M15 9V15M18 11V13M9 9L9 15M6 11V13M22 12C22 17.5228 17.5228 22 12 22C6.47715 22 2 17.5228 2 12C2 6.47715 6.47715 2 12 2C17.5228 2 22 6.47715 22 12Z" stroke="currentColor" stroke-width="1.5" stroke-linecap="round"/>
    </symbol>

    <symbol viewBox="0 0 24 24" fill="none" id="record-stop">
        <path d="M10 16L10 8M14 16V8M22 12C22 17.5228 17.5228 22 12 22C6.47715 22 2 17.5228 2 12C2 6.47715 6.47715 2 12 2C17.5228 2 22 6.47715 22 12Z" stroke="currentColor" stroke-width="1.5" stroke-linecap="round"/>
    </symbol>

    <symbol viewBox="0 0 24 24" fill="none" id="record-play">
        <path d="M9.35181 8.80519L9.97155 9.22759L9.35181 8.80519ZM13.4211 9.27915L13.8141 8.64042L13.4211 9.27915ZM10.6496 8.00652L10.566 7.26118L10.6496 8.00652ZM10.6496 15.9935L10.566 16.7388L10.6496 15.9935ZM9.35181 15.1948L8.73207 15.6172L9.35181 15.1948ZM15.8407 12.7987L15.1487 12.5096L15.8407 12.7987ZM15.8407 11.2013L15.1487 11.4904L15.8407 11.2013ZM21.25 12C21.25 17.1086 17.1086 21.25 12 21.25V22.75C17.9371 22.75 22.75 17.9371 22.75 12H21.25ZM12 21.25C6.89137 21.25 2.75 17.1086 2.75 12H1.25C1.25 17.9371 6.06294 22.75 12 22.75V21.25ZM2.75 12C2.75 6.89137 6.89137 2.75 12 2.75V1.25C6.06294 1.25 1.25 6.06294 1.25 12H2.75ZM12 2.75C17.1086 2.75 21.25 6.89137 21.25 12H22.75C22.75 6.06294 17.9371 1.25 12 1.25V2.75ZM9.75 12C9.75 11.0932 9.75066 10.462 9.79121 9.9908C9.83227 9.51375 9.90747 9.32161 9.97155 9.22759L8.73207 8.38278C8.44434 8.80493 8.34363 9.31731 8.29674 9.86218C8.24934 10.413 8.25 11.121 8.25 12H9.75ZM13.8141 8.64042C13.1019 8.20207 12.5221 7.84429 12.0453 7.60993C11.5738 7.37812 11.0828 7.20329 10.566 7.26118L10.7331 8.75186C10.8116 8.74306 10.9809 8.7581 11.3836 8.95606C11.7811 9.15147 12.2894 9.46335 13.028 9.91788L13.8141 8.64042ZM9.97155 9.22759C10.1613 8.94918 10.4415 8.78452 10.7331 8.75186L10.566 7.26118C9.81915 7.34486 9.15604 7.76076 8.73207 8.38278L9.97155 9.22759ZM13.028 14.0821C12.2894 14.5366 11.7811 14.8485 11.3836 15.0439C10.9809 15.2419 10.8116 15.2569 10.7331 15.2481L10.566 16.7388C11.0828 16.7967 11.5738 16.6219 12.0453 16.3901C12.5221 16.1557 13.1019 15.7979 13.8141 15.3596L13.028 14.0821ZM8.25 12C8.25 12.879 8.24934 13.587 8.29674 14.1378C8.34363 14.6827 8.44434 15.1951 8.73207 15.6172L9.97155 14.7724C9.90747 14.6784 9.83227 14.4862 9.79121 14.0092C9.75066 13.538 9.75 12.9068 9.75 12H8.25ZM10.7331 15.2481C10.4415 15.2155 10.1613 15.0508 9.97155 14.7724L8.73207 15.6172C9.15604 16.2392 9.81914 16.6551 10.566 16.7388L10.7331 15.2481ZM13.8141 15.3596C14.5268 14.921 15.1069 14.5649 15.5349 14.2426C15.9627 13.9204 16.3337 13.5645 16.5328 13.0877L15.1487 12.5096C15.1044 12.6157 14.9909 12.7745 14.6325 13.0444C14.2742 13.3142 13.7662 13.6278 13.028 14.0821L13.8141 15.3596ZM13.028 9.91788C13.7662 10.3722 14.2742 10.6858 14.6325 10.9556C14.9909 11.2255 15.1044 11.3843 15.1487 11.4904L16.5328 10.9123C16.3337 10.4355 15.9627 10.0796 15.5349 9.7574C15.1069 9.43507 14.5268 9.07898 13.8141 8.64042L13.028 9.91788ZM16.5328 13.0877C16.8224 12.3944 16.8224 11.6056 16.5328 10.9123L15.1487 11.4904C15.2838 11.8138 15.2838 12.1862 15.1487 12.5096L16.5328 13.0877Z" fill="currentColor"/>
    </symbol>
</svg>