<svg xmlns="http://www.w3.org/2000/svg">
    <symbol viewBox="0 0 24 24" fill="currentColor" stroke="currentColor" id="close">
        <path d="M5 5L19 19M5.00003 19L12 12L19 5" stroke-width="1.5" stroke-linecap="round"/>
    </symbol>

    <symbol viewBox="0 0 24 24" fill="currentColor" stroke="currentColor" id="rotate-right">
        <path d="M22.75 12C22.75 11.5858 22.4142 11.25 22 11.25C21.5858 11.25 21.25 11.5858 21.25 12H22.75ZM18.001 4L17.5505 4.59962L18.001 4ZM20 5.99903L19.4004 6.44953L19.431 6.49029L19.4669 6.52653L20 5.99903ZM21.4069 0.996654C21.405 0.582444 21.0677 0.248159 20.6535 0.250007C20.2393 0.251856 19.905 0.589137 19.9069 1.00335L21.4069 0.996654ZM20.6657 2.98571L21.4157 2.98237V2.98237L20.6657 2.98571ZM16.9857 6.66571L16.9824 7.41571L16.9857 6.66571ZM15.0034 5.90686C14.5891 5.90501 14.2519 6.2393 14.25 6.65351C14.2482 7.06772 14.5824 7.405 14.9967 7.40685L15.0034 5.90686ZM20.2572 5.90267L20.8503 6.36169V6.36169L20.2572 5.90267ZM19.9027 6.25717L20.3617 6.85029L20.3617 6.85029L19.9027 6.25717ZM20.0912 6.09117L20.6215 6.6215L20.0912 6.09117ZM21.25 12C21.25 17.1086 17.1086 21.25 12 21.25V22.75C17.9371 22.75 22.75 17.9371 22.75 12H21.25ZM12 21.25C6.89137 21.25 2.75 17.1086 2.75 12H1.25C1.25 17.9371 6.06294 22.75 12 22.75V21.25ZM2.75 12C2.75 6.89137 6.89137 2.75 12 2.75V1.25C6.06294 1.25 1.25 6.06294 1.25 12H2.75ZM12 2.75C14.0836 2.75 16.0044 3.43804 17.5505 4.59962L18.4515 3.40038C16.6546 2.05032 14.4197 1.25 12 1.25V2.75ZM17.5505 4.59962C18.2508 5.12582 18.8742 5.74916 19.4004 6.44953L20.5996 5.54852C19.9886 4.73519 19.2648 4.01145 18.4515 3.40038L17.5505 4.59962ZM19.9069 1.00335L19.9157 2.98906L21.4157 2.98237L21.4069 0.996654L19.9069 1.00335ZM16.9891 5.91572L15.0034 5.90686L14.9967 7.40685L16.9824 7.41571L16.9891 5.91572ZM19.9157 2.98906C19.9193 3.79848 19.9206 4.34217 19.8757 4.75351C19.8324 5.14976 19.7542 5.32713 19.664 5.44365L20.8503 6.36169C21.1793 5.93661 21.3089 5.44728 21.3668 4.91635C21.4232 4.4005 21.4192 3.75651 21.4157 2.98237L19.9157 2.98906ZM16.9824 7.41571C17.7565 7.41916 18.4005 7.42317 18.9164 7.36684C19.4473 7.30886 19.9366 7.17926 20.3617 6.85029L19.4437 5.66404C19.3271 5.75421 19.1498 5.83243 18.7535 5.8757C18.3422 5.92062 17.7985 5.91933 16.9891 5.91572L16.9824 7.41571ZM19.664 5.44365C19.6321 5.4849 19.5976 5.52404 19.5608 5.56084L20.6215 6.6215C20.7031 6.5399 20.7795 6.45314 20.8503 6.36169L19.664 5.44365ZM19.5608 5.56084C19.524 5.59764 19.4849 5.63211 19.4437 5.66404L20.3617 6.85029C20.4531 6.77952 20.5399 6.7031 20.6215 6.6215L19.5608 5.56084ZM19.4669 6.52653L19.558 6.61867L20.6243 5.56367L20.5331 5.47152L19.4669 6.52653Z" />
    </symbol>

    <symbol viewBox="0 0 24 24" fill="none" id="contacts">
        <path d="M7 7.75C7 8.99264 8.00736 10 9.25 10V11.5C7.17893 11.5 5.5 9.82107 5.5 7.75H7ZM9.25 10C10.4926 10 11.5 8.99264 11.5 7.75H13C13 9.82107 11.3211 11.5 9.25 11.5V10ZM11.5 7.75C11.5 6.50736 10.4926 5.5 9.25 5.5V4C11.3211 4 13 5.67893 13 7.75H11.5ZM9.25 5.5C8.00736 5.5 7 6.50736 7 7.75H5.5C5.5 5.67893 7.17893 4 9.25 4V5.5ZM12.25 14.5H6.25V13H12.25V14.5ZM6.25 19H12.25V20.5H6.25V19ZM12.25 19C13.4926 19 14.5 17.9926 14.5 16.75H16C16 18.8211 14.3211 20.5 12.25 20.5V19ZM4 16.75C4 17.9926 5.00736 19 6.25 19V20.5C4.17893 20.5 2.5 18.8211 2.5 16.75H4ZM6.25 14.5C5.00736 14.5 4 15.5074 4 16.75H2.5C2.5 14.6789 4.17893 13 6.25 13V14.5ZM12.25 13C14.3211 13 16 14.6789 16 16.75H14.5C14.5 15.5074 13.4926 14.5 12.25 14.5V13Z" fill="currentColor"/>
        <path d="M13.4979 10.3887C13.6556 10.1353 13.9515 10 14.25 10C15.4926 10 16.5 8.99264 16.5 7.75C16.5 6.50736 15.4926 5.5 14.25 5.5C13.9515 5.5 13.6556 5.36473 13.4979 5.11135C13.4909 5.10014 13.4839 5.08896 13.4768 5.07782C13.2142 4.66331 13.3473 4.0764 13.835 4.0227C13.9713 4.0077 14.1097 4 14.25 4C16.3211 4 18 5.67893 18 7.75C18 9.82107 16.3211 11.5 14.25 11.5C14.1097 11.5 13.9713 11.4923 13.835 11.4773C13.3473 11.4236 13.2142 10.8367 13.4768 10.4222C13.4839 10.411 13.4909 10.3999 13.4979 10.3887Z" fill="currentColor"/>
        <path d="M16.5417 18.3169C16.6552 18.1275 16.8556 18 17.0764 18H17.25C18.4926 18 19.5 16.9926 19.5 15.75C19.5 14.5074 18.4926 13.5 17.25 13.5H17.0764C16.8556 13.5 16.6552 13.3725 16.5417 13.1831C16.2646 12.7208 16.5653 12 17.1043 12H17.25C19.3211 12 21 13.6789 21 15.75C21 17.8211 19.3211 19.5 17.25 19.5H17.1043C16.5653 19.5 16.2646 18.7792 16.5417 18.3169Z" fill="currentColor"/>
    </symbol>
    
    <symbol viewBox="0 0 24 24" fill="none" id="messages">
        <path d="M14.8532 18.8449C16.6394 16.1283 16.339 12.4404 13.9521 10.0504C11.5451 7.64038 7.81971 7.35488 5.10034 9.19395M14.8532 18.8449C14.5961 19.2359 14.2957 19.6068 13.9521 19.9508C12.3638 21.5411 8.99563 22.9161 6.26196 21.2246C6.10983 21.1305 6.03377 21.0834 5.97625 21.0606C5.86629 21.017 5.78289 21.0044 5.66496 21.0135C5.60329 21.0183 5.53341 21.0364 5.39365 21.0727C4.51422 21.3009 4.0745 21.415 3.75772 21.3505C3.2079 21.2384 2.77821 20.8082 2.66631 20.2577C2.60184 19.9405 2.71581 19.5002 2.94375 18.6197C2.97998 18.4797 2.9981 18.4098 3.00285 18.3478C3.0119 18.2297 2.99904 18.1453 2.95528 18.0352C2.93232 17.9775 2.88538 17.9019 2.7915 17.7506C1.09634 15.0195 2.40825 11.7085 4.06419 10.0504C4.38764 9.72658 4.73491 9.44108 5.10034 9.19395M14.8532 18.8449L15 18.8198C15.6216 18.6705 16.2353 18.4232 16.8248 18.0585C17.0095 17.9441 17.1019 17.887 17.1717 17.8593C17.3052 17.8064 17.4065 17.791 17.5497 17.8021C17.6246 17.8079 17.7094 17.8299 17.8791 17.874C18.947 18.1511 19.481 18.2897 19.8656 18.2113C20.5333 18.0753 21.055 17.5528 21.1909 16.8843C21.2692 16.4992 21.1308 15.9646 20.854 14.8954C20.81 14.7254 20.788 14.6404 20.7823 14.5652C20.7713 14.4218 20.7869 14.3192 20.84 14.1856C20.8679 14.1155 20.9249 14.0237 21.0389 13.8401C23.0973 10.5236 21.5043 6.50314 19.4935 4.48982C16.1779 1.17006 10.8023 1.17006 7.48669 4.48982C6.1619 5.81628 5.36645 7.47204 5.10034 9.19395" stroke="currentColor" stroke-width="1.5"/>
        <path d="M11 15C11 15.5523 11.4477 16 12 16C12.5523 16 13 15.5523 13 15C13 14.4477 12.5523 14 12 14C11.4477 14 11 14.4477 11 15Z" fill="currentColor"/>
        <path d="M8 15C8 15.5523 8.44772 16 9 16C9.55228 16 10 15.5523 10 15C10 14.4477 9.55228 14 9 14C8.44772 14 8 14.4477 8 15Z" fill="currentColor"/>
        <path d="M5 15C5 15.5523 5.44772 16 6 16C6.55228 16 7 15.5523 7 15C7 14.4477 6.55228 14 6 14C5.44772 14 5 14.4477 5 15Z" fill="currentColor"/>
    </symbol>

    <symbol viewBox="0 0 24 24" fill="currentColor" id="profile">
        <path d="M15.25 9C15.25 10.7949 13.7949 12.25 12 12.25V13.75C14.6234 13.75 16.75 11.6234 16.75 9H15.25ZM12 12.25C10.2051 12.25 8.75 10.7949 8.75 9H7.25C7.25 11.6234 9.37665 13.75 12 13.75V12.25ZM8.75 9C8.75 7.20507 10.2051 5.75 12 5.75V4.25C9.37665 4.25 7.25 6.37665 7.25 9H8.75ZM12 5.75C13.7949 5.75 15.25 7.20507 15.25 9H16.75C16.75 6.37665 14.6234 4.25 12 4.25V5.75ZM9 16.75H15V15.25H9V16.75ZM2.75 12C2.75 6.89137 6.89137 2.75 12 2.75V1.25C6.06294 1.25 1.25 6.06294 1.25 12H2.75ZM12 2.75C17.1086 2.75 21.25 6.89137 21.25 12H22.75C22.75 6.06294 17.9371 1.25 12 1.25V2.75ZM21.25 12C21.25 14.6233 20.159 16.9905 18.4039 18.6748L19.4425 19.7571C21.4801 17.8016 22.75 15.0485 22.75 12H21.25ZM18.4039 18.6748C16.7412 20.2705 14.4858 21.25 12 21.25V22.75C14.8882 22.75 17.5117 21.61 19.4425 19.7571L18.4039 18.6748ZM15 16.75C16.576 16.75 17.8915 17.8726 18.1876 19.3621L19.6588 19.0697C19.226 16.8918 17.3055 15.25 15 15.25V16.75ZM12 21.25C9.51425 21.25 7.25884 20.2705 5.59612 18.6748L4.55751 19.7571C6.48833 21.61 9.11182 22.75 12 22.75V21.25ZM5.59612 18.6748C3.84103 16.9905 2.75 14.6233 2.75 12H1.25C1.25 15.0485 2.51989 17.8016 4.55751 19.7571L5.59612 18.6748ZM9 15.25C6.69445 15.25 4.77403 16.8918 4.3412 19.0697L5.81243 19.3621C6.10846 17.8726 7.42396 16.75 9 16.75V15.25Z"/>
    </symbol>

    <symbol viewBox="0 0 24 24" stroke="currentColor" fill="none" id="logout">
        <path d="M18 4C20.3903 5.8273 22 8.75893 22 12C22 17.5228 17.5228 22 12 22C6.47715 22 2 17.5228 2 12C2 8.72852 3.57131 5.82443 6 4M12 2V9" stroke-width="1.5" stroke-linecap="round"/>
    </symbol>
    
    <symbol viewBox="0 0 24 24" fill="currentColor" id="setting">
        <path d="M5.93188 5.38642L5.74952 6.11391L5.93188 5.38642ZM9.30644 3.43812L8.58523 3.2323L9.30644 3.43812ZM3.23837 10.0517L3.77722 9.53005L3.23837 10.0517ZM3.23837 13.9483L2.69952 13.4266H2.69952L3.23837 13.9483ZM5.93188 18.6136L6.11423 19.3411L5.93188 18.6136ZM9.30644 20.5619L8.58523 20.7677L9.30644 20.5619ZM14.6935 20.5619L15.4147 20.7677L14.6935 20.5619ZM18.068 18.6136L18.2504 17.8861L18.068 18.6136ZM20.7615 13.9483L20.2227 14.47V14.47L20.7615 13.9483ZM20.7615 10.0517L20.2227 9.53005V9.53005L20.7615 10.0517ZM18.068 5.38642L17.8857 4.65893L18.068 5.38642ZM14.6935 3.43812L15.4147 3.2323L14.6935 3.43812ZM5.74952 6.11391C7.60843 6.57987 9.50172 5.48678 10.0276 3.64394L8.58523 3.2323C8.28146 4.2967 7.18792 4.92806 6.11423 4.65893L5.74952 6.11391ZM3.77722 9.53005C2.34195 8.04752 3.74798 5.6122 5.74952 6.11391L6.11423 4.65893C2.6489 3.7903 0.214599 8.00664 2.69952 10.5734L3.77722 9.53005ZM3.77722 14.47C5.1102 13.0931 5.1102 10.9069 3.77722 9.53005L2.69952 10.5734C3.46944 11.3687 3.46944 12.6314 2.69952 13.4266L3.77722 14.47ZM5.74952 17.8861C3.74798 18.3878 2.34195 15.9525 3.77722 14.47L2.69952 13.4266C0.214598 15.9934 2.6489 20.2097 6.11423 19.3411L5.74952 17.8861ZM10.0276 20.3561C9.50172 18.5133 7.60843 17.4202 5.74952 17.8861L6.11423 19.3411C7.18792 19.072 8.28146 19.7033 8.58523 20.7677L10.0276 20.3561ZM13.9722 20.3561C13.406 22.3403 10.5939 22.3403 10.0276 20.3561L8.58523 20.7677C9.56564 24.2031 14.4342 24.2031 15.4147 20.7677L13.9722 20.3561ZM18.2504 17.8861C16.3915 17.4202 14.4982 18.5133 13.9722 20.3561L15.4147 20.7677C15.7184 19.7033 16.812 19.072 17.8857 19.3411L18.2504 17.8861ZM20.2227 14.47C21.6579 15.9525 20.2519 18.3878 18.2504 17.8861L17.8857 19.3411C21.351 20.2097 23.7853 15.9934 21.3004 13.4266L20.2227 14.47ZM20.2227 9.53005C18.8897 10.9069 18.8897 13.0931 20.2227 14.47L21.3004 13.4266C20.5305 12.6314 20.5305 11.3687 21.3004 10.5734L20.2227 9.53005ZM18.2504 6.11391C20.2519 5.6122 21.6579 8.04752 20.2227 9.53005L21.3004 10.5734C23.7853 8.00664 21.351 3.7903 17.8857 4.65893L18.2504 6.11391ZM13.9722 3.64394C14.4982 5.48678 16.3915 6.57987 18.2504 6.11391L17.8857 4.65893C16.812 4.92806 15.7184 4.2967 15.4147 3.2323L13.9722 3.64394ZM15.4147 3.2323C14.4342 -0.203084 9.56564 -0.203083 8.58523 3.2323L10.0276 3.64394C10.5939 1.6597 13.406 1.6597 13.9722 3.64394L15.4147 3.2323ZM8.24994 12C8.24994 14.0711 9.92888 15.75 11.9999 15.75V14.25C10.7573 14.25 9.74994 13.2427 9.74994 12H8.24994ZM11.9999 15.75C14.071 15.75 15.7499 14.0711 15.7499 12H14.2499C14.2499 13.2427 13.2426 14.25 11.9999 14.25V15.75ZM15.7499 12C15.7499 9.92895 14.071 8.25001 11.9999 8.25001V9.75002C13.2426 9.75002 14.2499 10.7574 14.2499 12H15.7499ZM11.9999 8.25001C9.92888 8.25001 8.24994 9.92895 8.24994 12H9.74994C9.74994 10.7574 10.7573 9.75002 11.9999 9.75002V8.25001Z"/>
    </symbol>
    
    <symbol viewBox="0 0 24 24" id="edit">
        <path d="M16.2041 4.5755L16.2941 4.6275C17.0723 5.07671 17.7211 5.4513 18.1962 5.81795C18.6977 6.20494 19.0957 6.64914 19.2625 7.27132C19.4292 7.8935 19.3066 8.4772 19.0658 9.06309C18.8986 9.46976 18.6529 9.92674 18.3567 10.448L17.7214 10.0704L17.7132 10.0656L10.7879 6.06728L10.1403 5.68557C10.4404 5.17448 10.7107 4.73795 10.9769 4.393C11.3639 3.89152 11.8081 3.49349 12.4303 3.32678C13.0525 3.16006 13.6362 3.28267 14.2221 3.52347C14.7771 3.7516 15.426 4.12624 16.2041 4.5755Z" fill="currentColor"/>
        <path d="M9.38884 6.98384L5.91087 13.0077C5.61308 13.5225 5.37762 13.9296 5.29039 14.3926C5.20315 14.8556 5.27434 15.3204 5.36437 15.9083L5.38862 16.0672C5.55481 17.1586 5.69179 18.0581 5.89839 18.7403C6.11446 19.4537 6.44662 20.0712 7.09989 20.4484C7.75316 20.8256 8.45402 20.8045 9.17991 20.6349C9.87398 20.4727 10.7215 20.1416 11.7497 19.7398L11.8995 19.6814C12.4536 19.4654 12.8918 19.2946 13.2491 18.9876C13.6065 18.6805 13.8413 18.2731 14.1382 17.7578L17.6079 11.7479L16.9591 11.3623L10.0292 7.36127L9.38884 6.98384Z" fill="currentColor"/>
    </symbol>

    <symbol viewBox="0 0 24 24" id="user-add">
        <path d="M12.25 6C12.25 7.79493 10.7949 9.25 9 9.25V10.75C11.6234 10.75 13.75 8.62335 13.75 6H12.25ZM9 9.25C7.20507 9.25 5.75 7.79493 5.75 6H4.25C4.25 8.62335 6.37665 10.75 9 10.75V9.25ZM5.75 6C5.75 4.20507 7.20507 2.75 9 2.75V1.25C6.37665 1.25 4.25 3.37665 4.25 6H5.75ZM9 2.75C10.7949 2.75 12.25 4.20507 12.25 6H13.75C13.75 3.37665 11.6234 1.25 9 1.25V2.75ZM6 13.75H12V12.25H6V13.75ZM12 20.25H6V21.75H12V20.25ZM6 20.25C4.20507 20.25 2.75 18.7949 2.75 17H1.25C1.25 19.6234 3.37665 21.75 6 21.75V20.25ZM15.25 17C15.25 18.7949 13.7949 20.25 12 20.25V21.75C14.6234 21.75 16.75 19.6234 16.75 17H15.25ZM12 13.75C13.7949 13.75 15.25 15.2051 15.25 17H16.75C16.75 14.3766 14.6234 12.25 12 12.25V13.75ZM6 12.25C3.37665 12.25 1.25 14.3766 1.25 17H2.75C2.75 15.2051 4.20507 13.75 6 13.75V12.25Z" fill="currentColor"/>
        <path d="M19 8V14M16 11H22" stroke="#43a0ff" stroke-width="1.5" stroke-linecap="round"/>
    </symbol>

    <symbol viewBox="0 0 24 24" fill="none" id="star">
        <path d="M8.72505 4.335C9.75586 1.22167 14.2441 1.22167 15.275 4.335C15.7359 5.72732 17.0581 6.66999 18.5499 6.66999C21.8857 6.66999 23.2727 10.8589 20.5739 12.7831C19.367 13.6436 18.862 15.1689 19.323 16.5612C20.3538 19.6745 16.7227 22.2634 14.024 20.3393C12.8171 19.4788 11.1829 19.4788 9.97597 20.3393C7.27725 22.2634 3.64616 19.6745 4.67698 16.5612C5.13797 15.1689 4.63296 13.6436 3.42606 12.7831C0.727347 10.8589 2.1143 6.66999 5.45009 6.66999C6.9419 6.66999 8.26405 5.72732 8.72505 4.335Z" stroke="currentColor" stroke-width="1.5"/>
    </symbol>

    <symbol viewBox="0 0 24 24" fill="none" id="close">
        <path d="M5 5L19 19M5.00003 19L12 12L19 5" stroke="currentColor" stroke-width="1.5" stroke-linecap="round"/>
    </symbol>

    <symbol viewBox="0 0 24 24" fill="none" id="search">
        <path d="M19.5304 17.4698C19.2375 17.1769 18.7626 17.1769 18.4697 17.4698C18.1768 17.7626 18.1768 18.2375 18.4697 18.5304L19.5304 17.4698ZM22.4696 22.5304C22.7625 22.8233 23.2374 22.8233 23.5303 22.5304C23.8232 22.2375 23.8232 21.7626 23.5303 21.4697L22.4696 22.5304ZM18.4697 18.5304L22.4696 22.5304L23.5303 21.4697L19.5304 17.4698L18.4697 18.5304ZM11 18.25C6.44365 18.25 2.75 14.5563 2.75 10H1.25C1.25 15.3848 5.61522 19.75 11 19.75V18.25ZM19.25 10C19.25 14.5563 15.5563 18.25 11 18.25V19.75C16.3848 19.75 20.75 15.3848 20.75 10H19.25ZM11 1.75C15.5563 1.75 19.25 5.44365 19.25 10H20.75C20.75 4.61522 16.3848 0.25 11 0.25V1.75ZM11 0.25C5.61522 0.25 1.25 4.61522 1.25 10H2.75C2.75 5.44365 6.44365 1.75 11 1.75V0.25Z" fill="currentColor"/>
    </symbol>

    <symbol viewBox="0 0 24 24" fill="none" id="add">
        <path d="M5.06107 20.0451L5.50191 19.4383L5.06107 20.0451ZM3.95491 18.9389L4.56168 18.4981L3.95491 18.9389ZM20.0451 18.9389L19.4383 18.4981L20.0451 18.9389ZM18.9389 20.0451L18.4981 19.4383L18.9389 20.0451ZM18.9389 3.95491L18.4981 4.56168L18.9389 3.95491ZM20.0451 5.06107L19.4383 5.50191L20.0451 5.06107ZM5.06107 3.95491L5.50191 4.56168L5.06107 3.95491ZM3.95491 5.06107L4.56168 5.50191L3.95491 5.06107ZM12 20.25C10.1084 20.25 8.74999 20.249 7.69804 20.135C6.66013 20.0225 6.00992 19.8074 5.50191 19.4383L4.62023 20.6518C5.42656 21.2377 6.37094 21.5 7.53648 21.6263C8.68798 21.751 10.1418 21.75 12 21.75V20.25ZM2.25 12C2.25 13.8582 2.24897 15.312 2.37373 16.4635C2.50001 17.6291 2.76232 18.5734 3.34815 19.3798L4.56168 18.4981C4.19259 17.9901 3.97745 17.3399 3.865 16.302C3.75103 15.25 3.75 13.8916 3.75 12H2.25ZM5.50191 19.4383C5.14111 19.1762 4.82382 18.8589 4.56168 18.4981L3.34815 19.3798C3.70281 19.8679 4.13209 20.2972 4.62023 20.6518L5.50191 19.4383ZM20.25 12C20.25 13.8916 20.249 15.25 20.135 16.302C20.0225 17.3399 19.8074 17.9901 19.4383 18.4981L20.6518 19.3798C21.2377 18.5734 21.5 17.6291 21.6263 16.4635C21.751 15.312 21.75 13.8582 21.75 12H20.25ZM12 21.75C13.8582 21.75 15.312 21.751 16.4635 21.6263C17.6291 21.5 18.5734 21.2377 19.3798 20.6518L18.4981 19.4383C17.9901 19.8074 17.3399 20.0225 16.302 20.135C15.25 20.249 13.8916 20.25 12 20.25V21.75ZM19.4383 18.4981C19.1762 18.8589 18.8589 19.1762 18.4981 19.4383L19.3798 20.6518C19.8679 20.2972 20.2972 19.8679 20.6518 19.3798L19.4383 18.4981ZM12 3.75C13.8916 3.75 15.25 3.75103 16.302 3.865C17.3399 3.97745 17.9901 4.19259 18.4981 4.56168L19.3798 3.34815C18.5734 2.76232 17.6291 2.50001 16.4635 2.37373C15.312 2.24897 13.8582 2.25 12 2.25V3.75ZM21.75 12C21.75 10.1418 21.751 8.68798 21.6263 7.53648C21.5 6.37094 21.2377 5.42656 20.6518 4.62023L19.4383 5.50191C19.8074 6.00992 20.0225 6.66013 20.135 7.69804C20.249 8.74999 20.25 10.1084 20.25 12H21.75ZM18.4981 4.56168C18.8589 4.82382 19.1762 5.14111 19.4383 5.50191L20.6518 4.62023C20.2972 4.13209 19.8679 3.70281 19.3798 3.34815L18.4981 4.56168ZM12 2.25C10.1418 2.25 8.68798 2.24897 7.53648 2.37373C6.37094 2.50001 5.42656 2.76232 4.62023 3.34815L5.50191 4.56168C6.00992 4.19259 6.66013 3.97745 7.69804 3.865C8.74999 3.75103 10.1084 3.75 12 3.75V2.25ZM3.75 12C3.75 10.1084 3.75103 8.74999 3.865 7.69804C3.97745 6.66013 4.19259 6.00992 4.56168 5.50191L3.34815 4.62023C2.76232 5.42656 2.50001 6.37094 2.37373 7.53648C2.24897 8.68798 2.25 10.1418 2.25 12H3.75ZM4.62023 3.34815C4.13209 3.70281 3.70281 4.13209 3.34815 4.62023L4.56168 5.50191C4.82382 5.14111 5.14111 4.82382 5.50191 4.56168L4.62023 3.34815Z" fill="currentColor"/>
        <path d="M9 12H15M12 9V15" stroke="#43a0ff" stroke-width="1.5" stroke-linecap="round"/>
    </symbol>

    <symbol viewBox="0 0 24 24" fill="none" id="check">
        <path d="M5.06107 20.0451C6.3754 21 8.25027 21 12 21C15.7497 21 17.6246 21 18.9389 20.0451C19.3634 19.7367 19.7367 19.3634 20.0451 18.9389C21 17.6246 21 15.7497 21 12C21 8.25027 21 6.3754 20.0451 5.06107C19.7367 4.6366 19.3634 4.26331 18.9389 3.95491C17.6246 3 15.7497 3 12 3C8.25027 3 6.3754 3 5.06107 3.95491C4.6366 4.26331 4.26331 4.6366 3.95491 5.06107C3 6.3754 3 8.25027 3 12C3 15.7497 3 17.6246 3.95491 18.9389C4.26331 19.3634 4.6366 19.7367 5.06107 20.0451Z" stroke="currentColor" stroke-width="1.5" stroke-linecap="round"/>
        <path d="M17 9L13.6308 12.7632C12.2957 14.2544 11.6282 15 10.75 15C9.8718 15 9.20425 14.2544 7.86917 12.7632L7 11.7924" stroke="#70cf97" stroke-width="1.5" stroke-linecap="round"/>
    </symbol>
</svg>